<?xml version="1.0" standalone="no"?>
<!DOCTYPE svg PUBLIC "-//W3C//DTD SVG 1.1//EN" "http://www.w3.org/Graphics/SVG/1.1/DTD/svg11.dtd" >
<svg xmlns="http://www.w3.org/2000/svg" xmlns:xlink="http://www.w3.org/1999/xlink" version="1.1">
<metadata>
Created by FontForge 20170731 at Mon Sep 23 12:03:10 2019
 By Aleksey,,,
(c) 2009 Microsoft Corporation. All Rights Reserved.
</metadata>
<defs>
<font id="SegoeUI-SemiBold" horiz-adv-x="1548" >
  <font-face 
    font-family="Segoe UI Semibold"
    font-weight="600"
    font-stretch="normal"
    units-per-em="2048"
    panose-1="2 11 7 2 4 2 4 2 2 3"
    ascent="1638"
    descent="-410"
    x-height="1024"
    bbox="-431 -514 2811 2159"
    underline-thickness="119"
    underline-position="-355"
    unicode-range="U+000D-A78C"
  />
<missing-glyph horiz-adv-x="1322" 
d="M166 0v1398h990v-1398h-990zM314 148h694v1102h-694v-1102z" />
    <glyph glyph-name=".notdef" horiz-adv-x="1322" 
d="M166 0v1398h990v-1398h-990zM314 148h694v1102h-694v-1102z" />
    <glyph glyph-name=".null" horiz-adv-x="0" 
 />
    <glyph glyph-name="nonmarkingreturn" horiz-adv-x="154" 
 />
    <glyph glyph-name="null" unicode="&#xd;" horiz-adv-x="0" 
 />
    <glyph glyph-name="space" unicode=" " horiz-adv-x="563" 
 />
    <glyph glyph-name="exclam" unicode="!" horiz-adv-x="622" 
d="M422 1434l-19 -1012h-190l-26 1012h235zM311 -20q-60 0 -102 38.5t-42 93.5q0 57 42 97t102 40q58 0 100.5 -40t42.5 -97q0 -55 -42.5 -93.5t-100.5 -38.5z" />
    <glyph glyph-name="quotedbl" unicode="&#x22;" horiz-adv-x="896" 
d="M374 1442l-30 -447h-152l-30 447h212zM735 1442l-30 -447h-153l-30 447h213z" />
    <glyph glyph-name="numbersign" unicode="#" horiz-adv-x="1211" 
d="M1170 1049l-31 -140h-227l-58 -276h248l-35 -140h-242l-82 -370h-159l80 370h-242l-78 -370h-159l78 370h-229l28 140h232l55 276h-244l29 140h244l80 385h161l-79 -385h242l82 385h158l-80 -385h228zM754 909h-244l-60 -276h245z" />
    <glyph glyph-name="dollar" unicode="$" horiz-adv-x="1137" 
d="M642 8v-217h-123v209q-222 0 -361 86v223q61 -53 165.5 -89t195.5 -36v445q-236 109 -305.5 201t-69.5 218q0 149 106 257.5t269 130.5v180h123v-176q210 -6 290 -56v-214q-109 80 -290 86v-461q220 -102 301 -198t81 -217q0 -147 -101 -246t-281 -126zM519 852v399
q-75 -15 -119 -64t-44 -119q0 -74 36 -121t127 -95zM642 575v-385q170 36 170 177q0 118 -170 208z" />
    <glyph glyph-name="percent" unicode="%" horiz-adv-x="1721" 
d="M416 714q-152 0 -242 97.5t-90 260.5q0 178 95.5 280.5t257.5 102.5q157 0 243.5 -95t86.5 -267t-97 -275.5t-254 -103.5zM430 1315q-82 0 -129.5 -63t-47.5 -173q0 -108 46.5 -168t127.5 -60t127 62.5t46 173.5q0 108 -45.5 168t-124.5 60zM1387 1434l-920 -1444h-143
l919 1444h144zM1258 -22q-152 0 -242 97.5t-90 260.5q0 178 95.5 280.5t257.5 102.5q157 0 243.5 -95t86.5 -267t-97 -275.5t-254 -103.5zM1272 579q-82 0 -129.5 -63t-47.5 -173q0 -108 46.5 -168t127.5 -60t127 62.5t46 173.5q0 108 -45.5 168t-124.5 60z" />
    <glyph glyph-name="ampersand" unicode="&#x26;" horiz-adv-x="1684" 
d="M1479 -23q-63 0 -111 14t-88.5 40t-78.5 63t-80 85q-41 -39 -94.5 -75t-119 -64.5t-143 -45t-168.5 -16.5q-110 0 -202 27t-157.5 79.5t-101.5 129.5t-36 176q0 153 88 261.5t247 177.5q-30 22 -60 51.5t-53.5 67t-38 83t-14.5 99.5q0 79 30.5 140t84.5 103t127.5 63.5
t158.5 21.5q84 0 154 -21.5t120 -61.5t78 -96t28 -124q0 -121 -68.5 -200t-205.5 -135q69 -25 125 -60.5t103.5 -79.5t85 -94.5t73.5 -104.5q75 108 113 237.5t38 271.5q0 36 -4.5 68t-12.5 63h208q10 -32 12 -60t5 -68q0 -87 -21 -175t-56 -171t-82 -166t-98 -160
q35 -38 64 -66.5t59.5 -47.5t62 -28t71.5 -9q31 0 62 8t64 20v-185q-40 -18 -83.5 -27t-84.5 -9zM629 163q70 0 128.5 15t108 39.5t90 57t73.5 68.5q-58 85 -107 145.5t-98.5 104t-106 75t-130.5 58.5q-55 -22 -101 -49.5t-79.5 -64.5t-52.5 -86.5t-19 -115.5
q0 -61 23 -107.5t63 -77.5t93 -46.5t115 -15.5zM838 1129q0 43 -16 73.5t-40.5 50.5t-54.5 29t-59 9q-85 0 -135 -46t-51 -125q0 -35 10.5 -66.5t30 -58.5t45.5 -47.5t55 -35.5q108 38 161.5 89t53.5 128z" />
    <glyph glyph-name="quotesingle" unicode="'" horiz-adv-x="529" 
d="M371 1442l-30 -447h-153l-30 447h213z" />
    <glyph glyph-name="parenleft" unicode="(" horiz-adv-x="680" 
d="M660 -326h-196q-316 354 -316 873q0 521 316 887h197q-310 -380 -310 -885q0 -501 309 -875z" />
    <glyph glyph-name="parenright" unicode=")" horiz-adv-x="680" 
d="M217 -326h-196q310 374 310 875q0 505 -311 885h198q317 -366 317 -887q0 -519 -318 -873z" />
    <glyph glyph-name="asterisk" unicode="*" horiz-adv-x="889" 
d="M818 1081l-274 -47l192 -229l-142 -98l-148 260l-148 -260l-143 98l193 229l-275 47l57 160l257 -103l-32 296h182l-32 -296l257 103z" />
    <glyph glyph-name="plus" unicode="+" horiz-adv-x="1422" 
d="M1190 510h-395v-395h-165v395h-395v165h395v396h165v-396h395v-165z" />
    <glyph glyph-name="comma" unicode="," horiz-adv-x="494" 
d="M368 239l-155 -499h-174l110 499h219z" />
    <glyph glyph-name="hyphen" unicode="-" horiz-adv-x="823" 
d="M690 474h-546v171h546v-171z" />
    <glyph glyph-name="period" unicode="." horiz-adv-x="494" 
d="M247 -22q-60 0 -102 39.5t-42 94.5q0 56 42 96t102 40q61 0 103.5 -40t42.5 -96q0 -55 -42.5 -94.5t-103.5 -39.5z" />
    <glyph glyph-name="slash" unicode="/" horiz-adv-x="847" 
d="M867 1434l-693 -1672h-211l690 1672h214z" />
    <glyph glyph-name="zero" unicode="0" horiz-adv-x="1137" 
d="M553 -24q-224 0 -349.5 183t-125.5 529q0 380 131 575t378 195q473 0 473 -735q0 -364 -133.5 -555.5t-373.5 -191.5zM576 1273q-261 0 -261 -575q0 -538 256 -538q252 0 252 547q0 566 -247 566z" />
    <glyph glyph-name="one" unicode="1" horiz-adv-x="1137" 
d="M1027 0h-854v192h312v1014l-320 -85v202l552 138v-1269h310v-192z" />
    <glyph glyph-name="two" unicode="2" horiz-adv-x="1137" 
d="M1001 0h-900v191l397 385q152 147 217 244.5t65 208.5q0 114 -67.5 176.5t-192.5 62.5q-183 0 -350 -164v223q177 131 411 131q202 0 318 -101.5t116 -293.5q0 -129 -72 -252.5t-277 -323.5l-295 -283v-5h630v-199z" />
    <glyph glyph-name="three" unicode="3" horiz-adv-x="1137" 
d="M138 53v218q140 -111 316 -111q143 0 228.5 65t85.5 176q0 244 -373 244h-111v186h106q331 0 331 230q0 212 -258 212q-144 0 -271 -103v206q146 82 345 82q191 0 306 -96t115 -246q0 -283 -288 -364v-4q155 -15 245 -108.5t90 -233.5q0 -193 -145 -311.5t-382 -118.5
q-213 0 -340 77z" />
    <glyph glyph-name="four" unicode="4" horiz-adv-x="1137" 
d="M1074 346h-179v-346h-218v346h-652v150l622 938h248v-913h179v-175zM677 521v555q0 59 4 132h-4q-12 -32 -49 -98l-390 -589h439z" />
    <glyph glyph-name="five" unicode="5" horiz-adv-x="1137" 
d="M164 33v223q141 -95 286 -95q146 0 235 74.5t89 198.5q0 122 -90.5 190t-259.5 68q-58 0 -215 -12v754h737v-198h-533v-359q65 4 121 4q228 0 352.5 -117t124.5 -320q0 -213 -142.5 -341.5t-391.5 -128.5q-210 0 -313 59z" />
    <glyph glyph-name="six" unicode="6" horiz-adv-x="1137" 
d="M967 1417v-201q-107 57 -225 57q-183 0 -293 -148t-110 -397h4q97 180 320 180q183 0 291 -122t108 -326q0 -214 -133.5 -349t-338.5 -135q-227 0 -356 172t-129 483q0 377 168.5 602t446.5 225q156 0 247 -41zM593 726q-108 0 -175.5 -75.5t-67.5 -178.5
q0 -129 67 -220.5t178 -91.5q105 0 170 79.5t65 201.5q0 134 -62 209.5t-175 75.5z" />
    <glyph glyph-name="seven" unicode="7" horiz-adv-x="1137" 
d="M1048 1340l-540 -1340h-244l525 1236h-699v198h958v-94z" />
    <glyph glyph-name="eight" unicode="8" horiz-adv-x="1137" 
d="M392 752v4q-253 120 -253 347q0 156 127 255.5t327 99.5q181 0 297 -93t116 -239q0 -238 -266 -370v-4q308 -112 308 -388q0 -178 -135 -283t-376 -105q-195 0 -320.5 104t-125.5 270q0 276 301 402zM780 1091q0 87 -54.5 137.5t-148.5 50.5q-88 0 -149 -52.5t-61 -133.5
q0 -165 205 -249q208 86 208 247zM560 651q-242 -97 -242 -280q0 -95 70.5 -156t185.5 -61q109 0 178.5 60t69.5 151q0 192 -262 286z" />
    <glyph glyph-name="nine" unicode="9" horiz-adv-x="1137" 
d="M166 27v201q116 -68 246 -68q189 0 294 137.5t105 390.5q-2 -1 -4 0q-89 -166 -310 -166q-179 0 -294.5 126.5t-115.5 325.5q0 212 136 348t347 136q222 0 346.5 -167.5t124.5 -488.5q0 -396 -162 -611t-450 -215q-152 0 -263 51zM554 1273q-101 0 -169 -79t-68 -200
q0 -134 66.5 -210t180.5 -76q99 0 167.5 69.5t68.5 170.5q0 143 -68.5 234t-177.5 91z" />
    <glyph glyph-name="colon" unicode=":" horiz-adv-x="494" 
d="M247 -22q-60 0 -102 39.5t-42 94.5q0 56 42 96t102 40q61 0 103.5 -40t42.5 -96q0 -55 -42.5 -94.5t-103.5 -39.5zM247 769q-60 0 -102 39.5t-42 94.5q0 56 42 96t102 40q61 0 103.5 -40t42.5 -96q0 -55 -42.5 -94.5t-103.5 -39.5z" />
    <glyph glyph-name="semicolon" unicode=";" horiz-adv-x="494" 
d="M247 771q-59 0 -99.5 40.5t-40.5 96.5t40.5 95t99.5 39q57 0 98 -39t41 -95t-41 -96.5t-98 -40.5zM368 239l-152 -503h-177l109 503h220z" />
    <glyph glyph-name="less" unicode="&#x3c;" horiz-adv-x="1422" 
d="M1159 98l-893 429v106l893 466v-190l-653 -324v-4l653 -294v-189z" />
    <glyph glyph-name="equal" unicode="=" horiz-adv-x="1422" 
d="M1190 724h-955v165h955v-165zM1190 295h-955v164h955v-164z" />
    <glyph glyph-name="greater" unicode="&#x3e;" horiz-adv-x="1422" 
d="M1159 533l-893 -429v189l654 291v6l-654 324v190l893 -465v-106z" />
    <glyph glyph-name="question" unicode="?" horiz-adv-x="909" 
d="M303 405q-9 25 -16 65t-7 79q0 61 24.5 110.5t61 92.5t79 83t79 78t61 80t24.5 92q0 45 -18 78.5t-49.5 56t-72 33.5t-86.5 11q-149 0 -284 -133v231q164 96 340 96q81 0 153 -21t126 -62t85 -102t31 -142q0 -77 -26 -137t-65.5 -110.5t-85 -89.5t-85 -78t-65.5 -81
t-26 -93q0 -43 11 -78t22 -59h-211zM417 -18q-57 0 -101 39q-42 38 -42 94q0 57 42 94q43 40 101 40q57 0 100 -40q42 -37 42 -94q0 -56 -42 -94q-44 -39 -100 -39z" />
    <glyph glyph-name="at" unicode="@" horiz-adv-x="1955" 
d="M1147 397h-5q-72 -215 -282 -215q-134 0 -216 100.5t-82 270.5q0 225 112.5 374t296.5 149q70 0 125 -38.5t71 -92.5h3q3 28 15 115h166q-47 -528 -47 -538q0 -198 103 -198q94 0 156 110.5t62 286.5q0 260 -167.5 424.5t-464.5 164.5q-285 0 -472 -199t-187 -498
q0 -295 180 -476t485 -181q240 0 411 82v-154q-175 -74 -437 -74q-368 0 -593 220t-225 576q0 366 238 607t608 241q347 0 574.5 -202t227.5 -527q0 -238 -123.5 -390.5t-301.5 -152.5q-230 0 -231 215zM988 934q-110 0 -177.5 -108t-67.5 -269q0 -108 45.5 -170.5
t121.5 -62.5q110 0 174 113.5t64 300.5q0 196 -160 196z" />
    <glyph glyph-name="A" unicode="A" horiz-adv-x="1375" 
d="M1355 0h-261l-129 365h-564l-124 -365h-260l537 1434h268zM902 559l-199 572q-9 28 -19 90h-4q-9 -57 -20 -90l-197 -572h439z" />
    <glyph glyph-name="B" unicode="B" horiz-adv-x="1237" 
d="M177 0v1434h455q208 0 329.5 -91t121.5 -237q0 -122 -69 -212t-191 -128v-4q148 -17 236.5 -109.5t88.5 -240.5q0 -184 -145 -298t-366 -114h-460zM414 1243v-408h154q124 0 194.5 58.5t70.5 165.5q0 184 -246 184h-173zM414 644v-454h203q133 0 205.5 61.5t72.5 169.5
q0 223 -309 223h-172z" />
    <glyph glyph-name="C" unicode="C" horiz-adv-x="1272" 
d="M1177 60q-162 -84 -403 -84q-312 0 -500 197t-188 517q0 344 211.5 556t534.5 212q208 0 345 -59v-236q-145 86 -320 86q-233 0 -377.5 -149t-144.5 -398q0 -237 135 -377.5t355 -140.5q203 0 352 96v-220z" />
    <glyph glyph-name="D" unicode="D" horiz-adv-x="1469" 
d="M177 0v1434h414q793 0 793 -699q0 -332 -220 -533.5t-590 -201.5h-397zM414 1232v-1031h190q251 0 390.5 138t139.5 390q0 503 -521 503h-199z" />
    <glyph glyph-name="E" unicode="E" horiz-adv-x="1060" 
d="M982 0h-805v1434h773v-202h-535v-406h493v-201h-493v-424h567v-201z" />
    <glyph glyph-name="F" unicode="F" horiz-adv-x="1029" 
d="M951 1232h-536v-431h494v-201h-494v-600h-238v1434h774v-202z" />
    <glyph glyph-name="G" unicode="G" horiz-adv-x="1428" 
d="M1296 98q-224 -122 -499 -122q-318 0 -515 198t-197 524q0 333 215.5 546.5t547.5 213.5q239 0 402 -70v-245q-165 110 -393 110q-229 0 -375.5 -151t-146.5 -391q0 -247 126 -388.5t342 -141.5q148 0 256 57v341h-302v200h539v-681z" />
    <glyph glyph-name="H" unicode="H" horiz-adv-x="1506" 
d="M1329 0h-239v622h-675v-622h-238v1434h238v-603h675v603h239v-1434z" />
    <glyph glyph-name="I" unicode="I" horiz-adv-x="592" 
d="M546 1434v-192h-131v-1050h131v-192h-500v192h131v1050h-131v192h500z" />
    <glyph glyph-name="J" unicode="J" horiz-adv-x="812" 
d="M648 514q0 -255 -126 -396.5t-336 -141.5q-98 0 -161 23v224q57 -39 147 -39q238 0 238 368v882h238v-920z" />
    <glyph glyph-name="K" unicode="K" horiz-adv-x="1251" 
d="M1262 0h-310l-499 656q-28 37 -34 50h-4v-706h-238v1434h238v-674h4q12 22 34 49l481 625h285l-563 -688z" />
    <glyph glyph-name="L" unicode="L" horiz-adv-x="1001" 
d="M971 0h-794v1434h238v-1233h556v-201z" />
    <glyph glyph-name="M" unicode="M" horiz-adv-x="1893" 
d="M1717 0h-236v928q0 114 14 279h-4q-22 -94 -39 -135l-428 -1072h-164l-429 1064q-18 47 -38 143h-4q8 -86 8 -281v-926h-220v1434h335l377 -955q43 -110 56 -164h5q37 113 60 168l384 951h323v-1434z" />
    <glyph glyph-name="N" unicode="N" horiz-adv-x="1571" 
d="M1393 0h-260l-685 1054q-26 40 -43 83h-6q8 -46 8 -197v-940h-230v1434h277l662 -1029q42 -64 54 -88h4q-10 57 -10 193v924h229v-1434z" />
    <glyph glyph-name="O" unicode="O" 
d="M768 -24q-310 0 -496.5 201t-186.5 523q0 346 190 552t516 206q302 0 486.5 -200t184.5 -523q0 -351 -189 -555t-505 -204zM779 1249q-197 0 -320.5 -147t-123.5 -387q0 -239 120 -385t314 -146q206 0 325 139t119 389q0 257 -115.5 397t-318.5 140z" />
    <glyph glyph-name="P" unicode="P" horiz-adv-x="1197" 
d="M414 520v-520h-237v1434h435q247 0 383 -115t136 -324t-142 -342t-384 -133h-191zM414 1238v-524h154q153 0 233 71t80 200q0 253 -294 253h-173z" />
    <glyph glyph-name="Q" unicode="Q" 
d="M741 -23q-63 0 -128.5 12.5t-127 38t-117.5 63.5t-102 88q-181 201 -181 525q0 346 189 551q191 206 522 206q297 0 482 -200t185 -523q0 -134 -29 -253t-87.5 -215t-147 -162.5t-210.5 -95.5q53 -51 99.5 -90t92.5 -65.5t96 -40.5t110 -14q16 0 35 1.5t38 5t36.5 8
t32.5 10.5v-212q-17 -6 -39 -10t-44 -7t-43.5 -4.5t-40.5 -1.5q-104 0 -186.5 30t-154.5 82.5t-139 122.5t-141 150zM779 1249q-198 0 -322 -147q-123 -147 -123 -387q0 -238 120 -386q121 -145 314 -145q207 0 326 139t119 389q0 258 -116 397q-115 140 -318 140z" />
    <glyph glyph-name="R" unicode="R" horiz-adv-x="1275" 
d="M1285 0h-278l-229 384q-31 53 -60.5 90.5t-60 61.5t-66.5 35t-81 11h-96v-582h-237v1434h472q101 0 186 -24t148 -72.5t98.5 -121t35.5 -169.5q0 -76 -22.5 -139.5t-64 -113t-100 -84.5t-131.5 -54v-4q39 -22 68 -48.5t55 -54.5t51.5 -63.5t56.5 -82.5zM414 1241v-466
h198q55 0 101.5 17t80.5 49t53 78t19 103q0 103 -65 161t-187 58h-200z" />
    <glyph glyph-name="S" unicode="S" horiz-adv-x="1115" 
d="M111 57v245q33 -30 78.5 -54t96.5 -40.5t102 -25.5t94 -9q150 0 223.5 50t73.5 145q0 51 -24.5 88.5t-68.5 68.5t-103.5 59.5t-127.5 59.5q-73 39 -136 79t-109.5 88.5t-73 109.5t-26.5 143q0 101 45.5 175.5t120 123t169.5 72t194 23.5q225 0 328 -51v-235
q-122 88 -314 88q-53 0 -105.5 -10t-94 -33t-67.5 -59t-26 -87q0 -48 20 -83t58.5 -64t94 -56.5t128.5 -59.5q75 -39 141.5 -82t117 -95t80 -115.5t29.5 -144.5q0 -109 -44 -184t-118.5 -122t-171.5 -68t-205 -21q-36 0 -88.5 5.5t-107.5 16t-104 25.5t-79 34z" />
    <glyph glyph-name="T" unicode="T" horiz-adv-x="1130" 
d="M1097 1232h-412v-1232h-238v1232h-411v202h1061v-202z" />
    <glyph glyph-name="U" unicode="U" horiz-adv-x="1440" 
d="M1280 580q0 -604 -572 -604q-548 0 -548 581v877h238v-828q0 -422 328 -422q316 0 316 407v843h238v-854z" />
    <glyph glyph-name="V" unicode="V" horiz-adv-x="1314" 
d="M1301 1434l-515 -1434h-266l-506 1434h260l354 -1088q17 -52 26 -121h4q7 57 29 123l362 1086h252z" />
    <glyph glyph-name="W" unicode="W" horiz-adv-x="1978" 
d="M1956 1434l-393 -1434h-269l-273 1003q-17 64 -21 140h-4q-5 -71 -24 -138l-274 -1005h-275l-401 1434h261l260 -1050q16 -66 20 -138h5q4 51 28 138l294 1050h245l272 -1058q14 -54 21 -128h4q3 50 23 132l255 1054h246z" />
    <glyph glyph-name="X" unicode="X" horiz-adv-x="1268" 
d="M1249 0h-285l-294 526q-13 24 -29 68h-4q-9 -22 -30 -68l-303 -526h-287l470 721l-432 713h291l259 -484q25 -48 45 -96h3q29 63 50 100l269 480h268l-442 -711z" />
    <glyph glyph-name="Y" unicode="Y" horiz-adv-x="1182" 
d="M1176 1434l-470 -913v-521h-238v516l-458 918h271l282 -615q5 -11 30 -83h3q9 32 33 83l295 615h252z" />
    <glyph glyph-name="Z" unicode="Z" horiz-adv-x="1202" 
d="M1155 1330l-786 -1129h776v-201h-1109v109l789 1123h-728v202h1058v-104z" />
    <glyph glyph-name="bracketleft" unicode="[" horiz-adv-x="680" 
d="M621 -326h-413v1760h413v-156h-216v-1448h216v-156z" />
    <glyph glyph-name="backslash" unicode="\" horiz-adv-x="829" 
d="M869 -240h-206l-676 1674h210z" />
    <glyph glyph-name="bracketright" unicode="]" horiz-adv-x="680" 
d="M474 -326h-413v156h216v1448h-216v156h413v-1760z" />
    <glyph glyph-name="asciicircum" unicode="^" horiz-adv-x="1422" 
d="M1208 618h-192l-312 604h-6l-291 -604h-189l425 840h109z" />
    <glyph glyph-name="underscore" unicode="_" horiz-adv-x="850" 
d="M850 -297h-850v119h850v-119z" />
    <glyph glyph-name="grave" unicode="`" horiz-adv-x="591" 
d="M527 1204h-173l-262 328h214z" />
    <glyph glyph-name="a" unicode="a" horiz-adv-x="1069" 
d="M937 0h-225v160h-4q-106 -184 -311 -184q-151 0 -236.5 82t-85.5 217q0 290 334 338l304 43q0 219 -208 219q-183 0 -330 -126v203q162 96 374 96q388 0 388 -382v-666zM713 503l-215 -30q-100 -13 -150.5 -48.5t-50.5 -124.5q0 -65 46.5 -106.5t124.5 -41.5
q106 0 175.5 74.5t69.5 187.5v89z" />
    <glyph glyph-name="b" unicode="b" horiz-adv-x="1234" 
d="M387 148h-4v-148h-232v1516h232v-672h4q119 204 348 204q194 0 303.5 -137.5t109.5 -368.5q0 -257 -123 -411.5t-336 -154.5q-200 0 -302 172zM381 555v-127q0 -112 71.5 -190t181.5 -78q129 0 202.5 100.5t73.5 280.5q0 151 -68.5 236.5t-185.5 85.5q-124 0 -199.5 -88
t-75.5 -220z" />
    <glyph glyph-name="c" unicode="c" horiz-adv-x="963" 
d="M884 47q-123 -71 -291 -71q-228 0 -368 142.5t-140 369.5q0 253 150.5 406.5t402.5 153.5q140 0 247 -49v-216q-107 80 -228 80q-147 0 -241 -99.5t-94 -260.5q0 -159 88.5 -251t237.5 -92q125 0 236 89v-202z" />
    <glyph glyph-name="d" unicode="d" horiz-adv-x="1234" 
d="M1082 0h-232v174h-4q-112 -198 -345 -198q-189 0 -302.5 137.5t-113.5 374.5q0 254 125.5 407t334.5 153q207 0 301 -166h4v634h232v-1516zM853 468v134q0 109 -71 185t-181 76q-130 0 -204.5 -97t-74.5 -269q0 -156 71.5 -246.5t192.5 -90.5q119 0 193 87.5t74 220.5z
" />
    <glyph glyph-name="e" unicode="e" horiz-adv-x="1088" 
d="M1018 449h-698q4 -142 87.5 -219t229.5 -77q164 0 301 98v-187q-140 -88 -370 -88q-226 0 -354.5 139.5t-128.5 392.5q0 239 141.5 389.5t351.5 150.5t325 -135t115 -375v-89zM794 613q-1 125 -59 194.5t-160 69.5q-100 0 -169.5 -73t-85.5 -191h474z" />
    <glyph glyph-name="f" unicode="f" horiz-adv-x="706" 
d="M730 1327q-47 27 -107 27q-169 0 -169 -191v-139h238v-182h-237v-842h-232v842h-175v182h175v166q0 162 106 255.5t265 93.5q86 0 136 -19v-193z" />
    <glyph glyph-name="g" unicode="g" horiz-adv-x="1234" 
d="M1083 82q0 -564 -567 -564q-200 0 -349 67v212q168 -96 319 -96q365 0 365 359v112h-4q-115 -196 -346 -196q-187 0 -301.5 136.5t-114.5 366.5q0 261 123 415t338 154q203 0 301 -166h4v142h232v-942zM853 469v133q0 108 -71.5 184.5t-178.5 76.5q-132 0 -206.5 -97.5
t-74.5 -272.5q0 -151 71.5 -241.5t189.5 -90.5q120 0 195 86.5t75 221.5z" />
    <glyph glyph-name="h" unicode="h" horiz-adv-x="1192" 
d="M1061 0h-232v560q0 304 -203 304q-102 0 -172 -88t-70 -225v-551h-233v1516h233v-662h4q116 194 332 194q341 0 341 -417v-631z" />
    <glyph glyph-name="i" unicode="i" horiz-adv-x="535" 
d="M268 1239q-57 0 -97.5 37t-40.5 94t40.5 95t97.5 38q59 0 100 -38t41 -95q0 -54 -41 -92.5t-100 -38.5zM383 0h-232v1024h232v-1024z" />
    <glyph glyph-name="j" unicode="j" horiz-adv-x="535" 
d="M383 43q0 -252 -106 -388.5t-303 -136.5q-73 0 -142 32v199q65 -45 123 -45q196 0 196 346v974h232v-981zM269 1239q-57 0 -97.5 37t-40.5 94t40.5 95t97.5 38q58 0 99 -38t41 -95q0 -54 -41 -92.5t-99 -38.5z" />
    <glyph glyph-name="k" unicode="k" horiz-adv-x="1075" 
d="M1080 0h-294l-398 492h-4v-492h-233v1516h233v-961h4l376 469h279l-423 -494z" />
    <glyph glyph-name="l" unicode="l" horiz-adv-x="535" 
d="M384 0h-233v1516h233v-1516z" />
    <glyph glyph-name="m" unicode="m" horiz-adv-x="1814" 
d="M1682 0h-232v558q0 161 -45.5 233t-153.5 72q-91 0 -154.5 -91t-63.5 -218v-554h-233v577q0 286 -202 286q-94 0 -154.5 -86t-60.5 -223v-554h-232v1024h232v-162h4q111 186 323 186q106 0 185.5 -58.5t108.5 -153.5q114 212 340 212q338 0 338 -417v-631z" />
    <glyph glyph-name="n" unicode="n" horiz-adv-x="1195" 
d="M1063 0h-232v577q0 287 -203 287q-106 0 -175 -79.5t-69 -200.5v-584h-233v1024h233v-170h4q115 194 332 194q167 0 255 -108.5t88 -313.5v-626z" />
    <glyph glyph-name="o" unicode="o" horiz-adv-x="1223" 
d="M605 -24q-237 0 -378.5 143.5t-141.5 380.5q0 258 147.5 403t397.5 145q240 0 374 -141t134 -391q0 -245 -144.5 -392.5t-388.5 -147.5zM616 863q-136 0 -215 -95t-79 -262q0 -161 80 -253.5t214 -92.5q137 0 210.5 91t73.5 259q0 169 -73.5 261t-210.5 92z" />
    <glyph glyph-name="p" unicode="p" horiz-adv-x="1234" 
d="M387 151h-4v-622h-232v1495h232v-180h4q119 204 348 204q195 0 304 -137t109 -368q0 -256 -123 -410t-336 -154q-196 0 -302 172zM381 555v-127q0 -112 71.5 -190t181.5 -78q129 0 202.5 100.5t73.5 280.5q0 151 -68.5 236.5t-185.5 85.5q-124 0 -199.5 -88t-75.5 -220z
" />
    <glyph glyph-name="q" unicode="q" horiz-adv-x="1234" 
d="M1082 -471h-232v647h-4q-105 -200 -343 -200q-189 0 -303.5 137.5t-114.5 374.5q0 255 125.5 407.5t337.5 152.5q206 0 298 -166h4v142h232v-1495zM853 466v132q0 111 -71.5 188t-181.5 77q-129 0 -203.5 -96.5t-74.5 -272.5q0 -156 72 -245t186 -89q125 0 199 87t74 219
z" />
    <glyph glyph-name="r" unicode="r" horiz-adv-x="758" 
d="M745 803q-42 33 -121 33q-103 0 -172 -93t-69 -253v-490h-232v1024h232v-211h4q34 108 104.5 168.5t157.5 60.5q63 0 96 -19v-220z" />
    <glyph glyph-name="s" unicode="s" horiz-adv-x="883" 
d="M87 32v215q130 -99 287 -99q210 0 210 124q0 35 -18 59.5t-48.5 43.5t-72 34t-92.5 34q-63 25 -113.5 53t-84 63.5t-50.5 80.5t-17 105q0 74 35 130.5t94 95t134 58t155 19.5q142 0 254 -43v-203q-108 74 -248 74q-44 0 -79.5 -9t-60.5 -25t-39 -38.5t-14 -49.5
q0 -33 14 -56t41.5 -40.5t66 -32t88.5 -31.5q66 -27 118.5 -55t89.5 -63.5t57 -82t20 -110.5q0 -78 -36 -136t-96 -96t-138.5 -56.5t-165.5 -18.5q-168 0 -291 56z" />
    <glyph glyph-name="t" unicode="t" horiz-adv-x="740" 
d="M691 11q-68 -34 -179 -34q-298 0 -298 286v579h-171v182h171v237l232 66v-303h245v-182h-245v-512q0 -91 33 -130t110 -39q59 0 102 34v-184z" />
    <glyph glyph-name="u" unicode="u" horiz-adv-x="1195" 
d="M1044 0h-232v162h-4q-101 -186 -314 -186q-363 0 -363 436v612h232v-588q0 -276 213 -276q103 0 169.5 76t66.5 199v589h232v-1024z" />
    <glyph glyph-name="v" unicode="v" horiz-adv-x="1039" 
d="M1033 1024l-396 -1024h-251l-377 1024h252l227 -716q26 -79 32 -138h3q9 74 28 134l238 720h244z" />
    <glyph glyph-name="w" unicode="w" horiz-adv-x="1549" 
d="M1528 1024l-302 -1024h-243l-186 694q-11 40 -14 90h-4q-2 -34 -18 -88l-202 -696h-238l-301 1024h240l186 -738q9 -33 12 -88h7q3 42 16 90l207 736h218l184 -741q9 -35 13 -88h7q2 37 15 88l182 741h221z" />
    <glyph glyph-name="x" unicode="x" horiz-adv-x="1026" 
d="M1007 1024l-341 -518l337 -506h-269l-180 317q-17 29 -40 74h-4q-4 -9 -42 -74l-183 -317h-268l348 502l-330 522h270l177 -333q20 -37 39 -76h3l229 409h254z" />
    <glyph glyph-name="y" unicode="y" horiz-adv-x="1041" 
d="M1038 1024l-462 -1188q-144 -318 -404 -318q-73 0 -122 13v193q55 -18 100 -18q130 0 194 128l69 168l-407 1022h257l244 -744q4 -14 18 -74h5q5 23 18 72l256 746h234z" />
    <glyph glyph-name="z" unicode="z" horiz-adv-x="951" 
d="M907 927l-553 -746h551v-181h-876v87l565 756h-511v181h824v-97z" />
    <glyph glyph-name="braceleft" unicode="{" horiz-adv-x="680" 
d="M608 -326q-356 4 -356 304v295q0 198 -156 208v146q156 10 156 212v287q0 304 356 308v-155q-159 -4 -159 -191v-282q0 -202 -199 -249v-3q199 -44 199 -247v-279q0 -107 35.5 -152.5t123.5 -47.5v-154z" />
    <glyph glyph-name="bar" unicode="|" horiz-adv-x="570" 
d="M383 -482h-194v2048h194v-2048z" />
    <glyph glyph-name="braceright" unicode="}" horiz-adv-x="680" 
d="M583 481q-155 -10 -155 -208v-295q0 -300 -354 -304v154q87 2 123.5 48t36.5 152v279q0 203 197 247v3q-197 47 -197 249v282q0 187 -160 191v155q354 -4 354 -308v-287q0 -202 155 -212v-146z" />
    <glyph glyph-name="asciitilde" unicode="~" horiz-adv-x="1422" 
d="M1220 759q-7 -159 -80.5 -246.5t-199.5 -87.5q-109 0 -266 98q-97 67 -159 67q-140 0 -146 -169h-166q5 155 79.5 245t201.5 90q113 0 236 -76q132 -91 197 -91q61 0 98 47t39 123h166z" />
    <glyph glyph-name="uni00A0" unicode="&#xa0;" horiz-adv-x="563" 
 />
    <glyph glyph-name="exclamdown" unicode="&#xa1;" horiz-adv-x="622" 
d="M311 778q-60 0 -102 39t-42 95t42.5 95.5t102.5 39.5q58 0 100 -39.5t42 -95.5t-42.5 -95t-100.5 -39zM435 -406h-244l27 1011h189z" />
    <glyph glyph-name="cent" unicode="&#xa2;" horiz-adv-x="1137" 
d="M975 208q-88 -58 -203 -68v-189h-141v191q-208 22 -331 161t-123 346q0 219 123 366.5t331 184.5v214h141v-203q113 -2 203 -52v-213q-93 67 -203 74v-690q112 12 203 86v-208zM631 339v670q-107 -27 -167.5 -117.5t-60.5 -222.5t61 -219t167 -111z" />
    <glyph glyph-name="sterling" unicode="&#xa3;" horiz-adv-x="1137" 
d="M1055 0h-932v176q206 62 206 281v168h-185v175h185v245q0 181 115.5 297t299.5 116q124 0 226 -41v-201q-95 57 -201 57q-218 0 -218 -267v-206h284v-175h-284v-138q0 -215 -193 -301h697v-186z" />
    <glyph glyph-name="currency" unicode="&#xa4;" horiz-adv-x="1138" 
d="M1060 356l-114 -118l-140 139q-104 -71 -236 -71q-137 0 -241 68l-137 -136l-114 118l140 136q-72 111 -72 233q0 127 72 233l-140 138l114 118l141 -139q109 72 237 72t235 -72l141 139l114 -118l-139 -138q74 -110 74 -233q0 -119 -74 -233zM570 985q-109 0 -184 -76
t-75 -182t76 -182t183 -76q106 0 183 76t77 182t-78 182t-182 76z" />
    <glyph glyph-name="yen" unicode="&#xa5;" horiz-adv-x="1137" 
d="M1093 1434l-355 -650h270v-161h-321v-183h321v-161h-321v-279h-228v279h-331v161h331v183h-331v161h275l-348 650h250l231 -494q26 -56 43 -107h4q12 40 45 113l229 488h236z" />
    <glyph glyph-name="brokenbar" unicode="&#xa6;" horiz-adv-x="570" 
d="M383 701h-194v865h194v-865zM383 -482h-194v872h194v-872z" />
    <glyph glyph-name="section" unicode="&#xa7;" horiz-adv-x="952" 
d="M697 424q90 -75 90 -189q0 -134 -107 -217.5t-273 -83.5q-140 0 -255 56v196q132 -79 253 -79q85 0 131.5 35.5t46.5 90.5q0 47 -35.5 80t-181.5 103q-235 120 -235 313q0 161 145 241q-106 84 -106 226q0 129 99.5 212t261.5 83q138 0 233 -43v-191q-100 62 -221 62
q-166 0 -166 -128q0 -48 41 -88t206 -109q225 -107 225 -294q0 -170 -152 -276zM423 884q-95 -45 -95 -141q0 -64 53 -112t185 -104q83 60 83 152q0 64 -49.5 109t-176.5 96z" />
    <glyph glyph-name="dieresis" unicode="&#xa8;" horiz-adv-x="892" 
d="M649 1203q-50 0 -86.5 33t-36.5 84q0 49 35 82t85 33q53 0 89.5 -33.5t36.5 -81.5q0 -49 -35 -83t-88 -34zM233 1203q-52 0 -89 34.5t-37 82.5q0 49 35.5 82t86.5 33t88.5 -33.5t37.5 -81.5q0 -49 -36 -83t-86 -34z" />
    <glyph glyph-name="copyright" unicode="&#xa9;" horiz-adv-x="1808" 
d="M905 -29q-314 0 -535.5 218.5t-221.5 527.5t221.5 527.5t535.5 218.5q313 0 534.5 -218.5t221.5 -527.5t-221.5 -527.5t-534.5 -218.5zM905 1364q-269 0 -459 -189.5t-190 -457.5t190 -457.5t459 -189.5t458.5 189.5t189.5 457.5t-189.5 457.5t-458.5 189.5zM1206 275
q-113 -65 -268 -65q-207 0 -347.5 138t-140.5 345q0 241 143.5 384.5t373.5 143.5q132 0 235 -51v-190q-88 72 -234 72q-144 0 -237.5 -93t-93.5 -249q0 -152 95.5 -244t242.5 -92q135 0 231 78v-177z" />
    <glyph glyph-name="ordfeminine" unicode="&#xaa;" horiz-adv-x="820" 
d="M711 717h-167v100h-4q-77 -120 -225 -120q-107 0 -172.5 60.5t-65.5 154.5q0 204 243 237l224 31q0 143 -145 143q-134 0 -251 -82v150q115 64 276 64q135 0 211 -71.5t76 -201.5v-465zM544 1066l-155 -22q-144 -20 -144 -116q0 -46 34 -74.5t91 -28.5q69 0 121.5 53.5
t52.5 128.5v59z" />
    <glyph glyph-name="guillemotleft" unicode="&#xab;" horiz-adv-x="1105" 
d="M1032 200h-214l-311 336l311 344h214l-318 -344zM599 200h-212l-313 336l313 344h211l-317 -344z" />
    <glyph glyph-name="logicalnot" unicode="&#xac;" horiz-adv-x="1422" 
d="M1190 259h-164v412h-791v164h955v-576z" />
    <glyph glyph-name="uni00AD" unicode="&#xad;" horiz-adv-x="823" 
d="M144 474zM690 474h-546v171h546v-171z" />
    <glyph glyph-name="registered" unicode="&#xae;" horiz-adv-x="1808" 
d="M905 -29q-314 0 -535.5 218.5t-221.5 527.5t221.5 527.5t535.5 218.5q313 0 534.5 -218.5t221.5 -527.5t-221.5 -527.5t-534.5 -218.5zM905 1364q-269 0 -459 -189.5t-190 -457.5t190 -457.5t459 -189.5t458.5 189.5t189.5 457.5t-189.5 457.5t-458.5 189.5zM1293 255
h-210l-92 217q-70 163 -151 163h-78v-380h-168v940h282q176 0 271.5 -69t95.5 -187q0 -97 -58.5 -165t-172.5 -91v-4q79 -17 157 -174zM762 1053v-283h126q173 0 173 142q0 77 -46.5 109t-147.5 32h-105z" />
    <glyph glyph-name="uni00AF" unicode="&#xaf;" horiz-adv-x="850" 
d="M850 1396h-850v120h850v-120z" />
    <glyph glyph-name="degree" unicode="&#xb0;" horiz-adv-x="775" 
d="M392 896q-117 0 -199 82t-82 200q0 116 81 196t197 80q118 0 200.5 -80.5t82.5 -195.5q0 -118 -82 -200t-198 -82zM392 1321q-60 0 -102.5 -42t-42.5 -102q0 -61 41.5 -104.5t101.5 -43.5q59 0 102.5 44t43.5 104q0 61 -42.5 102.5t-101.5 41.5z" />
    <glyph glyph-name="plusminus" unicode="&#xb1;" horiz-adv-x="1422" 
d="M1190 671h-395v-396h-163v396h-396v164h396v398h163v-398h395v-164zM1189 0h-954v164h954v-164z" />
    <glyph glyph-name="uni00B2" unicode="&#xb2;" horiz-adv-x="785" 
d="M109 884zM686 884h-577v133l230 220q99 95 126 146t27 102t-33.5 83t-88.5 32q-117 0 -214 -102v179q87 77 242 77q126 0 199.5 -68.5t73.5 -180.5q0 -143 -193 -325l-155 -145v-4h363v-147z" />
    <glyph glyph-name="uni00B3" unicode="&#xb3;" horiz-adv-x="785" 
d="M130 863zM130 916v160q104 -73 219 -73q75 0 118.5 33t43.5 89q0 124 -215 124h-82v140h78q192 0 192 117q0 106 -132 106q-97 0 -192 -67v155q92 54 225 54q122 0 194 -60.5t72 -157.5q0 -147 -144 -200v-4q174 -42 174 -200q0 -119 -90 -194t-241 -75q-140 0 -220 53z
" />
    <glyph glyph-name="acute" unicode="&#xb4;" horiz-adv-x="597" 
d="M568 1546l-286 -328h-172l242 328h216z" />
    <glyph glyph-name="uni00B5" unicode="&#xb5;" horiz-adv-x="1215" 
d="M1098 0h-239q-23 69 -23 161h-5q-73 -184 -244 -184q-141 0 -201 96h-3v-468h-232v1419h232v-610q0 -112 59 -178.5t154 -66.5q103 0 167.5 78t64.5 210v567h235v-759q0 -188 35 -265z" />
    <glyph glyph-name="paragraph" unicode="&#xb6;" horiz-adv-x="985" 
d="M884 1304h-123v-1304h-136v1304h-140v-1304h-139v874q-113 0 -187.5 80t-74.5 202q0 123 79.5 200.5t193.5 77.5h527v-130z" />
    <glyph glyph-name="periodcentered" unicode="&#xb7;" horiz-adv-x="494" 
d="M245 499q-59 0 -100.5 40t-41.5 96q0 57 42.5 96.5t102.5 39.5t102.5 -39.5t42.5 -96.5q0 -56 -43 -96t-105 -40z" />
    <glyph glyph-name="cedilla" unicode="&#xb8;" horiz-adv-x="429" 
d="M420 -248q0 -194 -288 -194q-47 0 -81 3v111q44 -6 71 -6q133 0 133 82q0 74 -121 74q-10 0 -39 -4v182h136v-94q87 0 138 -40.5t51 -113.5z" />
    <glyph glyph-name="uni00B9" unicode="&#xb9;" horiz-adv-x="759" 
d="M134 884zM676 884h-531v139h181v541l-192 -48v149l361 90v-732h181v-139z" />
    <glyph glyph-name="ordmasculine" unicode="&#xba;" horiz-adv-x="905" 
d="M446 696q-174 0 -273 101.5t-99 275.5q0 179 106 280t281 101q170 0 268.5 -99t98.5 -270q0 -178 -103.5 -283.5t-278.5 -105.5zM453 1315q-92 0 -146 -64.5t-54 -177.5q0 -111 51.5 -174t147.5 -63q91 0 144.5 65t53.5 176t-52.5 174.5t-144.5 63.5z" />
    <glyph glyph-name="guillemotright" unicode="&#xbb;" horiz-adv-x="1105" 
d="M1033 538l-313 -338h-211l315 338l-315 342h211zM600 538l-312 -338h-214l320 338l-320 342h214z" />
    <glyph glyph-name="onequarter" unicode="&#xbc;" horiz-adv-x="1898" 
d="M115 0zM657 584h-531v139h181v541l-192 -48v149l361 90v-732h181v-139zM1447 1434l-875 -1434h-189l873 1434h191zM1769 192h-110v-191h-169v191h-394v114l361 545h202v-529h110v-130zM1494 704h-5q-12 -31 -39 -74l-195 -308h235v300q0 30 4 82z" />
    <glyph glyph-name="onehalf" unicode="&#xbd;" horiz-adv-x="1938" 
d="M115 0zM657 584h-531v139h181v541l-192 -48v149l361 90v-732h181v-139zM1790 1h-577v133l230 220q99 95 126 146t27 102t-33.5 83t-88.5 32q-117 0 -214 -102v179q87 77 242 77q126 0 199.5 -68.5t73.5 -180.5q0 -143 -193 -325l-155 -145v-4h363v-147zM1445 1434
l-875 -1434h-189l873 1434h191z" />
    <glyph glyph-name="threequarters" unicode="&#xbe;" horiz-adv-x="1975" 
d="M130 0zM130 616v160q104 -73 219 -73q75 0 118.5 33t43.5 89q0 124 -215 124h-82v140h78q192 0 192 117q0 106 -132 106q-97 0 -192 -67v155q92 54 225 54q122 0 194 -60.5t72 -157.5q0 -147 -144 -200v-4q174 -42 174 -200q0 -119 -90 -194t-241 -75q-140 0 -220 53z
M1511 1434l-875 -1434h-189l873 1434h191zM1825 192h-110v-191h-169v191h-394v114l361 545h202v-529h110v-130zM1550 704h-5q-12 -31 -39 -74l-195 -308h235v300q0 30 4 82z" />
    <glyph glyph-name="questiondown" unicode="&#xbf;" horiz-adv-x="909" 
d="M634 621q9 -25 16 -64t7 -78q0 -60 -24 -109t-60 -91.5t-78 -81.5t-78 -79t-60 -84t-24 -97q0 -42 16 -74.5t43 -54.5t63 -33t76 -11q176 0 306 132v-232q-161 -94 -334 -94q-83 0 -155.5 21.5t-127 63.5t-86.5 105t-32 146q0 73 26 130.5t65.5 106t85.5 90t85.5 82.5
t65.5 85.5t26 98.5q0 38 -9.5 69t-18.5 53h206zM519 1047q57 0 102 -39q43 -38 43 -96q0 -56 -43 -95q-43 -40 -102 -40q-58 0 -100 40q-43 39 -43 95q0 58 43 96q43 39 100 39z" />
    <glyph glyph-name="Agrave" unicode="&#xc0;" horiz-adv-x="1375" 
d="M17 0zM1355 0h-261l-129 365h-564l-124 -365h-260l537 1434h268zM902 559l-199 572q-9 28 -19 90h-4q-9 -57 -20 -90l-197 -572h439zM828 1566h-173l-262 328h214z" />
    <glyph glyph-name="Aacute" unicode="&#xc1;" horiz-adv-x="1375" 
d="M17 0zM1355 0h-261l-129 365h-564l-124 -365h-260l537 1434h268zM902 559l-199 572q-9 28 -19 90h-4q-9 -57 -20 -90l-197 -572h439zM954 1908l-286 -328h-172l242 328h216z" />
    <glyph glyph-name="Acircumflex" unicode="&#xc2;" horiz-adv-x="1375" 
d="M17 0zM1355 0h-261l-129 365h-564l-124 -365h-260l537 1434h268zM902 559l-199 572q-9 28 -19 90h-4q-9 -57 -20 -90l-197 -572h439zM994 1566h-160l-161 211l-157 -211h-155l224 328h184z" />
    <glyph glyph-name="Atilde" unicode="&#xc3;" horiz-adv-x="1375" 
d="M17 0zM1355 0h-261l-129 365h-564l-124 -365h-260l537 1434h268zM902 559l-199 572q-9 28 -19 90h-4q-9 -57 -20 -90l-197 -572h439zM1021 1836q0 -116 -51.5 -189.5t-139.5 -73.5q-72 0 -165 48q-78 45 -121 45q-84 0 -84 -111h-115q0 119 51 190.5t143 71.5
q68 0 157 -51q72 -44 125 -44q81 0 81 114h119z" />
    <glyph glyph-name="Adieresis" unicode="&#xc4;" horiz-adv-x="1375" 
d="M17 0zM1355 0h-261l-129 365h-564l-124 -365h-260l537 1434h268zM902 559l-199 572q-9 28 -19 90h-4q-9 -57 -20 -90l-197 -572h439zM886 1565q-50 0 -86.5 33t-36.5 84q0 49 35 82t85 33q53 0 89.5 -33.5t36.5 -81.5q0 -49 -35 -83t-88 -34zM470 1565q-52 0 -89 34.5
t-37 82.5q0 49 35.5 82t86.5 33t88.5 -33.5t37.5 -81.5q0 -49 -36 -83t-86 -34z" />
    <glyph glyph-name="Aring" unicode="&#xc5;" horiz-adv-x="1375" 
d="M17 0zM1355 0h-261l-129 365h-564l-124 -365h-260l537 1434h268zM902 559l-199 572q-9 28 -19 90h-4q-9 -57 -20 -90l-197 -572h439zM679 1333q-94 0 -155.5 54t-61.5 142q0 98 63 156t161 58q96 0 157.5 -58.5t61.5 -149.5q0 -87 -65.5 -144.5t-160.5 -57.5zM679 1643
q-45 0 -74.5 -30t-29.5 -74q0 -104 104 -104q48 0 79.5 29.5t31.5 74.5t-31.5 74.5t-79.5 29.5z" />
    <glyph glyph-name="AE" unicode="&#xc6;" horiz-adv-x="1831" 
d="M1749 0h-804v365h-492l-172 -365h-275l710 1434h1000v-202h-534v-406h497v-201h-497v-424h567v-201zM945 559v673h-87l-317 -673h404z" />
    <glyph glyph-name="Ccedilla" unicode="&#xc7;" horiz-adv-x="1272" 
d="M86 0zM1177 60q-162 -84 -403 -84q-312 0 -500 197t-188 517q0 344 211.5 556t534.5 212q208 0 345 -59v-236q-145 86 -320 86q-233 0 -377.5 -149t-144.5 -398q0 -237 135 -377.5t355 -140.5q203 0 352 96v-220zM984 -248q0 -194 -288 -194q-47 0 -81 3v111q44 -6 71 -6
q133 0 133 82q0 74 -121 74q-10 0 -39 -4v182h136v-94q87 0 138 -40.5t51 -113.5z" />
    <glyph glyph-name="Egrave" unicode="&#xc8;" horiz-adv-x="1060" 
d="M177 0zM982 0h-805v1434h773v-202h-535v-406h493v-201h-493v-424h567v-201zM731 1566h-173l-262 328h214z" />
    <glyph glyph-name="Eacute" unicode="&#xc9;" horiz-adv-x="1060" 
d="M177 0zM982 0h-805v1434h773v-202h-535v-406h493v-201h-493v-424h567v-201zM873 1908l-286 -328h-172l242 328h216z" />
    <glyph glyph-name="Ecircumflex" unicode="&#xca;" horiz-adv-x="1060" 
d="M177 0zM982 0h-805v1434h773v-202h-535v-406h493v-201h-493v-424h567v-201zM873 1567h-160l-161 211l-157 -211h-155l224 328h184z" />
    <glyph glyph-name="Edieresis" unicode="&#xcb;" horiz-adv-x="1060" 
d="M177 0zM982 0h-805v1434h773v-202h-535v-406h493v-201h-493v-424h567v-201zM776 1565q-50 0 -86.5 33t-36.5 84q0 49 35 82t85 33q53 0 89.5 -33.5t36.5 -81.5q0 -49 -35 -83t-88 -34zM360 1565q-52 0 -89 34.5t-37 82.5q0 49 35.5 82t86.5 33t88.5 -33.5t37.5 -81.5
q0 -49 -36 -83t-86 -34z" />
    <glyph glyph-name="Igrave" unicode="&#xcc;" horiz-adv-x="592" 
d="M34 0zM546 1434v-192h-131v-1050h131v-192h-500v192h131v1050h-131v192h500zM469 1566h-173l-262 328h214z" />
    <glyph glyph-name="Iacute" unicode="&#xcd;" horiz-adv-x="592" 
d="M46 0zM546 1434v-192h-131v-1050h131v-192h-500v192h131v1050h-131v192h500zM584 1908l-286 -328h-172l242 328h216z" />
    <glyph glyph-name="Icircumflex" unicode="&#xce;" horiz-adv-x="592" 
d="M0 0zM546 1434v-192h-131v-1050h131v-192h-500v192h131v1050h-131v192h500zM620 1567h-160l-161 211l-157 -211h-155l224 328h184z" />
    <glyph glyph-name="Idieresis" unicode="&#xcf;" horiz-adv-x="592" 
d="M0 0zM546 1434v-192h-131v-1050h131v-192h-500v192h131v1050h-131v192h500zM511 1565q-50 0 -86.5 33t-36.5 84q0 49 35 82t85 33q53 0 89.5 -33.5t36.5 -81.5q0 -49 -35 -83t-88 -34zM95 1565q-52 0 -89 34.5t-37 82.5q0 49 35.5 82t86.5 33t88.5 -33.5t37.5 -81.5
q0 -49 -36 -83t-86 -34z" />
    <glyph glyph-name="Eth" unicode="&#xd0;" horiz-adv-x="1469" 
d="M177 0v616h-162v205h162v613h414q793 0 793 -699q0 -334 -220 -534.5t-590 -200.5h-397zM414 1232v-411h307v-205h-307v-415h190q251 0 390.5 138t139.5 392q0 501 -521 501h-199z" />
    <glyph glyph-name="Ntilde" unicode="&#xd1;" horiz-adv-x="1571" 
d="M177 0zM1393 0h-260l-685 1054q-26 40 -43 83h-6q8 -46 8 -197v-940h-230v1434h277l662 -1029q42 -64 54 -88h4q-10 57 -10 193v924h229v-1434zM1154 1836q0 -116 -51.5 -189.5t-139.5 -73.5q-72 0 -165 48q-78 45 -121 45q-84 0 -84 -111h-115q0 119 51 190.5t143 71.5
q68 0 157 -51q72 -44 125 -44q81 0 81 114h119z" />
    <glyph glyph-name="Ograve" unicode="&#xd2;" 
d="M85 0zM768 -24q-310 0 -496.5 201t-186.5 523q0 346 190 552t516 206q302 0 486.5 -200t184.5 -523q0 -351 -189 -555t-505 -204zM779 1249q-197 0 -320.5 -147t-123.5 -387q0 -239 120 -385t314 -146q206 0 325 139t119 389q0 257 -115.5 397t-318.5 140zM920 1566h-173
l-262 328h214z" />
    <glyph glyph-name="Oacute" unicode="&#xd3;" 
d="M85 0zM768 -24q-310 0 -496.5 201t-186.5 523q0 346 190 552t516 206q302 0 486.5 -200t184.5 -523q0 -351 -189 -555t-505 -204zM779 1249q-197 0 -320.5 -147t-123.5 -387q0 -239 120 -385t314 -146q206 0 325 139t119 389q0 257 -115.5 397t-318.5 140zM1076 1908
l-286 -328h-172l242 328h216z" />
    <glyph glyph-name="Ocircumflex" unicode="&#xd4;" 
d="M85 0zM768 -24q-310 0 -496.5 201t-186.5 523q0 346 190 552t516 206q302 0 486.5 -200t184.5 -523q0 -351 -189 -555t-505 -204zM779 1249q-197 0 -320.5 -147t-123.5 -387q0 -239 120 -385t314 -146q206 0 325 139t119 389q0 257 -115.5 397t-318.5 140zM1101 1566
h-160l-161 211l-157 -211h-155l224 328h184z" />
    <glyph glyph-name="Otilde" unicode="&#xd5;" 
d="M85 0zM768 -24q-310 0 -496.5 201t-186.5 523q0 346 190 552t516 206q302 0 486.5 -200t184.5 -523q0 -351 -189 -555t-505 -204zM779 1249q-197 0 -320.5 -147t-123.5 -387q0 -239 120 -385t314 -146q206 0 325 139t119 389q0 257 -115.5 397t-318.5 140zM1122 1835
q0 -116 -51.5 -189.5t-139.5 -73.5q-72 0 -165 48q-78 45 -121 45q-84 0 -84 -111h-115q0 119 51 190.5t143 71.5q68 0 157 -51q72 -44 125 -44q81 0 81 114h119z" />
    <glyph glyph-name="Odieresis" unicode="&#xd6;" 
d="M85 0zM768 -24q-310 0 -496.5 201t-186.5 523q0 346 190 552t516 206q302 0 486.5 -200t184.5 -523q0 -351 -189 -555t-505 -204zM779 1249q-197 0 -320.5 -147t-123.5 -387q0 -239 120 -385t314 -146q206 0 325 139t119 389q0 257 -115.5 397t-318.5 140zM983 1564
q-50 0 -86.5 33t-36.5 84q0 49 35 82t85 33q53 0 89.5 -33.5t36.5 -81.5q0 -49 -35 -83t-88 -34zM567 1564q-52 0 -89 34.5t-37 82.5q0 49 35.5 82t86.5 33t88.5 -33.5t37.5 -81.5q0 -49 -36 -83t-86 -34z" />
    <glyph glyph-name="multiply" unicode="&#xd7;" horiz-adv-x="1422" 
d="M1168 253l-116 -116l-340 340l-339 -340l-117 117l340 337l-340 340l115 117l341 -340l341 340l114 -119l-339 -338z" />
    <glyph glyph-name="Oslash" unicode="&#xd8;" 
d="M335 121l-148 -177l-99 83l154 184q-157 193 -157 489q0 343 189.5 550.5t517.5 207.5q233 0 401 -125l132 157l99 -81l-137 -162q176 -194 176 -512q0 -351 -189 -555t-506 -204q-261 0 -433 145zM1057 1171q-111 90 -276 90q-204 0 -330.5 -151.5t-126.5 -394.5
q0 -192 75 -321zM1136 1069l-659 -780q114 -117 291 -117q212 0 334 142.5t122 397.5q0 222 -88 357z" />
    <glyph glyph-name="Ugrave" unicode="&#xd9;" horiz-adv-x="1440" 
d="M160 0zM1280 580q0 -604 -572 -604q-548 0 -548 581v877h238v-828q0 -422 328 -422q316 0 316 407v843h238v-854zM870 1566h-173l-262 328h214z" />
    <glyph glyph-name="Uacute" unicode="&#xda;" horiz-adv-x="1440" 
d="M160 0zM1280 580q0 -604 -572 -604q-548 0 -548 581v877h238v-828q0 -422 328 -422q316 0 316 407v843h238v-854zM1029 1908l-286 -328h-172l242 328h216z" />
    <glyph glyph-name="Ucircumflex" unicode="&#xdb;" horiz-adv-x="1440" 
d="M160 0zM1280 580q0 -604 -572 -604q-548 0 -548 581v877h238v-828q0 -422 328 -422q316 0 316 407v843h238v-854zM1037 1567h-160l-161 211l-157 -211h-155l224 328h184z" />
    <glyph glyph-name="Udieresis" unicode="&#xdc;" horiz-adv-x="1440" 
d="M160 0zM1280 580q0 -604 -572 -604q-548 0 -548 581v877h238v-828q0 -422 328 -422q316 0 316 407v843h238v-854zM927 1566q-50 0 -86.5 33t-36.5 84q0 49 35 82t85 33q53 0 89.5 -33.5t36.5 -81.5q0 -49 -35 -83t-88 -34zM511 1566q-52 0 -89 34.5t-37 82.5
q0 49 35.5 82t86.5 33t88.5 -33.5t37.5 -81.5q0 -49 -36 -83t-86 -34z" />
    <glyph glyph-name="Yacute" unicode="&#xdd;" horiz-adv-x="1182" 
d="M10 0zM1176 1434l-470 -913v-521h-238v516l-458 918h271l282 -615q5 -11 30 -83h3q9 32 33 83l295 615h252zM908 1894l-286 -328h-172l242 328h216z" />
    <glyph glyph-name="Thorn" unicode="&#xde;" horiz-adv-x="1197" 
d="M415 301v-301h-238v1434h238v-219h207q245 0 377 -115t132 -326q0 -209 -143 -341t-385 -132h-188zM415 1020v-524h154q151 0 231.5 69t80.5 198q0 257 -294 257h-172z" />
    <glyph glyph-name="germandbls" unicode="&#xdf;" horiz-adv-x="1191" 
d="M498 2v206q70 -48 158 -48q102 0 166 64.5t64 172.5q0 131 -95.5 213t-263.5 99v171q109 18 180 92.5t71 176.5q0 97 -50 150.5t-136 53.5q-209 0 -209 -280v-1073h-232v1084q0 206 123.5 330t332.5 124q186 0 297.5 -96t111.5 -253q0 -129 -73 -231t-190 -141v-5
q371 -74 371 -422q0 -176 -119.5 -295t-316.5 -119q-107 0 -190 26z" />
    <glyph glyph-name="agrave" unicode="&#xe0;" horiz-adv-x="1069" 
d="M75 0zM937 0h-225v160h-4q-106 -184 -311 -184q-151 0 -236.5 82t-85.5 217q0 290 334 338l304 43q0 219 -208 219q-183 0 -330 -126v203q162 96 374 96q388 0 388 -382v-666zM713 503l-215 -30q-100 -13 -150.5 -48.5t-50.5 -124.5q0 -65 46.5 -106.5t124.5 -41.5
q106 0 175.5 74.5t69.5 187.5v89zM719 1204h-173l-262 328h214z" />
    <glyph glyph-name="aacute" unicode="&#xe1;" horiz-adv-x="1069" 
d="M75 0zM937 0h-225v160h-4q-106 -184 -311 -184q-151 0 -236.5 82t-85.5 217q0 290 334 338l304 43q0 219 -208 219q-183 0 -330 -126v203q162 96 374 96q388 0 388 -382v-666zM713 503l-215 -30q-100 -13 -150.5 -48.5t-50.5 -124.5q0 -65 46.5 -106.5t124.5 -41.5
q106 0 175.5 74.5t69.5 187.5v89zM828 1546l-286 -328h-172l242 328h216z" />
    <glyph glyph-name="acircumflex" unicode="&#xe2;" horiz-adv-x="1069" 
d="M75 0zM937 0h-225v160h-4q-106 -184 -311 -184q-151 0 -236.5 82t-85.5 217q0 290 334 338l304 43q0 219 -208 219q-183 0 -330 -126v203q162 96 374 96q388 0 388 -382v-666zM713 503l-215 -30q-100 -13 -150.5 -48.5t-50.5 -124.5q0 -65 46.5 -106.5t124.5 -41.5
q106 0 175.5 74.5t69.5 187.5v89zM854 1204h-160l-161 211l-157 -211h-155l224 328h184z" />
    <glyph glyph-name="atilde" unicode="&#xe3;" horiz-adv-x="1069" 
d="M75 0zM937 0h-225v160h-4q-106 -184 -311 -184q-151 0 -236.5 82t-85.5 217q0 290 334 338l304 43q0 219 -208 219q-183 0 -330 -126v203q162 96 374 96q388 0 388 -382v-666zM713 503l-215 -30q-100 -13 -150.5 -48.5t-50.5 -124.5q0 -65 46.5 -106.5t124.5 -41.5
q106 0 175.5 74.5t69.5 187.5v89zM872 1475q0 -116 -51.5 -189.5t-139.5 -73.5q-72 0 -165 48q-78 45 -121 45q-84 0 -84 -111h-115q0 119 51 190.5t143 71.5q68 0 157 -51q72 -44 125 -44q81 0 81 114h119z" />
    <glyph glyph-name="adieresis" unicode="&#xe4;" horiz-adv-x="1069" 
d="M75 0zM937 0h-225v160h-4q-106 -184 -311 -184q-151 0 -236.5 82t-85.5 217q0 290 334 338l304 43q0 219 -208 219q-183 0 -330 -126v203q162 96 374 96q388 0 388 -382v-666zM713 503l-215 -30q-100 -13 -150.5 -48.5t-50.5 -124.5q0 -65 46.5 -106.5t124.5 -41.5
q106 0 175.5 74.5t69.5 187.5v89zM742 1203q-50 0 -86.5 33t-36.5 84q0 49 35 82t85 33q53 0 89.5 -33.5t36.5 -81.5q0 -49 -35 -83t-88 -34zM326 1203q-52 0 -89 34.5t-37 82.5q0 49 35.5 82t86.5 33t88.5 -33.5t37.5 -81.5q0 -49 -36 -83t-86 -34z" />
    <glyph glyph-name="aring" unicode="&#xe5;" horiz-adv-x="1069" 
d="M75 0zM937 0h-225v160h-4q-106 -184 -311 -184q-151 0 -236.5 82t-85.5 217q0 290 334 338l304 43q0 219 -208 219q-183 0 -330 -126v203q162 96 374 96q388 0 388 -382v-666zM713 503l-215 -30q-100 -13 -150.5 -48.5t-50.5 -124.5q0 -65 46.5 -106.5t124.5 -41.5
q106 0 175.5 74.5t69.5 187.5v89zM541 1180q-94 0 -155.5 54t-61.5 142q0 98 63 156t161 58q96 0 157.5 -58.5t61.5 -149.5q0 -87 -65.5 -144.5t-160.5 -57.5zM541 1490q-45 0 -74.5 -30t-29.5 -74q0 -104 104 -104q48 0 79.5 29.5t31.5 74.5t-31.5 74.5t-79.5 29.5z" />
    <glyph glyph-name="ae" unicode="&#xe6;" horiz-adv-x="1700" 
d="M1630 449h-699q3 -142 85 -219.5t225 -77.5q171 0 310 99v-186q-135 -89 -367 -89q-275 0 -390 206h-4q-140 -206 -372 -206q-160 0 -251.5 82.5t-91.5 220.5q0 306 379 331l259 16q0 250 -201 250q-178 0 -336 -115v196q152 91 357 91q240 0 311 -170h4q114 170 349 170
q206 0 319.5 -135.5t113.5 -376.5v-87zM1406 613q-2 127 -59 195.5t-160 68.5q-98 0 -168.5 -72t-86.5 -192h474zM713 412v55l-177 -11q-121 -7 -180.5 -43t-59.5 -119q0 -64 46.5 -103t125.5 -39q103 0 174 74t71 186z" />
    <glyph glyph-name="ccedilla" unicode="&#xe7;" horiz-adv-x="963" 
d="M85 0zM884 47q-123 -71 -291 -71q-228 0 -368 142.5t-140 369.5q0 253 150.5 406.5t402.5 153.5q140 0 247 -49v-216q-107 80 -228 80q-147 0 -241 -99.5t-94 -260.5q0 -159 88.5 -251t237.5 -92q125 0 236 89v-202zM801 -248q0 -194 -288 -194q-47 0 -81 3v111
q44 -6 71 -6q133 0 133 82q0 74 -121 74q-10 0 -39 -4v182h136v-94q87 0 138 -40.5t51 -113.5z" />
    <glyph glyph-name="egrave" unicode="&#xe8;" horiz-adv-x="1088" 
d="M85 0zM1018 449h-698q4 -142 87.5 -219t229.5 -77q164 0 301 98v-187q-140 -88 -370 -88q-226 0 -354.5 139.5t-128.5 392.5q0 239 141.5 389.5t351.5 150.5t325 -135t115 -375v-89zM794 613q-1 125 -59 194.5t-160 69.5q-100 0 -169.5 -73t-85.5 -191h474zM756 1204
h-173l-262 328h214z" />
    <glyph glyph-name="eacute" unicode="&#xe9;" horiz-adv-x="1088" 
d="M85 0zM1018 449h-698q4 -142 87.5 -219t229.5 -77q164 0 301 98v-187q-140 -88 -370 -88q-226 0 -354.5 139.5t-128.5 392.5q0 239 141.5 389.5t351.5 150.5t325 -135t115 -375v-89zM794 613q-1 125 -59 194.5t-160 69.5q-100 0 -169.5 -73t-85.5 -191h474zM863 1546
l-286 -328h-172l242 328h216z" />
    <glyph glyph-name="ecircumflex" unicode="&#xea;" horiz-adv-x="1088" 
d="M85 0zM1018 449h-698q4 -142 87.5 -219t229.5 -77q164 0 301 98v-187q-140 -88 -370 -88q-226 0 -354.5 139.5t-128.5 392.5q0 239 141.5 389.5t351.5 150.5t325 -135t115 -375v-89zM794 613q-1 125 -59 194.5t-160 69.5q-100 0 -169.5 -73t-85.5 -191h474zM888 1204
h-160l-161 211l-157 -211h-155l224 328h184z" />
    <glyph glyph-name="edieresis" unicode="&#xeb;" horiz-adv-x="1088" 
d="M85 0zM1018 449h-698q4 -142 87.5 -219t229.5 -77q164 0 301 98v-187q-140 -88 -370 -88q-226 0 -354.5 139.5t-128.5 392.5q0 239 141.5 389.5t351.5 150.5t325 -135t115 -375v-89zM794 613q-1 125 -59 194.5t-160 69.5q-100 0 -169.5 -73t-85.5 -191h474zM773 1203
q-50 0 -86.5 33t-36.5 84q0 49 35 82t85 33q53 0 89.5 -33.5t36.5 -81.5q0 -49 -35 -83t-88 -34zM357 1203q-52 0 -89 34.5t-37 82.5q0 49 35.5 82t86.5 33t88.5 -33.5t37.5 -81.5q0 -49 -36 -83t-86 -34z" />
    <glyph glyph-name="igrave" unicode="&#xec;" horiz-adv-x="535" 
d="M0 0zM384 0h-233v1024h233v-1024zM435 1204h-173l-262 328h214z" />
    <glyph glyph-name="iacute" unicode="&#xed;" horiz-adv-x="535" 
d="M93 0zM384 0h-233v1024h233v-1024zM551 1546l-286 -328h-172l242 328h216z" />
    <glyph glyph-name="icircumflex" unicode="&#xee;" horiz-adv-x="535" 
d="M0 0zM384 0h-233v1024h233v-1024zM582 1204h-160l-161 211l-157 -211h-155l224 328h184z" />
    <glyph glyph-name="idieresis" unicode="&#xef;" horiz-adv-x="535" 
d="M0 0zM384 0h-233v1024h233v-1024zM474 1203q-50 0 -86.5 33t-36.5 84q0 49 35 82t85 33q53 0 89.5 -33.5t36.5 -81.5q0 -49 -35 -83t-88 -34zM58 1203q-52 0 -89 34.5t-37 82.5q0 49 35.5 82t86.5 33t88.5 -33.5t37.5 -81.5q0 -49 -36 -83t-86 -34z" />
    <glyph glyph-name="eth" unicode="&#xf0;" horiz-adv-x="1176" 
d="M772 966l4 3q-90 154 -197 253l-295 -148l-65 118l257 123q-119 105 -266 201h280q67 -45 153 -119l282 139l65 -113l-242 -119q342 -307 342 -762q0 -247 -136 -405.5t-370 -158.5q-235 0 -367 141.5t-132 386.5q0 239 129.5 388t349.5 149q122 0 208 -77zM595 863
q-127 0 -200 -95t-73 -259q0 -161 71 -255t198 -94q121 0 191.5 96.5t70.5 257.5q0 349 -258 349z" />
    <glyph glyph-name="ntilde" unicode="&#xf1;" horiz-adv-x="1195" 
d="M151 0zM1063 0h-232v577q0 287 -203 287q-106 0 -175 -79.5t-69 -200.5v-584h-233v1024h233v-170h4q115 194 332 194q167 0 255 -108.5t88 -313.5v-626zM941 1475q0 -116 -51.5 -189.5t-139.5 -73.5q-72 0 -165 48q-78 45 -121 45q-84 0 -84 -111h-115q0 119 51 190.5
t143 71.5q68 0 157 -51q72 -44 125 -44q81 0 81 114h119z" />
    <glyph glyph-name="ograve" unicode="&#xf2;" horiz-adv-x="1223" 
d="M85 0zM605 -24q-237 0 -378.5 143.5t-141.5 380.5q0 258 147.5 403t397.5 145q240 0 374 -141t134 -391q0 -245 -144.5 -392.5t-388.5 -147.5zM616 863q-136 0 -215 -95t-79 -262q0 -161 80 -253.5t214 -92.5q137 0 210.5 91t73.5 259q0 169 -73.5 261t-210.5 92z
M794 1204h-173l-262 328h214z" />
    <glyph glyph-name="oacute" unicode="&#xf3;" horiz-adv-x="1223" 
d="M85 0zM605 -24q-237 0 -378.5 143.5t-141.5 380.5q0 258 147.5 403t397.5 145q240 0 374 -141t134 -391q0 -245 -144.5 -392.5t-388.5 -147.5zM616 863q-136 0 -215 -95t-79 -262q0 -161 80 -253.5t214 -92.5q137 0 210.5 91t73.5 259q0 169 -73.5 261t-210.5 92z
M912 1546l-286 -328h-172l242 328h216z" />
    <glyph glyph-name="ocircumflex" unicode="&#xf4;" horiz-adv-x="1223" 
d="M85 0zM605 -24q-237 0 -378.5 143.5t-141.5 380.5q0 258 147.5 403t397.5 145q240 0 374 -141t134 -391q0 -245 -144.5 -392.5t-388.5 -147.5zM616 863q-136 0 -215 -95t-79 -262q0 -161 80 -253.5t214 -92.5q137 0 210.5 91t73.5 259q0 169 -73.5 261t-210.5 92z
M931 1204h-160l-161 211l-157 -211h-155l224 328h184z" />
    <glyph glyph-name="otilde" unicode="&#xf5;" horiz-adv-x="1223" 
d="M85 0zM605 -24q-237 0 -378.5 143.5t-141.5 380.5q0 258 147.5 403t397.5 145q240 0 374 -141t134 -391q0 -245 -144.5 -392.5t-388.5 -147.5zM616 863q-136 0 -215 -95t-79 -262q0 -161 80 -253.5t214 -92.5q137 0 210.5 91t73.5 259q0 169 -73.5 261t-210.5 92z
M955 1475q0 -116 -51.5 -189.5t-139.5 -73.5q-72 0 -165 48q-78 45 -121 45q-84 0 -84 -111h-115q0 119 51 190.5t143 71.5q68 0 157 -51q72 -44 125 -44q81 0 81 114h119z" />
    <glyph glyph-name="odieresis" unicode="&#xf6;" horiz-adv-x="1223" 
d="M85 0zM605 -24q-237 0 -378.5 143.5t-141.5 380.5q0 258 147.5 403t397.5 145q240 0 374 -141t134 -391q0 -245 -144.5 -392.5t-388.5 -147.5zM616 863q-136 0 -215 -95t-79 -262q0 -161 80 -253.5t214 -92.5q137 0 210.5 91t73.5 259q0 169 -73.5 261t-210.5 92z
M822 1203q-50 0 -86.5 33t-36.5 84q0 49 35 82t85 33q53 0 89.5 -33.5t36.5 -81.5q0 -49 -35 -83t-88 -34zM406 1203q-52 0 -89 34.5t-37 82.5q0 49 35.5 82t86.5 33t88.5 -33.5t37.5 -81.5q0 -49 -36 -83t-86 -34z" />
    <glyph glyph-name="divide" unicode="&#xf7;" horiz-adv-x="1422" 
d="M723 858q-53 0 -89.5 34.5t-36.5 84.5q0 52 33.5 88.5t87.5 36.5q118 0 118 -123q0 -53 -33.5 -87t-79.5 -34zM1190 509h-956v165h956v-165zM714 82q-51 0 -86.5 34.5t-35.5 83.5q0 51 34.5 88.5t87.5 37.5q117 0 117 -124q0 -51 -33.5 -85.5t-83.5 -34.5z" />
    <glyph glyph-name="oslash" unicode="&#xf8;" horiz-adv-x="1223" 
d="M1188 1030l-155 -164q105 -137 105 -344q0 -252 -145.5 -399t-387.5 -147q-194 0 -322 95l-140 -151l-99 90l144 155q-103 137 -103 341q0 256 147 399.5t395 143.5q185 0 310 -91l151 163zM798 815q-67 59 -181 59q-141 0 -222.5 -97t-81.5 -268q0 -105 35 -178z
M877 701l-456 -488q76 -62 194 -62q145 0 221 94.5t76 266.5q0 110 -35 189z" />
    <glyph glyph-name="ugrave" unicode="&#xf9;" horiz-adv-x="1195" 
d="M131 0zM1044 0h-232v162h-4q-101 -186 -314 -186q-363 0 -363 436v612h232v-588q0 -276 213 -276q103 0 169.5 76t66.5 199v589h232v-1024zM740 1204h-173l-262 328h214z" />
    <glyph glyph-name="uacute" unicode="&#xfa;" horiz-adv-x="1195" 
d="M131 0zM1044 0h-232v162h-4q-101 -186 -314 -186q-363 0 -363 436v612h232v-588q0 -276 213 -276q103 0 169.5 76t66.5 199v589h232v-1024zM913 1546l-286 -328h-172l242 328h216z" />
    <glyph glyph-name="ucircumflex" unicode="&#xfb;" horiz-adv-x="1195" 
d="M131 0zM1044 0h-232v162h-4q-101 -186 -314 -186q-363 0 -363 436v612h232v-588q0 -276 213 -276q103 0 169.5 76t66.5 199v589h232v-1024zM905 1204h-160l-161 211l-157 -211h-155l224 328h184z" />
    <glyph glyph-name="udieresis" unicode="&#xfc;" horiz-adv-x="1195" 
d="M131 0zM1044 0h-232v162h-4q-101 -186 -314 -186q-363 0 -363 436v612h232v-588q0 -276 213 -276q103 0 169.5 76t66.5 199v589h232v-1024zM802 1203q-50 0 -86.5 33t-36.5 84q0 49 35 82t85 33q53 0 89.5 -33.5t36.5 -81.5q0 -49 -35 -83t-88 -34zM386 1203
q-52 0 -89 34.5t-37 82.5q0 49 35.5 82t86.5 33t88.5 -33.5t37.5 -81.5q0 -49 -36 -83t-86 -34z" />
    <glyph glyph-name="yacute" unicode="&#xfd;" horiz-adv-x="1041" 
d="M6 0zM1038 1024l-462 -1188q-144 -318 -404 -318q-73 0 -122 13v193q55 -18 100 -18q130 0 194 128l69 168l-407 1022h257l244 -744q4 -14 18 -74h5q5 23 18 72l256 746h234zM845 1546l-286 -328h-172l242 328h216z" />
    <glyph glyph-name="thorn" unicode="&#xfe;" horiz-adv-x="1234" 
d="M383 134v-605h-232v1987h232v-661h4q117 193 343 193q197 0 307.5 -137.5t110.5 -368.5q0 -257 -124.5 -411.5t-340.5 -154.5q-194 0 -300 158zM381 551v-116q0 -115 71 -195t181 -80q130 0 203.5 102t73.5 283q0 149 -69 233.5t-187 84.5q-123 0 -198 -89t-75 -223z" />
    <glyph glyph-name="ydieresis" unicode="&#xff;" horiz-adv-x="1041" 
d="M6 0zM1038 1024l-462 -1188q-144 -318 -404 -318q-73 0 -122 13v193q55 -18 100 -18q130 0 194 128l69 168l-407 1022h257l244 -744q4 -14 18 -74h5q5 23 18 72l256 746h234zM735 1203q-50 0 -86.5 33t-36.5 84q0 49 35 82t85 33q53 0 89.5 -33.5t36.5 -81.5
q0 -49 -35 -83t-88 -34zM319 1203q-52 0 -89 34.5t-37 82.5q0 49 35.5 82t86.5 33t88.5 -33.5t37.5 -81.5q0 -49 -36 -83t-86 -34z" />
    <glyph glyph-name="Amacron" unicode="&#x100;" horiz-adv-x="1375" 
d="M17 0zM1355 0h-261l-129 365h-564l-124 -365h-260l537 1434h268zM902 559l-199 572q-9 28 -19 90h-4q-9 -57 -20 -90l-197 -572h439zM957 1567h-543v137h543v-137z" />
    <glyph glyph-name="amacron" unicode="&#x101;" horiz-adv-x="1069" 
d="M75 0zM937 0h-225v160h-4q-106 -184 -311 -184q-151 0 -236.5 82t-85.5 217q0 290 334 338l304 43q0 219 -208 219q-183 0 -330 -126v203q162 96 374 96q388 0 388 -382v-666zM713 503l-215 -30q-100 -13 -150.5 -48.5t-50.5 -124.5q0 -65 46.5 -106.5t124.5 -41.5
q106 0 175.5 74.5t69.5 187.5v89zM828 1204h-543v137h543v-137z" />
    <glyph glyph-name="Abreve" unicode="&#x102;" horiz-adv-x="1375" 
d="M17 0zM1355 0h-261l-129 365h-564l-124 -365h-260l537 1434h268zM902 559l-199 572q-9 28 -19 90h-4q-9 -57 -20 -90l-197 -572h439zM988 1843q-11 -124 -97.5 -200t-209.5 -76q-130 0 -211.5 75.5t-87.5 200.5h136q12 -146 166 -146q65 0 111 39.5t56 106.5h137z" />
    <glyph glyph-name="abreve" unicode="&#x103;" horiz-adv-x="1069" 
d="M75 0zM937 0h-225v160h-4q-106 -184 -311 -184q-151 0 -236.5 82t-85.5 217q0 290 334 338l304 43q0 219 -208 219q-183 0 -330 -126v203q162 96 374 96q388 0 388 -382v-666zM713 503l-215 -30q-100 -13 -150.5 -48.5t-50.5 -124.5q0 -65 46.5 -106.5t124.5 -41.5
q106 0 175.5 74.5t69.5 187.5v89zM851 1480q-11 -124 -97.5 -200t-209.5 -76q-130 0 -211.5 75.5t-87.5 200.5h136q12 -146 166 -146q65 0 111 39.5t56 106.5h137z" />
    <glyph glyph-name="Aogonek" unicode="&#x104;" horiz-adv-x="1375" 
d="M17 0zM1355 0h-261l-129 365h-564l-124 -365h-260l537 1434h268zM902 559l-199 572q-9 28 -19 90h-4q-9 -57 -20 -90l-197 -572h439zM1227 0q-151 -137 -151 -216q0 -68 65 -68q36 0 68 13v-121q-38 -16 -105 -16q-78 0 -125.5 42t-47.5 116q0 122 161 250h135z" />
    <glyph glyph-name="aogonek" unicode="&#x105;" horiz-adv-x="1069" 
d="M75 0zM937 0h-225v160h-4q-106 -184 -311 -184q-151 0 -236.5 82t-85.5 217q0 290 334 338l304 43q0 219 -208 219q-183 0 -330 -126v203q162 96 374 96q388 0 388 -382v-666zM713 503l-215 -30q-100 -13 -150.5 -48.5t-50.5 -124.5q0 -65 46.5 -106.5t124.5 -41.5
q106 0 175.5 74.5t69.5 187.5v89zM845 0q-151 -137 -151 -216q0 -68 65 -68q36 0 68 13v-121q-38 -16 -105 -16q-78 0 -125.5 42t-47.5 116q0 122 161 250h135z" />
    <glyph glyph-name="Cacute" unicode="&#x106;" horiz-adv-x="1272" 
d="M86 0zM1177 60q-162 -84 -403 -84q-312 0 -500 197t-188 517q0 344 211.5 556t534.5 212q208 0 345 -59v-236q-145 86 -320 86q-233 0 -377.5 -149t-144.5 -398q0 -237 135 -377.5t355 -140.5q203 0 352 96v-220zM1079 1908l-286 -328h-172l242 328h216z" />
    <glyph glyph-name="cacute" unicode="&#x107;" horiz-adv-x="963" 
d="M85 0zM884 47q-123 -71 -291 -71q-228 0 -368 142.5t-140 369.5q0 253 150.5 406.5t402.5 153.5q140 0 247 -49v-216q-107 80 -228 80q-147 0 -241 -99.5t-94 -260.5q0 -159 88.5 -251t237.5 -92q125 0 236 89v-202zM876 1546l-286 -328h-172l242 328h216z" />
    <glyph glyph-name="Ccircumflex" unicode="&#x108;" horiz-adv-x="1272" 
d="M86 0zM1177 60q-162 -84 -403 -84q-312 0 -500 197t-188 517q0 344 211.5 556t534.5 212q208 0 345 -59v-236q-145 86 -320 86q-233 0 -377.5 -149t-144.5 -398q0 -237 135 -377.5t355 -140.5q203 0 352 96v-220zM1097 1567h-160l-161 211l-157 -211h-155l224 328h184z
" />
    <glyph glyph-name="ccircumflex" unicode="&#x109;" horiz-adv-x="963" 
d="M85 0zM884 47q-123 -71 -291 -71q-228 0 -368 142.5t-140 369.5q0 253 150.5 406.5t402.5 153.5q140 0 247 -49v-216q-107 80 -228 80q-147 0 -241 -99.5t-94 -260.5q0 -159 88.5 -251t237.5 -92q125 0 236 89v-202zM890 1204h-160l-161 211l-157 -211h-155l224 328h184z
" />
    <glyph glyph-name="Cdotaccent" unicode="&#x10a;" horiz-adv-x="1272" 
d="M86 0zM1177 60q-162 -84 -403 -84q-312 0 -500 197t-188 517q0 344 211.5 556t534.5 212q208 0 345 -59v-236q-145 86 -320 86q-233 0 -377.5 -149t-144.5 -398q0 -237 135 -377.5t355 -140.5q203 0 352 96v-220zM790 1566q-50 0 -86.5 33.5t-36.5 82.5q0 48 36 81t87 33
t87 -32.5t36 -81.5q0 -48 -36 -82t-87 -34z" />
    <glyph glyph-name="cdotaccent" unicode="&#x10b;" horiz-adv-x="963" 
d="M85 0zM884 47q-123 -71 -291 -71q-228 0 -368 142.5t-140 369.5q0 253 150.5 406.5t402.5 153.5q140 0 247 -49v-216q-107 80 -228 80q-147 0 -241 -99.5t-94 -260.5q0 -159 88.5 -251t237.5 -92q125 0 236 89v-202zM600 1203q-50 0 -86.5 33.5t-36.5 82.5q0 48 36 81
t87 33t87 -32.5t36 -81.5q0 -48 -36 -82t-87 -34z" />
    <glyph glyph-name="Ccaron" unicode="&#x10c;" horiz-adv-x="1272" 
d="M86 0zM1177 60q-162 -84 -403 -84q-312 0 -500 197t-188 517q0 344 211.5 556t534.5 212q208 0 345 -59v-236q-145 86 -320 86q-233 0 -377.5 -149t-144.5 -398q0 -237 135 -377.5t355 -140.5q203 0 352 96v-220zM1102 1893l-224 -327h-185l-224 327h155l160 -210
l161 210h157z" />
    <glyph glyph-name="ccaron" unicode="&#x10d;" horiz-adv-x="963" 
d="M85 0zM884 47q-123 -71 -291 -71q-228 0 -368 142.5t-140 369.5q0 253 150.5 406.5t402.5 153.5q140 0 247 -49v-216q-107 80 -228 80q-147 0 -241 -99.5t-94 -260.5q0 -159 88.5 -251t237.5 -92q125 0 236 89v-202zM898 1531l-224 -327h-185l-224 327h155l160 -210
l161 210h157z" />
    <glyph glyph-name="Dcaron" unicode="&#x10e;" horiz-adv-x="1469" 
d="M177 0zM177 0v1434h414q793 0 793 -699q0 -332 -220 -533.5t-590 -201.5h-397zM414 1232v-1031h190q251 0 390.5 138t139.5 390q0 503 -521 503h-199zM1013 1893l-224 -327h-185l-224 327h155l160 -210l161 210h157z" />
    <glyph glyph-name="dcaron" unicode="&#x10f;" horiz-adv-x="1442" 
d="M85 0zM1082 0h-232v174h-4q-112 -198 -345 -198q-189 0 -302.5 137.5t-113.5 374.5q0 254 125.5 407t334.5 153q207 0 301 -166h4v634h232v-1516zM853 468v134q0 109 -71 185t-181 76q-130 0 -204.5 -97t-74.5 -269q0 -156 71.5 -246.5t192.5 -90.5q119 0 193 87.5
t74 220.5zM1513 1516l-167 -302h-155l105 302h217z" />
    <glyph glyph-name="Dcroat" unicode="&#x110;" horiz-adv-x="1469" 
d="M15 0zM177 0v616h-162v205h162v613h414q793 0 793 -699q0 -334 -220 -534.5t-590 -200.5h-397zM414 1232v-411h307v-205h-307v-415h190q251 0 390.5 138t139.5 392q0 501 -521 501h-199z" />
    <glyph glyph-name="dcroat" unicode="&#x111;" horiz-adv-x="1246" 
d="M1082 0h-232v159h-4q-107 -183 -330 -183q-196 0 -313.5 137.5t-117.5 374.5q0 254 127.5 407t340.5 153q199 0 293 -155h4v295h-331v166h331v162h232v-162h139v-166h-139v-1188zM853 472v124q0 112 -72 189.5t-182 77.5q-129 0 -203 -97.5t-74 -269.5q0 -156 71.5 -246
t192.5 -90q118 0 192.5 88.5t74.5 223.5z" />
    <glyph glyph-name="Emacron" unicode="&#x112;" horiz-adv-x="1060" 
d="M177 0zM982 0h-805v1434h773v-202h-535v-406h493v-201h-493v-424h567v-201zM841 1566h-543v137h543v-137z" />
    <glyph glyph-name="emacron" unicode="&#x113;" horiz-adv-x="1088" 
d="M85 0zM1018 449h-698q4 -142 87.5 -219t229.5 -77q164 0 301 98v-187q-140 -88 -370 -88q-226 0 -354.5 139.5t-128.5 392.5q0 239 141.5 389.5t351.5 150.5t325 -135t115 -375v-89zM794 613q-1 125 -59 194.5t-160 69.5q-100 0 -169.5 -73t-85.5 -191h474zM841 1204
h-543v137h543v-137z" />
    <glyph glyph-name="Ebreve" unicode="&#x114;" horiz-adv-x="1060" 
d="M177 0zM982 0h-805v1434h773v-202h-535v-406h493v-201h-493v-424h567v-201zM872 1843q-11 -124 -97.5 -200t-209.5 -76q-130 0 -211.5 75.5t-87.5 200.5h136q12 -146 166 -146q65 0 111 39.5t56 106.5h137z" />
    <glyph glyph-name="ebreve" unicode="&#x115;" horiz-adv-x="1088" 
d="M85 0zM1018 449h-698q4 -142 87.5 -219t229.5 -77q164 0 301 98v-187q-140 -88 -370 -88q-226 0 -354.5 139.5t-128.5 392.5q0 239 141.5 389.5t351.5 150.5t325 -135t115 -375v-89zM794 613q-1 125 -59 194.5t-160 69.5q-100 0 -169.5 -73t-85.5 -191h474zM867 1480
q-11 -124 -97.5 -200t-209.5 -76q-130 0 -211.5 75.5t-87.5 200.5h136q12 -146 166 -146q65 0 111 39.5t56 106.5h137z" />
    <glyph glyph-name="Edotaccent" unicode="&#x116;" horiz-adv-x="1060" 
d="M177 0zM982 0h-805v1434h773v-202h-535v-406h493v-201h-493v-424h567v-201zM566 1566q-50 0 -86.5 33.5t-36.5 82.5q0 48 36 81t87 33t87 -32.5t36 -81.5q0 -48 -36 -82t-87 -34z" />
    <glyph glyph-name="edotaccent" unicode="&#x117;" horiz-adv-x="1088" 
d="M85 0zM1018 449h-698q4 -142 87.5 -219t229.5 -77q164 0 301 98v-187q-140 -88 -370 -88q-226 0 -354.5 139.5t-128.5 392.5q0 239 141.5 389.5t351.5 150.5t325 -135t115 -375v-89zM794 613q-1 125 -59 194.5t-160 69.5q-100 0 -169.5 -73t-85.5 -191h474zM584 1203
q-50 0 -86.5 33.5t-36.5 82.5q0 48 36 81t87 33t87 -32.5t36 -81.5q0 -48 -36 -82t-87 -34z" />
    <glyph glyph-name="Eogonek" unicode="&#x118;" horiz-adv-x="1060" 
d="M177 0zM982 0h-805v1434h773v-202h-535v-406h493v-201h-493v-424h567v-201zM892 0q-151 -137 -151 -216q0 -68 65 -68q36 0 68 13v-121q-38 -16 -105 -16q-78 0 -125.5 42t-47.5 116q0 122 161 250h135z" />
    <glyph glyph-name="eogonek" unicode="&#x119;" horiz-adv-x="1088" 
d="M85 0zM1018 449h-698q4 -142 87.5 -219t229.5 -77q164 0 301 98v-187q-140 -88 -370 -88q-226 0 -354.5 139.5t-128.5 392.5q0 239 141.5 389.5t351.5 150.5t325 -135t115 -375v-89zM794 613q-1 125 -59 194.5t-160 69.5q-100 0 -169.5 -73t-85.5 -191h474zM782 0
q-151 -137 -151 -216q0 -68 65 -68q36 0 68 13v-121q-38 -16 -105 -16q-78 0 -125.5 42t-47.5 116q0 122 161 250h135z" />
    <glyph glyph-name="Ecaron" unicode="&#x11a;" horiz-adv-x="1060" 
d="M177 0zM982 0h-805v1434h773v-202h-535v-406h493v-201h-493v-424h567v-201zM891 1893l-224 -327h-185l-224 327h155l160 -210l161 210h157z" />
    <glyph glyph-name="ecaron" unicode="&#x11b;" horiz-adv-x="1088" 
d="M85 0zM1018 449h-698q4 -142 87.5 -219t229.5 -77q164 0 301 98v-187q-140 -88 -370 -88q-226 0 -354.5 139.5t-128.5 392.5q0 239 141.5 389.5t351.5 150.5t325 -135t115 -375v-89zM794 613q-1 125 -59 194.5t-160 69.5q-100 0 -169.5 -73t-85.5 -191h474zM884 1531
l-224 -327h-185l-224 327h155l160 -210l161 210h157z" />
    <glyph glyph-name="Gcircumflex" unicode="&#x11c;" horiz-adv-x="1428" 
d="M85 0zM1296 98q-224 -122 -499 -122q-318 0 -515 198t-197 524q0 333 215.5 546.5t547.5 213.5q239 0 402 -70v-245q-165 110 -393 110q-229 0 -375.5 -151t-146.5 -391q0 -247 126 -388.5t342 -141.5q148 0 256 57v341h-302v200h539v-681zM1121 1567h-160l-161 211
l-157 -211h-155l224 328h184z" />
    <glyph glyph-name="gcircumflex" unicode="&#x11d;" horiz-adv-x="1234" 
d="M85 0zM1083 82q0 -564 -567 -564q-200 0 -349 67v212q168 -96 319 -96q365 0 365 359v112h-4q-115 -196 -346 -196q-187 0 -301.5 136.5t-114.5 366.5q0 261 123 415t338 154q203 0 301 -166h4v142h232v-942zM853 469v133q0 108 -71.5 184.5t-178.5 76.5
q-132 0 -206.5 -97.5t-74.5 -272.5q0 -151 71.5 -241.5t189.5 -90.5q120 0 195 86.5t75 221.5zM922 1204h-160l-161 211l-157 -211h-155l224 328h184z" />
    <glyph glyph-name="Gbreve" unicode="&#x11e;" horiz-adv-x="1428" 
d="M85 0zM1296 98q-224 -122 -499 -122q-318 0 -515 198t-197 524q0 333 215.5 546.5t547.5 213.5q239 0 402 -70v-245q-165 110 -393 110q-229 0 -375.5 -151t-146.5 -391q0 -247 126 -388.5t342 -141.5q148 0 256 57v341h-302v200h539v-681zM1102 1842
q-11 -124 -97.5 -200t-209.5 -76q-130 0 -211.5 75.5t-87.5 200.5h136q12 -146 166 -146q65 0 111 39.5t56 106.5h137z" />
    <glyph glyph-name="gbreve" unicode="&#x11f;" horiz-adv-x="1234" 
d="M85 0zM1083 82q0 -564 -567 -564q-200 0 -349 67v212q168 -96 319 -96q365 0 365 359v112h-4q-115 -196 -346 -196q-187 0 -301.5 136.5t-114.5 366.5q0 261 123 415t338 154q203 0 301 -166h4v142h232v-942zM853 469v133q0 108 -71.5 184.5t-178.5 76.5
q-132 0 -206.5 -97.5t-74.5 -272.5q0 -151 71.5 -241.5t189.5 -90.5q120 0 195 86.5t75 221.5zM914 1480q-11 -124 -97.5 -200t-209.5 -76q-130 0 -211.5 75.5t-87.5 200.5h136q12 -146 166 -146q65 0 111 39.5t56 106.5h137z" />
    <glyph glyph-name="Gdotaccent" unicode="&#x120;" horiz-adv-x="1428" 
d="M85 0zM1296 98q-224 -122 -499 -122q-318 0 -515 198t-197 524q0 333 215.5 546.5t547.5 213.5q239 0 402 -70v-245q-165 110 -393 110q-229 0 -375.5 -151t-146.5 -391q0 -247 126 -388.5t342 -141.5q148 0 256 57v341h-302v200h539v-681zM806 1566q-50 0 -86.5 33.5
t-36.5 82.5q0 48 36 81t87 33t87 -32.5t36 -81.5q0 -48 -36 -82t-87 -34z" />
    <glyph glyph-name="gdotaccent" unicode="&#x121;" horiz-adv-x="1234" 
d="M85 0zM1083 82q0 -564 -567 -564q-200 0 -349 67v212q168 -96 319 -96q365 0 365 359v112h-4q-115 -196 -346 -196q-187 0 -301.5 136.5t-114.5 366.5q0 261 123 415t338 154q203 0 301 -166h4v142h232v-942zM853 469v133q0 108 -71.5 184.5t-178.5 76.5
q-132 0 -206.5 -97.5t-74.5 -272.5q0 -151 71.5 -241.5t189.5 -90.5q120 0 195 86.5t75 221.5zM600 1203q-50 0 -86.5 33.5t-36.5 82.5q0 48 36 81t87 33t87 -32.5t36 -81.5q0 -48 -36 -82t-87 -34z" />
    <glyph glyph-name="Gcommaaccent" unicode="&#x122;" horiz-adv-x="1428" 
d="M85 0zM1296 98q-224 -122 -499 -122q-318 0 -515 198t-197 524q0 333 215.5 546.5t547.5 213.5q239 0 402 -70v-245q-165 110 -393 110q-229 0 -375.5 -151t-146.5 -391q0 -247 126 -388.5t342 -141.5q148 0 256 57v341h-302v200h539v-681zM924 -118l-167 -302h-155
l105 302h217z" />
    <glyph glyph-name="gcommaaccent" unicode="&#x123;" horiz-adv-x="1234" 
d="M1083 82q0 -564 -567 -564q-200 0 -349 67v212q168 -96 319 -96q365 0 365 359v112h-4q-115 -196 -346 -196q-187 0 -301.5 136.5t-114.5 366.5q0 261 123 415t338 154q203 0 301 -166h4v142h232v-942zM853 469v133q0 108 -71.5 184.5t-178.5 76.5q-132 0 -206.5 -97.5
t-74.5 -272.5q0 -151 71.5 -241.5t189.5 -90.5q120 0 195 86.5t75 221.5zM465 1203l167 302h155l-105 -302h-217z" />
    <glyph glyph-name="Hcircumflex" unicode="&#x124;" horiz-adv-x="1506" 
d="M177 0zM1329 0h-239v622h-675v-622h-238v1434h238v-603h675v603h239v-1434zM1067 1566h-160l-161 211l-157 -211h-155l224 328h184z" />
    <glyph glyph-name="hcircumflex" unicode="&#x125;" horiz-adv-x="1192" 
d="M151 0zM1061 0h-232v560q0 304 -203 304q-102 0 -172 -88t-70 -225v-551h-233v1516h233v-662h4q116 194 332 194q341 0 341 -417v-631zM956 1611h-160l-161 211l-157 -211h-155l224 328h184z" />
    <glyph glyph-name="Hbar" unicode="&#x126;" horiz-adv-x="1506" 
d="M1328 0h-238v622h-676v-622h-237v1023h-162v176h162v235h237v-235h676v235h238v-235h162v-176h-162v-1023zM414 1023v-193h676v193h-676z" />
    <glyph glyph-name="hbar" unicode="&#x127;" horiz-adv-x="1205" 
d="M1076 0h-230v567q0 284 -205 284q-102 0 -171.5 -78.5t-69.5 -201.5v-571h-232v1192h-139v145h139v179h232v-179h331v-145h-331v-340h4q117 186 327 186q168 0 256.5 -107.5t88.5 -310.5v-620z" />
    <glyph glyph-name="Itilde" unicode="&#x128;" horiz-adv-x="592" 
d="M0 0zM546 1434v-192h-131v-1050h131v-192h-500v192h131v1050h-131v192h500zM635 1828q0 -116 -51.5 -189.5t-139.5 -73.5q-72 0 -165 48q-78 45 -121 45q-84 0 -84 -111h-115q0 119 51 190.5t143 71.5q68 0 157 -51q72 -44 125 -44q81 0 81 114h119z" />
    <glyph glyph-name="itilde" unicode="&#x129;" horiz-adv-x="535" 
d="M0 0zM384 0h-233v1024h233v-1024zM601 1475q0 -116 -51.5 -189.5t-139.5 -73.5q-72 0 -165 48q-78 45 -121 45q-84 0 -84 -111h-115q0 119 51 190.5t143 71.5q68 0 157 -51q72 -44 125 -44q81 0 81 114h119z" />
    <glyph glyph-name="Imacron" unicode="&#x12a;" horiz-adv-x="592" 
d="M26 0zM546 1434v-192h-131v-1050h131v-192h-500v192h131v1050h-131v192h500zM569 1566h-543v137h543v-137z" />
    <glyph glyph-name="imacron" unicode="&#x12b;" horiz-adv-x="535" 
d="M0 0zM384 0h-233v1024h233v-1024zM534 1204h-543v137h543v-137z" />
    <glyph glyph-name="Ibreve" unicode="&#x12c;" horiz-adv-x="592" 
d="M0 0zM546 1434v-192h-131v-1050h131v-192h-500v192h131v1050h-131v192h500zM601 1842q-11 -124 -97.5 -200t-209.5 -76q-130 0 -211.5 75.5t-87.5 200.5h136q12 -146 166 -146q65 0 111 39.5t56 106.5h137z" />
    <glyph glyph-name="ibreve" unicode="&#x12d;" horiz-adv-x="535" 
d="M0 0zM384 0h-233v1024h233v-1024zM566 1480q-11 -124 -97.5 -200t-209.5 -76q-130 0 -211.5 75.5t-87.5 200.5h136q12 -146 166 -146q65 0 111 39.5t56 106.5h137z" />
    <glyph glyph-name="Iogonek" unicode="&#x12e;" horiz-adv-x="592" 
d="M46 0zM546 1434v-192h-131v-1050h131v-192h-500v192h131v1050h-131v192h500zM453 0q-151 -137 -151 -216q0 -68 65 -68q36 0 68 13v-121q-38 -16 -105 -16q-78 0 -125.5 42t-47.5 116q0 122 161 250h135z" />
    <glyph glyph-name="iogonek" unicode="&#x12f;" horiz-adv-x="535" 
d="M87 0zM268 1239q-57 0 -97.5 37t-40.5 94t40.5 95t97.5 38q59 0 100 -38t41 -95q0 -54 -41 -92.5t-100 -38.5zM383 0h-232v1024h232v-1024zM383 0q-151 -137 -151 -216q0 -68 65 -68q36 0 68 13v-121q-38 -16 -105 -16q-78 0 -125.5 42t-47.5 116q0 122 161 250h135z" />
    <glyph glyph-name="Idotaccent" unicode="&#x130;" horiz-adv-x="592" 
d="M46 0zM546 1434v-192h-131v-1050h131v-192h-500v192h131v1050h-131v192h500zM295 1566q-50 0 -86.5 33.5t-36.5 82.5q0 48 36 81t87 33t87 -32.5t36 -81.5q0 -48 -36 -82t-87 -34z" />
    <glyph glyph-name="dotlessi" unicode="&#x131;" horiz-adv-x="535" 
d="M384 0h-233v1024h233v-1024z" />
    <glyph glyph-name="IJ" unicode="&#x132;" horiz-adv-x="1404" 
d="M46 0zM546 1434v-192h-131v-1050h131v-192h-500v192h131v1050h-131v192h500zM1241 514q0 -255 -126 -396.5t-336 -141.5q-98 0 -161 23v224q57 -39 147 -39q238 0 238 368v882h238v-920z" />
    <glyph glyph-name="ij" unicode="&#x133;" horiz-adv-x="1115" 
d="M130 0zM268 1239q-57 0 -97.5 37t-40.5 94t40.5 95t97.5 38q59 0 100 -38t41 -95q0 -54 -41 -92.5t-100 -38.5zM383 0h-232v1024h232v-1024zM963 43q0 -252 -106 -388.5t-303 -136.5q-73 0 -142 32v199q65 -45 123 -45q196 0 196 346v974h232v-981zM849 1239
q-57 0 -97.5 37t-40.5 94t40.5 95t97.5 38q58 0 99 -38t41 -95q0 -54 -41 -92.5t-99 -38.5z" />
    <glyph glyph-name="Jcircumflex" unicode="&#x134;" horiz-adv-x="812" 
d="M25 0zM648 514q0 -255 -126 -396.5t-336 -141.5q-98 0 -161 23v224q57 -39 147 -39q238 0 238 368v882h238v-920zM845 1566h-160l-161 211l-157 -211h-155l224 328h184z" />
    <glyph glyph-name="jcircumflex" unicode="&#x135;" horiz-adv-x="535" 
d="M0 0zM383 31q0 -246 -106 -379t-303 -133q-73 0 -142 31v196q68 -42 129 -42q190 0 190 302v1018h232v-993zM583 1204h-160l-161 211l-157 -211h-155l224 328h184z" />
    <glyph glyph-name="Kcommaaccent" unicode="&#x136;" horiz-adv-x="1251" 
d="M177 0zM1262 0h-310l-499 656q-28 37 -34 50h-4v-706h-238v1434h238v-674h4q12 22 34 49l481 625h285l-563 -688zM782 -118l-167 -302h-155l105 302h217z" />
    <glyph glyph-name="kcommaaccent" unicode="&#x137;" horiz-adv-x="1075" 
d="M151 0zM1080 0h-294l-398 492h-4v-492h-233v1516h233v-961h4l376 469h279l-423 -494zM698 -118l-167 -302h-155l105 302h217z" />
    <glyph glyph-name="kgreenlandic" unicode="&#x138;" horiz-adv-x="1075" 
d="M1081 0h-295l-398 499h-4v-499h-233v1024h233v-471h4l376 471h284l-426 -488z" />
    <glyph glyph-name="Lacute" unicode="&#x139;" horiz-adv-x="1001" 
d="M177 0zM971 0h-794v1434h238v-1233h556v-201zM888 1908l-286 -328h-172l242 328h216z" />
    <glyph glyph-name="lacute" unicode="&#x13a;" horiz-adv-x="535" 
d="M139 0zM384 0h-233v1516h233v-1516zM597 1992l-286 -328h-172l242 328h216z" />
    <glyph glyph-name="Lcommaaccent" unicode="&#x13b;" horiz-adv-x="1001" 
d="M177 0zM971 0h-794v1434h238v-1233h556v-201zM798 -248q0 -194 -288 -194q-47 0 -81 3v111q44 -6 71 -6q133 0 133 82q0 74 -121 74q-10 0 -39 -4v182h136v-94q87 0 138 -40.5t51 -113.5z" />
    <glyph glyph-name="lcommaaccent" unicode="&#x13c;" horiz-adv-x="535" 
d="M132 0zM384 0h-233v1516h233v-1516zM501 -248q0 -194 -288 -194q-47 0 -81 3v111q44 -6 71 -6q133 0 133 82q0 74 -121 74q-10 0 -39 -4v182h136v-94q87 0 138 -40.5t51 -113.5z" />
    <glyph glyph-name="Lcaron" unicode="&#x13d;" horiz-adv-x="1001" 
d="M177 0zM971 0h-794v1434h238v-1233h556v-201zM972 1435l-167 -302h-155l105 302h217z" />
    <glyph glyph-name="lcaron" unicode="&#x13e;" horiz-adv-x="682" 
d="M151 0zM384 0h-233v1516h233v-1516zM801 1512l-167 -302h-155l105 302h217z" />
    <glyph glyph-name="Ldot" unicode="&#x13f;" horiz-adv-x="1001" 
d="M177 0zM971 0h-794v1434h238v-1233h556v-201zM776 660q-50 0 -86.5 33.5t-36.5 82.5q0 48 36 81t87 33t87 -32.5t36 -81.5q0 -48 -36 -82t-87 -34z" />
    <glyph glyph-name="ldot" unicode="&#x140;" horiz-adv-x="754" 
d="M151 0zM384 0h-233v1516h233v-1516zM631 633q-50 0 -86.5 33.5t-36.5 82.5q0 48 36 81t87 33t87 -32.5t36 -81.5q0 -48 -36 -82t-87 -34z" />
    <glyph glyph-name="Lslash" unicode="&#x141;" horiz-adv-x="1001" 
d="M971 0h-794v511l-158 -92v202l158 91v722h238v-594l308 179v-203l-308 -177v-438h556v-201z" />
    <glyph glyph-name="lslash" unicode="&#x142;" horiz-adv-x="598" 
d="M566 785l-157 -106v-679h-232v530l-152 -103v202l152 103v784h232v-635l157 105v-201z" />
    <glyph glyph-name="Nacute" unicode="&#x143;" horiz-adv-x="1571" 
d="M177 0zM1393 0h-260l-685 1054q-26 40 -43 83h-6q8 -46 8 -197v-940h-230v1434h277l662 -1029q42 -64 54 -88h4q-10 57 -10 193v924h229v-1434zM1110 1908l-286 -328h-172l242 328h216z" />
    <glyph glyph-name="nacute" unicode="&#x144;" horiz-adv-x="1195" 
d="M151 0zM1063 0h-232v577q0 287 -203 287q-106 0 -175 -79.5t-69 -200.5v-584h-233v1024h233v-170h4q115 194 332 194q167 0 255 -108.5t88 -313.5v-626zM908 1546l-286 -328h-172l242 328h216z" />
    <glyph glyph-name="Ncommaaccent" unicode="&#x145;" horiz-adv-x="1571" 
d="M177 0zM1393 0h-260l-685 1054q-26 40 -43 83h-6q8 -46 8 -197v-940h-230v1434h277l662 -1029q42 -64 54 -88h4q-10 57 -10 193v924h229v-1434zM924 -118l-167 -302h-155l105 302h217z" />
    <glyph glyph-name="ncommaaccent" unicode="&#x146;" horiz-adv-x="1195" 
d="M151 0zM1063 0h-232v577q0 287 -203 287q-106 0 -175 -79.5t-69 -200.5v-584h-233v1024h233v-170h4q115 194 332 194q167 0 255 -108.5t88 -313.5v-626zM741 -118l-167 -302h-155l105 302h217z" />
    <glyph glyph-name="Ncaron" unicode="&#x147;" horiz-adv-x="1571" 
d="M177 0zM1393 0h-260l-685 1054q-26 40 -43 83h-6q8 -46 8 -197v-940h-230v1434h277l662 -1029q42 -64 54 -88h4q-10 57 -10 193v924h229v-1434zM1101 1893l-224 -327h-185l-224 327h155l160 -210l161 210h157z" />
    <glyph glyph-name="ncaron" unicode="&#x148;" horiz-adv-x="1195" 
d="M151 0zM1063 0h-232v577q0 287 -203 287q-106 0 -175 -79.5t-69 -200.5v-584h-233v1024h233v-170h4q115 194 332 194q167 0 255 -108.5t88 -313.5v-626zM935 1531l-224 -327h-185l-224 327h155l160 -210l161 210h157z" />
    <glyph glyph-name="napostrophe" unicode="&#x149;" horiz-adv-x="1241" 
d="M0 0zM239 1462l-163 -445h-153l113 445h203zM1109 0h-232v577q0 287 -203 287q-106 0 -175 -79.5t-69 -200.5v-584h-233v1024h233v-170h4q115 194 332 194q167 0 255 -108.5t88 -313.5v-626z" />
    <glyph glyph-name="Eng" unicode="&#x14a;" horiz-adv-x="1571" 
d="M446 1054q-21 30 -43 83h-6q9 -49 9 -182v-955h-229v1434h276l662 -979q2 -2 53 -96h4q-9 66 -9 202v873h229v-1357q0 -499 -378 -499q-93 0 -167 32v203q77 -41 140 -41q174 0 174 229z" />
    <glyph glyph-name="eng" unicode="&#x14b;" horiz-adv-x="1195" 
d="M1064 43q0 -465 -381 -465q-85 0 -154 31v202q72 -41 131 -41q172 0 172 254v539q0 301 -208 301q-103 0 -171.5 -79.5t-68.5 -200.5v-584h-233v1024h233v-170h4q116 194 332 194q344 0 344 -415v-590z" />
    <glyph glyph-name="Omacron" unicode="&#x14c;" 
d="M85 0zM768 -24q-310 0 -496.5 201t-186.5 523q0 346 190 552t516 206q302 0 486.5 -200t184.5 -523q0 -351 -189 -555t-505 -204zM779 1249q-197 0 -320.5 -147t-123.5 -387q0 -239 120 -385t314 -146q206 0 325 139t119 389q0 257 -115.5 397t-318.5 140zM1048 1566
h-543v137h543v-137z" />
    <glyph glyph-name="omacron" unicode="&#x14d;" horiz-adv-x="1223" 
d="M85 0zM605 -24q-237 0 -378.5 143.5t-141.5 380.5q0 258 147.5 403t397.5 145q240 0 374 -141t134 -391q0 -245 -144.5 -392.5t-388.5 -147.5zM616 863q-136 0 -215 -95t-79 -262q0 -161 80 -253.5t214 -92.5q137 0 210.5 91t73.5 259q0 169 -73.5 261t-210.5 92z
M888 1204h-543v137h543v-137z" />
    <glyph glyph-name="Obreve" unicode="&#x14e;" 
d="M85 0zM768 -24q-310 0 -496.5 201t-186.5 523q0 346 190 552t516 206q302 0 486.5 -200t184.5 -523q0 -351 -189 -555t-505 -204zM779 1249q-197 0 -320.5 -147t-123.5 -387q0 -239 120 -385t314 -146q206 0 325 139t119 389q0 257 -115.5 397t-318.5 140zM1082 1843
q-11 -124 -97.5 -200t-209.5 -76q-130 0 -211.5 75.5t-87.5 200.5h136q12 -146 166 -146q65 0 111 39.5t56 106.5h137z" />
    <glyph glyph-name="obreve" unicode="&#x14f;" horiz-adv-x="1223" 
d="M85 0zM605 -24q-237 0 -378.5 143.5t-141.5 380.5q0 258 147.5 403t397.5 145q240 0 374 -141t134 -391q0 -245 -144.5 -392.5t-388.5 -147.5zM616 863q-136 0 -215 -95t-79 -262q0 -161 80 -253.5t214 -92.5q137 0 210.5 91t73.5 259q0 169 -73.5 261t-210.5 92z
M925 1480q-11 -124 -97.5 -200t-209.5 -76q-130 0 -211.5 75.5t-87.5 200.5h136q12 -146 166 -146q65 0 111 39.5t56 106.5h137z" />
    <glyph glyph-name="Ohungarumlaut" unicode="&#x150;" 
d="M85 0zM768 -24q-310 0 -496.5 201t-186.5 523q0 346 190 552t516 206q302 0 486.5 -200t184.5 -523q0 -351 -189 -555t-505 -204zM779 1249q-197 0 -320.5 -147t-123.5 -387q0 -239 120 -385t314 -146q206 0 325 139t119 389q0 257 -115.5 397t-318.5 140zM1194 1885
l-248 -318h-148l211 318h185zM888 1885l-243 -318h-148l208 318h183z" />
    <glyph glyph-name="ohungarumlaut" unicode="&#x151;" horiz-adv-x="1223" 
d="M85 0zM605 -24q-237 0 -378.5 143.5t-141.5 380.5q0 258 147.5 403t397.5 145q240 0 374 -141t134 -391q0 -245 -144.5 -392.5t-388.5 -147.5zM616 863q-136 0 -215 -95t-79 -262q0 -161 80 -253.5t214 -92.5q137 0 210.5 91t73.5 259q0 169 -73.5 261t-210.5 92z
M1028 1522l-248 -318h-148l211 318h185zM722 1522l-243 -318h-148l208 318h183z" />
    <glyph glyph-name="OE" unicode="&#x152;" horiz-adv-x="1915" 
d="M1832 0h-735q-17 0 -141 -14q-100 -10 -186 -10q-316 0 -500.5 201t-184.5 523q0 346 192 552t522 206q92 0 182 -10q114 -14 116 -14h703v-202h-535v-408h496v-202h-496v-421h567v-201zM1023 225v985q-144 39 -241 39q-199 0 -322.5 -150t-123.5 -384q0 -233 121.5 -382
t318.5 -149q105 0 247 41z" />
    <glyph glyph-name="oe" unicode="&#x153;" horiz-adv-x="1897" 
d="M1830 448h-700q3 -142 85.5 -219t225.5 -77q169 0 308 98v-187q-134 -87 -353 -87q-272 0 -385 214h-4q-130 -213 -413 -213q-234 0 -371.5 142.5t-137.5 378.5q0 258 145 404t390 146q287 0 393 -208h4q122 208 394 208q198 0 308.5 -136.5t110.5 -371.5v-92zM1605 612
q-2 125 -59.5 194.5t-157.5 69.5q-102 0 -172.5 -75t-84.5 -189h474zM617 863q-136 0 -215.5 -96t-79.5 -265q0 -158 79.5 -249.5t213.5 -91.5q136 0 210.5 90.5t74.5 256.5q0 171 -74 263t-209 92z" />
    <glyph glyph-name="Racute" unicode="&#x154;" horiz-adv-x="1275" 
d="M177 0zM1285 0h-278l-229 384q-31 53 -60.5 90.5t-60 61.5t-66.5 35t-81 11h-96v-582h-237v1434h472q101 0 186 -24t148 -72.5t98.5 -121t35.5 -169.5q0 -76 -22.5 -139.5t-64 -113t-100 -84.5t-131.5 -54v-4q39 -22 68 -48.5t55 -54.5t51.5 -63.5t56.5 -82.5zM414 1241
v-466h198q55 0 101.5 17t80.5 49t53 78t19 103q0 103 -65 161t-187 58h-200zM933 1908l-286 -328h-172l242 328h216z" />
    <glyph glyph-name="racute" unicode="&#x155;" horiz-adv-x="758" 
d="M151 0zM745 803q-42 33 -121 33q-103 0 -172 -93t-69 -253v-490h-232v1024h232v-211h4q34 108 104.5 168.5t157.5 60.5q63 0 96 -19v-220zM737 1546l-286 -328h-172l242 328h216z" />
    <glyph glyph-name="Rcommaaccent" unicode="&#x156;" horiz-adv-x="1275" 
d="M177 0zM1285 0h-278l-229 384q-31 53 -60.5 90.5t-60 61.5t-66.5 35t-81 11h-96v-582h-237v1434h472q101 0 186 -24t148 -72.5t98.5 -121t35.5 -169.5q0 -76 -22.5 -139.5t-64 -113t-100 -84.5t-131.5 -54v-4q39 -22 68 -48.5t55 -54.5t51.5 -63.5t56.5 -82.5zM414 1241
v-466h198q55 0 101.5 17t80.5 49t53 78t19 103q0 103 -65 161t-187 58h-200zM801 -118l-167 -302h-155l105 302h217z" />
    <glyph glyph-name="rcommaaccent" unicode="&#x157;" horiz-adv-x="758" 
d="M151 0zM745 803q-42 33 -121 33q-103 0 -172 -93t-69 -253v-490h-232v1024h232v-211h4q34 108 104.5 168.5t157.5 60.5q63 0 96 -19v-220zM562 -118l-167 -302h-155l105 302h217z" />
    <glyph glyph-name="Rcaron" unicode="&#x158;" horiz-adv-x="1275" 
d="M177 0zM1285 0h-278l-229 384q-31 53 -60.5 90.5t-60 61.5t-66.5 35t-81 11h-96v-582h-237v1434h472q101 0 186 -24t148 -72.5t98.5 -121t35.5 -169.5q0 -76 -22.5 -139.5t-64 -113t-100 -84.5t-131.5 -54v-4q39 -22 68 -48.5t55 -54.5t51.5 -63.5t56.5 -82.5zM414 1241
v-466h198q55 0 101.5 17t80.5 49t53 78t19 103q0 103 -65 161t-187 58h-200zM938 1893l-224 -327h-185l-224 327h155l160 -210l161 210h157z" />
    <glyph glyph-name="rcaron" unicode="&#x159;" horiz-adv-x="758" 
d="M113 0zM745 803q-42 33 -121 33q-103 0 -172 -93t-69 -253v-490h-232v1024h232v-211h4q34 108 104.5 168.5t157.5 60.5q63 0 96 -19v-220zM746 1531l-224 -327h-185l-224 327h155l160 -210l161 210h157z" />
    <glyph glyph-name="Sacute" unicode="&#x15a;" horiz-adv-x="1115" 
d="M110 0zM111 57v245q33 -30 78.5 -54t96.5 -40.5t102 -25.5t94 -9q150 0 223.5 50t73.5 145q0 51 -24.5 88.5t-68.5 68.5t-103.5 59.5t-127.5 59.5q-73 39 -136 79t-109.5 88.5t-73 109.5t-26.5 143q0 101 45.5 175.5t120 123t169.5 72t194 23.5q225 0 328 -51v-235
q-122 88 -314 88q-53 0 -105.5 -10t-94 -33t-67.5 -59t-26 -87q0 -48 20 -83t58.5 -64t94 -56.5t128.5 -59.5q75 -39 141.5 -82t117 -95t80 -115.5t29.5 -144.5q0 -109 -44 -184t-118.5 -122t-171.5 -68t-205 -21q-36 0 -88.5 5.5t-107.5 16t-104 25.5t-79 34zM858 1908
l-286 -328h-172l242 328h216z" />
    <glyph glyph-name="sacute" unicode="&#x15b;" horiz-adv-x="883" 
d="M87 0zM87 32v215q130 -99 287 -99q210 0 210 124q0 35 -18 59.5t-48.5 43.5t-72 34t-92.5 34q-63 25 -113.5 53t-84 63.5t-50.5 80.5t-17 105q0 74 35 130.5t94 95t134 58t155 19.5q142 0 254 -43v-203q-108 74 -248 74q-44 0 -79.5 -9t-60.5 -25t-39 -38.5t-14 -49.5
q0 -33 14 -56t41.5 -40.5t66 -32t88.5 -31.5q66 -27 118.5 -55t89.5 -63.5t57 -82t20 -110.5q0 -78 -36 -136t-96 -96t-138.5 -56.5t-165.5 -18.5q-168 0 -291 56zM761 1546l-286 -328h-172l242 328h216z" />
    <glyph glyph-name="Scircumflex" unicode="&#x15c;" horiz-adv-x="1115" 
d="M110 0zM111 57v245q33 -30 78.5 -54t96.5 -40.5t102 -25.5t94 -9q150 0 223.5 50t73.5 145q0 51 -24.5 88.5t-68.5 68.5t-103.5 59.5t-127.5 59.5q-73 39 -136 79t-109.5 88.5t-73 109.5t-26.5 143q0 101 45.5 175.5t120 123t169.5 72t194 23.5q225 0 328 -51v-235
q-122 88 -314 88q-53 0 -105.5 -10t-94 -33t-67.5 -59t-26 -87q0 -48 20 -83t58.5 -64t94 -56.5t128.5 -59.5q75 -39 141.5 -82t117 -95t80 -115.5t29.5 -144.5q0 -109 -44 -184t-118.5 -122t-171.5 -68t-205 -21q-36 0 -88.5 5.5t-107.5 16t-104 25.5t-79 34zM886 1566
h-160l-161 211l-157 -211h-155l224 328h184z" />
    <glyph glyph-name="scircumflex" unicode="&#x15d;" horiz-adv-x="883" 
d="M87 0zM87 32v215q130 -99 287 -99q210 0 210 124q0 35 -18 59.5t-48.5 43.5t-72 34t-92.5 34q-63 25 -113.5 53t-84 63.5t-50.5 80.5t-17 105q0 74 35 130.5t94 95t134 58t155 19.5q142 0 254 -43v-203q-108 74 -248 74q-44 0 -79.5 -9t-60.5 -25t-39 -38.5t-14 -49.5
q0 -33 14 -56t41.5 -40.5t66 -32t88.5 -31.5q66 -27 118.5 -55t89.5 -63.5t57 -82t20 -110.5q0 -78 -36 -136t-96 -96t-138.5 -56.5t-165.5 -18.5q-168 0 -291 56zM762 1204h-160l-161 211l-157 -211h-155l224 328h184z" />
    <glyph glyph-name="Scedilla" unicode="&#x15e;" horiz-adv-x="1115" 
d="M110 0zM111 57v245q33 -30 78.5 -54t96.5 -40.5t102 -25.5t94 -9q150 0 223.5 50t73.5 145q0 51 -24.5 88.5t-68.5 68.5t-103.5 59.5t-127.5 59.5q-73 39 -136 79t-109.5 88.5t-73 109.5t-26.5 143q0 101 45.5 175.5t120 123t169.5 72t194 23.5q225 0 328 -51v-235
q-122 88 -314 88q-53 0 -105.5 -10t-94 -33t-67.5 -59t-26 -87q0 -48 20 -83t58.5 -64t94 -56.5t128.5 -59.5q75 -39 141.5 -82t117 -95t80 -115.5t29.5 -144.5q0 -109 -44 -184t-118.5 -122t-171.5 -68t-205 -21q-36 0 -88.5 5.5t-107.5 16t-104 25.5t-79 34zM790 -248
q0 -194 -288 -194q-47 0 -81 3v111q44 -6 71 -6q133 0 133 82q0 74 -121 74q-10 0 -39 -4v182h136v-94q87 0 138 -40.5t51 -113.5z" />
    <glyph glyph-name="scedilla" unicode="&#x15f;" horiz-adv-x="883" 
d="M87 0zM87 32v215q130 -99 287 -99q210 0 210 124q0 35 -18 59.5t-48.5 43.5t-72 34t-92.5 34q-63 25 -113.5 53t-84 63.5t-50.5 80.5t-17 105q0 74 35 130.5t94 95t134 58t155 19.5q142 0 254 -43v-203q-108 74 -248 74q-44 0 -79.5 -9t-60.5 -25t-39 -38.5t-14 -49.5
q0 -33 14 -56t41.5 -40.5t66 -32t88.5 -31.5q66 -27 118.5 -55t89.5 -63.5t57 -82t20 -110.5q0 -78 -36 -136t-96 -96t-138.5 -56.5t-165.5 -18.5q-168 0 -291 56zM665 -248q0 -194 -288 -194q-47 0 -81 3v111q44 -6 71 -6q133 0 133 82q0 74 -121 74q-10 0 -39 -4v182h136
v-94q87 0 138 -40.5t51 -113.5z" />
    <glyph glyph-name="Scaron" unicode="&#x160;" horiz-adv-x="1115" 
d="M110 0zM111 57v245q33 -30 78.5 -54t96.5 -40.5t102 -25.5t94 -9q150 0 223.5 50t73.5 145q0 51 -24.5 88.5t-68.5 68.5t-103.5 59.5t-127.5 59.5q-73 39 -136 79t-109.5 88.5t-73 109.5t-26.5 143q0 101 45.5 175.5t120 123t169.5 72t194 23.5q225 0 328 -51v-235
q-122 88 -314 88q-53 0 -105.5 -10t-94 -33t-67.5 -59t-26 -87q0 -48 20 -83t58.5 -64t94 -56.5t128.5 -59.5q75 -39 141.5 -82t117 -95t80 -115.5t29.5 -144.5q0 -109 -44 -184t-118.5 -122t-171.5 -68t-205 -21q-36 0 -88.5 5.5t-107.5 16t-104 25.5t-79 34zM891 1881
l-224 -327h-185l-224 327h155l160 -210l161 210h157z" />
    <glyph glyph-name="scaron" unicode="&#x161;" horiz-adv-x="883" 
d="M87 0zM87 32v215q130 -99 287 -99q210 0 210 124q0 35 -18 59.5t-48.5 43.5t-72 34t-92.5 34q-63 25 -113.5 53t-84 63.5t-50.5 80.5t-17 105q0 74 35 130.5t94 95t134 58t155 19.5q142 0 254 -43v-203q-108 74 -248 74q-44 0 -79.5 -9t-60.5 -25t-39 -38.5t-14 -49.5
q0 -33 14 -56t41.5 -40.5t66 -32t88.5 -31.5q66 -27 118.5 -55t89.5 -63.5t57 -82t20 -110.5q0 -78 -36 -136t-96 -96t-138.5 -56.5t-165.5 -18.5q-168 0 -291 56zM792 1531l-224 -327h-185l-224 327h155l160 -210l161 210h157z" />
    <glyph glyph-name="uni0162" unicode="&#x162;" horiz-adv-x="1130" 
d="M36 0zM1097 1232h-412v-1232h-238v1232h-411v202h1061v-202zM793 -248q0 -194 -288 -194q-47 0 -81 3v111q44 -6 71 -6q133 0 133 82q0 74 -121 74q-10 0 -39 -4v182h136v-94q87 0 138 -40.5t51 -113.5z" />
    <glyph glyph-name="uni0163" unicode="&#x163;" horiz-adv-x="740" 
d="M43 0zM691 11q-68 -34 -179 -34q-298 0 -298 286v579h-171v182h171v237l232 66v-303h245v-182h-245v-512q0 -91 33 -130t110 -39q59 0 102 34v-184zM700 -248q0 -194 -288 -194q-47 0 -81 3v111q44 -6 71 -6q133 0 133 82q0 74 -121 74q-10 0 -39 -4v182h136v-94
q87 0 138 -40.5t51 -113.5z" />
    <glyph glyph-name="Tcaron" unicode="&#x164;" horiz-adv-x="1130" 
d="M36 0zM1097 1232h-412v-1232h-238v1232h-411v202h1061v-202zM883 1893l-224 -327h-185l-224 327h155l160 -210l161 210h157z" />
    <glyph glyph-name="tcaron" unicode="&#x165;" horiz-adv-x="846" 
d="M43 0zM691 11q-68 -34 -179 -34q-298 0 -298 286v579h-171v182h171v237l232 66v-303h245v-182h-245v-512q0 -91 33 -130t110 -39q59 0 102 34v-184zM959 1434l-167 -302h-155l105 302h217z" />
    <glyph glyph-name="Tbar" unicode="&#x166;" horiz-adv-x="1130" 
d="M1097 1232h-412v-432h242v-205h-242v-595h-238v595h-244v205h244v432h-411v202h1061v-202z" />
    <glyph glyph-name="tbar" unicode="&#x167;" horiz-adv-x="740" 
d="M680 499h-235v-169q0 -91 32 -130t108 -39q59 0 105 32v-183q-68 -33 -179 -33q-298 0 -298 286v236h-155v166h155v177h-171v182h171v234q0 2 113 36l119 36v-306h245v-182h-245v-177h235v-166z" />
    <glyph glyph-name="Utilde" unicode="&#x168;" horiz-adv-x="1440" 
d="M160 0zM1280 580q0 -604 -572 -604q-548 0 -548 581v877h238v-828q0 -422 328 -422q316 0 316 407v843h238v-854zM1059 1815q0 -116 -51.5 -189.5t-139.5 -73.5q-72 0 -165 48q-78 45 -121 45q-84 0 -84 -111h-115q0 119 51 190.5t143 71.5q68 0 157 -51q72 -44 125 -44
q81 0 81 114h119z" />
    <glyph glyph-name="utilde" unicode="&#x169;" horiz-adv-x="1195" 
d="M131 0zM1044 0h-232v162h-4q-101 -186 -314 -186q-363 0 -363 436v612h232v-588q0 -276 213 -276q103 0 169.5 76t66.5 199v589h232v-1024zM929 1475q0 -116 -51.5 -189.5t-139.5 -73.5q-72 0 -165 48q-78 45 -121 45q-84 0 -84 -111h-115q0 119 51 190.5t143 71.5
q68 0 157 -51q72 -44 125 -44q81 0 81 114h119z" />
    <glyph glyph-name="Umacron" unicode="&#x16a;" horiz-adv-x="1440" 
d="M160 0zM1280 580q0 -604 -572 -604q-548 0 -548 581v877h238v-828q0 -422 328 -422q316 0 316 407v843h238v-854zM989 1566h-543v137h543v-137z" />
    <glyph glyph-name="umacron" unicode="&#x16b;" horiz-adv-x="1195" 
d="M131 0zM1044 0h-232v162h-4q-101 -186 -314 -186q-363 0 -363 436v612h232v-588q0 -276 213 -276q103 0 169.5 76t66.5 199v589h232v-1024zM860 1204h-543v137h543v-137z" />
    <glyph glyph-name="Ubreve" unicode="&#x16c;" horiz-adv-x="1440" 
d="M160 0zM1280 580q0 -604 -572 -604q-548 0 -548 581v877h238v-828q0 -422 328 -422q316 0 316 407v843h238v-854zM1020 1842q-11 -124 -97.5 -200t-209.5 -76q-130 0 -211.5 75.5t-87.5 200.5h136q12 -146 166 -146q65 0 111 39.5t56 106.5h137z" />
    <glyph glyph-name="ubreve" unicode="&#x16d;" horiz-adv-x="1195" 
d="M131 0zM1044 0h-232v162h-4q-101 -186 -314 -186q-363 0 -363 436v612h232v-588q0 -276 213 -276q103 0 169.5 76t66.5 199v589h232v-1024zM891 1480q-11 -124 -97.5 -200t-209.5 -76q-130 0 -211.5 75.5t-87.5 200.5h136q12 -146 166 -146q65 0 111 39.5t56 106.5h137z
" />
    <glyph glyph-name="Uring" unicode="&#x16e;" horiz-adv-x="1440" 
d="M160 0zM1280 580q0 -604 -572 -604q-548 0 -548 581v877h238v-828q0 -422 328 -422q316 0 316 407v843h238v-854zM705 1566q-94 0 -155.5 54t-61.5 142q0 98 63 156t161 58q96 0 157.5 -58.5t61.5 -149.5q0 -87 -65.5 -144.5t-160.5 -57.5zM705 1876q-45 0 -74.5 -30
t-29.5 -74q0 -104 104 -104q48 0 79.5 29.5t31.5 74.5t-31.5 74.5t-79.5 29.5z" />
    <glyph glyph-name="uring" unicode="&#x16f;" horiz-adv-x="1195" 
d="M131 0zM1044 0h-232v162h-4q-101 -186 -314 -186q-363 0 -363 436v612h232v-588q0 -276 213 -276q103 0 169.5 76t66.5 199v589h232v-1024zM586 1180q-94 0 -155.5 54t-61.5 142q0 98 63 156t161 58q96 0 157.5 -58.5t61.5 -149.5q0 -87 -65.5 -144.5t-160.5 -57.5z
M586 1490q-45 0 -74.5 -30t-29.5 -74q0 -104 104 -104q48 0 79.5 29.5t31.5 74.5t-31.5 74.5t-79.5 29.5z" />
    <glyph glyph-name="Uhungarumlaut" unicode="&#x170;" horiz-adv-x="1440" 
d="M160 0zM1280 580q0 -604 -572 -604q-548 0 -548 581v877h238v-828q0 -422 328 -422q316 0 316 407v843h238v-854zM1160 1884l-248 -318h-148l211 318h185zM854 1884l-243 -318h-148l208 318h183z" />
    <glyph glyph-name="uhungarumlaut" unicode="&#x171;" horiz-adv-x="1195" 
d="M131 0zM1044 0h-232v162h-4q-101 -186 -314 -186q-363 0 -363 436v612h232v-588q0 -276 213 -276q103 0 169.5 76t66.5 199v589h232v-1024zM1012 1522l-248 -318h-148l211 318h185zM706 1522l-243 -318h-148l208 318h183z" />
    <glyph glyph-name="Uogonek" unicode="&#x172;" horiz-adv-x="1440" 
d="M160 0zM1280 580q0 -604 -572 -604q-548 0 -548 581v877h238v-828q0 -422 328 -422q316 0 316 407v843h238v-854zM895 0q-151 -137 -151 -216q0 -68 65 -68q36 0 68 13v-121q-38 -16 -105 -16q-78 0 -125.5 42t-47.5 116q0 122 161 250h135z" />
    <glyph glyph-name="uogonek" unicode="&#x173;" horiz-adv-x="1195" 
d="M131 0zM1044 0h-232v162h-4q-101 -186 -314 -186q-363 0 -363 436v612h232v-588q0 -276 213 -276q103 0 169.5 76t66.5 199v589h232v-1024zM949 0q-151 -137 -151 -216q0 -68 65 -68q36 0 68 13v-121q-38 -16 -105 -16q-78 0 -125.5 42t-47.5 116q0 122 161 250h135z" />
    <glyph glyph-name="Wcircumflex" unicode="&#x174;" horiz-adv-x="1978" 
d="M22 0zM1956 1434l-393 -1434h-269l-273 1003q-17 64 -21 140h-4q-5 -71 -24 -138l-274 -1005h-275l-401 1434h261l260 -1050q16 -66 20 -138h5q4 51 28 138l294 1050h245l272 -1058q14 -54 21 -128h4q3 50 23 132l255 1054h246zM1317 1566h-160l-161 211l-157 -211h-155
l224 328h184z" />
    <glyph glyph-name="wcircumflex" unicode="&#x175;" horiz-adv-x="1549" 
d="M20 0zM1528 1024l-302 -1024h-243l-186 694q-11 40 -14 90h-4q-2 -34 -18 -88l-202 -696h-238l-301 1024h240l186 -738q9 -33 12 -88h7q3 42 16 90l207 736h218l184 -741q9 -35 13 -88h7q2 37 15 88l182 741h221zM1100 1204h-160l-161 211l-157 -211h-155l224 328h184z
" />
    <glyph glyph-name="Ycircumflex" unicode="&#x176;" horiz-adv-x="1182" 
d="M10 0zM1176 1434l-470 -913v-521h-238v516l-458 918h271l282 -615q5 -11 30 -83h3q9 32 33 83l295 615h252zM910 1566h-160l-161 211l-157 -211h-155l224 328h184z" />
    <glyph glyph-name="ycircumflex" unicode="&#x177;" horiz-adv-x="1041" 
d="M6 0zM1038 1024l-462 -1188q-144 -318 -404 -318q-73 0 -122 13v193q55 -18 100 -18q130 0 194 128l69 168l-407 1022h257l244 -744q4 -14 18 -74h5q5 23 18 72l256 746h234zM847 1204h-160l-161 211l-157 -211h-155l224 328h184z" />
    <glyph glyph-name="Ydieresis" unicode="&#x178;" horiz-adv-x="1182" 
d="M10 0zM1176 1434l-470 -913v-521h-238v516l-458 918h271l282 -615q5 -11 30 -83h3q9 32 33 83l295 615h252zM802 1565q-50 0 -86.5 33t-36.5 84q0 49 35 82t85 33q53 0 89.5 -33.5t36.5 -81.5q0 -49 -35 -83t-88 -34zM386 1565q-52 0 -89 34.5t-37 82.5q0 49 35.5 82
t86.5 33t88.5 -33.5t37.5 -81.5q0 -49 -36 -83t-86 -34z" />
    <glyph glyph-name="Zacute" unicode="&#x179;" horiz-adv-x="1202" 
d="M36 0zM1155 1330l-786 -1129h776v-201h-1109v109l789 1123h-728v202h1058v-104zM940 1909l-286 -328h-172l242 328h216z" />
    <glyph glyph-name="zacute" unicode="&#x17a;" horiz-adv-x="951" 
d="M29 0zM907 927l-553 -746h551v-181h-876v87l565 756h-511v181h824v-97zM815 1546l-286 -328h-172l242 328h216z" />
    <glyph glyph-name="Zdotaccent" unicode="&#x17b;" horiz-adv-x="1202" 
d="M36 0zM1155 1330l-786 -1129h776v-201h-1109v109l789 1123h-728v202h1058v-104zM614 1565q-50 0 -86.5 33.5t-36.5 82.5q0 48 36 81t87 33t87 -32.5t36 -81.5q0 -48 -36 -82t-87 -34z" />
    <glyph glyph-name="zdotaccent" unicode="&#x17c;" horiz-adv-x="951" 
d="M29 0zM907 927l-553 -746h551v-181h-876v87l565 756h-511v181h824v-97zM496 1203q-50 0 -86.5 33.5t-36.5 82.5q0 48 36 81t87 33t87 -32.5t36 -81.5q0 -48 -36 -82t-87 -34z" />
    <glyph glyph-name="Zcaron" unicode="&#x17d;" horiz-adv-x="1202" 
d="M36 0zM1155 1330l-786 -1129h776v-201h-1109v109l789 1123h-728v202h1058v-104zM940 1878l-224 -327h-185l-224 327h155l160 -210l161 210h157z" />
    <glyph glyph-name="zcaron" unicode="&#x17e;" horiz-adv-x="951" 
d="M29 0zM907 927l-553 -746h551v-181h-876v87l565 756h-511v181h824v-97zM822 1531l-224 -327h-185l-224 327h155l160 -210l161 210h157z" />
    <glyph glyph-name="longs" unicode="&#x17f;" horiz-adv-x="548" 
d="M658 1328q-54 26 -112 26q-162 0 -162 -194v-1160h-233v1172q0 168 103 267q103 100 267 100q82 0 137 -19v-192z" />
    <glyph glyph-name="uni0180" unicode="&#x180;" horiz-adv-x="1234" 
d="M386 134h-4v-134h-231v1189h-141v169h141v158h231v-158h241v-169h-241v-334h4q116 191 339 191q197 0 310 -136t113 -369q0 -257 -122 -410.5t-336 -153.5q-197 0 -304 157zM380 556v-126q0 -113 71 -191.5t181 -78.5q129 0 203.5 100t74.5 276q0 153 -69 240t-188 87
q-123 0 -198 -87.5t-75 -219.5z" />
    <glyph glyph-name="uni0181" unicode="&#x181;" horiz-adv-x="1421" 
d="M360 0v1243h-26q-89 0 -137.5 -48.5t-48.5 -129.5q0 -62 21 -120h-215q-21 56 -21 122q0 158 113 262.5t300 104.5h461q211 0 335 -92t124 -240q0 -120 -69.5 -208t-192.5 -125v-4q148 -17 237 -108.5t89 -237.5q0 -187 -139.5 -303t-352.5 -116h-478zM598 1243v-408h158
q121 0 190 58t69 164q0 186 -245 186h-172zM598 644v-454h204q132 0 205 62t73 170q0 222 -296 222h-186z" />
    <glyph glyph-name="uni0182" unicode="&#x182;" horiz-adv-x="1236" 
d="M177 0v1434h836v-204h-598v-391h278q218 0 339.5 -104t121.5 -295q0 -204 -130.5 -322t-355.5 -118h-491zM415 650v-460h215q131 0 202 62t71 173q0 225 -277 225h-211z" />
    <glyph glyph-name="uni0183" unicode="&#x183;" horiz-adv-x="1234" 
d="M386 134h-4v-134h-231v1516h856v-170h-625v-491h4q118 193 345 193q195 0 306 -137t111 -370q0 -256 -124 -410.5t-340 -154.5q-193 0 -298 158zM380 549v-120q0 -112 70.5 -190.5t181.5 -78.5q128 0 203 100.5t75 275.5q0 150 -69 238.5t-188 88.5q-121 0 -197 -89.5
t-76 -224.5z" />
    <glyph glyph-name="uni0184" unicode="&#x184;" horiz-adv-x="1242" 
d="M177 0v1085l-167 146v25l381 202h24v-620h275q220 0 342 -103t122 -295q0 -204 -130.5 -322t-355.5 -118h-491zM415 651v-462h215q131 0 201.5 62.5t70.5 173.5q0 226 -267 226h-220z" />
    <glyph glyph-name="uni0185" unicode="&#x185;" horiz-adv-x="1234" 
d="M386 134h-4v-134h-231v1146l-165 141v28l372 200h24v-660h4q119 190 347 190q194 0 304.5 -136t110.5 -368q0 -255 -124.5 -409t-341.5 -154q-192 0 -296 156zM380 556v-126q0 -113 71 -191.5t181 -78.5q129 0 203.5 100t74.5 276q0 153 -69 240t-188 87
q-123 0 -198 -87.5t-75 -219.5z" />
    <glyph glyph-name="uni0186" unicode="&#x186;" horiz-adv-x="1274" 
d="M98 32v238q151 -86 334 -86q226 0 367 149t141 396q0 239 -132.5 379.5t-348.5 140.5q-209 0 -361 -94v223q162 80 404 80q311 0 499 -196.5t188 -515.5q0 -345 -209.5 -557.5t-535.5 -212.5q-209 0 -346 56z" />
    <glyph glyph-name="uni0187" unicode="&#x187;" horiz-adv-x="1274" 
d="M1386 1453q-48 23 -89 23q-127 0 -127 -167q0 -59 14 -145l-9 -6q-167 91 -353 91q-216 0 -351.5 -149t-135.5 -396q0 -238 132.5 -379t347.5 -141q209 0 362 94v-222q-162 -80 -403 -80q-313 0 -501 196.5t-188 515.5q0 344 208.5 557t530.5 213q87 0 176 -24
q3 93 79 160.5t194 67.5q57 0 113 -20v-189z" />
    <glyph glyph-name="uni0188" unicode="&#x188;" horiz-adv-x="968" 
d="M1083 1049q-40 21 -77 21q-119 0 -119 -155q0 -78 9 -121l-8 -5q-136 74 -251 74q-140 0 -227.5 -98t-87.5 -261q0 -160 86.5 -252t232.5 -92q129 0 243 82v-200q-123 -66 -293 -66q-229 0 -367.5 142.5t-138.5 370.5q0 240 148 399.5t384 159.5q65 0 122 -15
q2 87 70.5 147.5t171.5 60.5q47 0 102 -19v-173z" />
    <glyph glyph-name="uni0189" unicode="&#x189;" horiz-adv-x="1469" 
d="M15 0zM177 0v616h-162v205h162v613h414q793 0 793 -699q0 -334 -220 -534.5t-590 -200.5h-397zM414 1232v-411h307v-205h-307v-415h190q251 0 390.5 138t139.5 392q0 501 -521 501h-199z" />
    <glyph glyph-name="uni018A" unicode="&#x18a;" horiz-adv-x="1653" 
d="M360 0v1232h-26q-89 0 -137.5 -47t-48.5 -125q0 -60 21 -115h-215q-23 62 -23 134q0 153 113.5 254t301.5 101h418q803 0 803 -699q0 -332 -209 -533.5t-561 -201.5h-437zM598 1232v-1031h190q251 0 390 138t139 392q0 501 -520 501h-199z" />
    <glyph glyph-name="uni018B" unicode="&#x18b;" horiz-adv-x="1236" 
d="M1058 0h-502q-230 0 -352 103t-122 297q0 200 135.5 319t364.5 119h238v391h-599v205h837v-1434zM820 187v463h-212q-275 0 -275 -237q0 -226 268 -226h219z" />
    <glyph glyph-name="uni018C" unicode="&#x18c;" horiz-adv-x="1234" 
d="M1082 0h-231v159h-4q-109 -183 -336 -183q-194 0 -310 137.5t-116 374.5q0 254 127.5 407t340.5 153q202 0 294 -155h4v453h-625v170h856v-1516zM853 464v132q0 112 -72 189.5t-182 77.5q-129 0 -203 -97.5t-74 -269.5q0 -156 71.5 -246t192.5 -90q119 0 193 86.5
t74 217.5z" />
    <glyph glyph-name="uni018D" unicode="&#x18d;" horiz-adv-x="1230" 
d="M796 96q108 -81 146 -142t38 -139q0 -126 -115.5 -211t-298.5 -85q-184 0 -337 79v223q153 -112 328 -112q188 0 188 112q0 46 -43 87.5t-238 147.5q-205 122 -292 241t-87 260q0 212 151 351.5t388 139.5q231 0 375.5 -134t144.5 -336q0 -273 -348 -482zM623 200
q163 96 223.5 183.5t60.5 187.5q0 134 -79.5 213t-212.5 79q-132 0 -212.5 -79.5t-80.5 -212.5q0 -95 57 -177.5t244 -193.5z" />
    <glyph glyph-name="uni018E" unicode="&#x18e;" horiz-adv-x="1061" 
d="M884 0h-805v201h567v414h-496v202h496v415h-534v202h772v-1434z" />
    <glyph glyph-name="uni018F" unicode="&#x18f;" horiz-adv-x="1512" 
d="M82 819h1090q-16 202 -148.5 319t-337.5 117q-235 0 -405 -121v219q178 105 432 105q333 0 523.5 -195t190.5 -538q0 -325 -190 -537t-505 -212q-312 0 -481 214t-169 629zM1172 620h-834q4 -202 110.5 -322.5t289.5 -120.5q185 0 300.5 120t133.5 323z" />
    <glyph glyph-name="uni0190" unicode="&#x190;" horiz-adv-x="1124" 
d="M1038 48q-167 -72 -376 -72q-263 0 -414.5 112.5t-151.5 299.5q0 130 81 226.5t225 133.5v6q-256 78 -256 311q0 170 148 281.5t383 111.5q182 0 330 -66v-221q-151 78 -324 78q-131 0 -210 -54t-79 -145q0 -92 96 -152.5t258 -60.5h99v-204h-102q-398 0 -398 -227
q0 -104 89 -163t242 -59q196 0 360 84v-220z" />
    <glyph glyph-name="uni0191" unicode="&#x191;" horiz-adv-x="1030" 
d="M950 1232h-536v-432h495v-201h-495v-546q0 -436 -382 -436q-75 0 -138 23v214q51 -29 114 -29q169 0 169 229v1380h773v-202z" />
    <glyph glyph-name="florin" unicode="&#x192;" horiz-adv-x="1137" 
d="M993 1225q-53 28 -119 28q-138 0 -160 -150l-27 -176h162v-172h-189l-97 -635q-62 -410 -373 -410q-35 0 -103 18v188q34 -21 82 -21q144 0 181 270l88 590h-104v172h133l20 148q20 165 119 264.5t252 99.5q74 0 135 -24v-190z" />
    <glyph glyph-name="uni0193" unicode="&#x193;" horiz-adv-x="1435" 
d="M1458 1453q-46 23 -87 23q-130 0 -130 -167q0 -72 15 -155l-8 -6q-191 105 -402 105q-225 0 -367.5 -150.5t-142.5 -392.5q0 -247 129.5 -388t350.5 -141q140 0 243 57v341h-302v200h541v-682q-224 -121 -500 -121q-319 0 -516 197.5t-197 522.5q0 334 217 548t550 214
q111 0 220 -30q3 96 79.5 165t194.5 69q56 0 112 -20v-189z" />
    <glyph glyph-name="uni0194" unicode="&#x194;" horiz-adv-x="1315" 
d="M1301 1434l-490 -1250l7 -13q135 -250 135 -370q0 -119 -77.5 -201t-227.5 -82q-125 0 -209.5 80t-84.5 203q0 66 24 130t113 232l9 17l-486 1254h264l334 -927q31 -81 42 -157h6q18 77 45 152l341 932h255zM653 5q-69 -135 -69 -199q0 -93 69 -93q70 0 70 93
q0 64 -70 199z" />
    <glyph glyph-name="uni0195" unicode="&#x195;" horiz-adv-x="1845" 
d="M383 0h-232v1516h232v-650h4q102 177 313 177q336 0 336 -413v-161q0 -302 220 -302q112 0 179 84.5t67 226.5q0 280 -138 546h245q124 -266 124 -540q0 -229 -135 -368.5t-350 -139.5q-444 0 -444 472v137q0 147 -45 212.5t-152 65.5q-98 0 -161 -77.5t-63 -201.5v-584z
" />
    <glyph glyph-name="uni0196" unicode="&#x196;" horiz-adv-x="672" 
d="M631 8q-81 -29 -161 -29q-295 0 -295 350v1105h238v-1110q0 -137 120 -137q51 0 98 25v-204z" />
    <glyph glyph-name="uni0197" unicode="&#x197;" horiz-adv-x="643" 
d="M602 622h-162v-622h-238v622h-161v209h161v603h238v-603h162v-209z" />
    <glyph glyph-name="uni0198" unicode="&#x198;" horiz-adv-x="1251" 
d="M1262 0h-312l-497 649q-28 36 -34 49h-5v-698h-237v1434h237v-671h5l308 418q137 187 209 232t162 45q62 0 123 -26v-214q-50 30 -105 30q-71 0 -175 -140l-281 -366z" />
    <glyph glyph-name="uni0199" unicode="&#x199;" horiz-adv-x="1076" 
d="M1080 0h-294l-399 499h-4v-499h-232v1172q0 167 97 266.5t248 99.5q85 0 141 -20v-192q-55 27 -108 27q-146 0 -146 -186v-614h4l374 471h287l-427 -489z" />
    <glyph glyph-name="uni019A" unicode="&#x19a;" horiz-adv-x="573" 
d="M552 699h-149v-699h-233v699h-150v169h150v648h233v-648h149v-169z" />
    <glyph glyph-name="uni019B" unicode="&#x19b;" horiz-adv-x="1067" 
d="M1040 0h-245l-244 774l-299 -774h-251l456 1011l-17 45l-249 -122l-65 128l267 128q-50 124 -146 124q-66 0 -130 -27v206q74 20 160 20q114 0 184 -50.5t129 -177.5l222 108l63 -127l-233 -113z" />
    <glyph glyph-name="uni019C" unicode="&#x19c;" horiz-adv-x="1901" 
d="M1723 0h-236v173h-4q-111 -197 -328 -197q-221 0 -295 215q-115 -215 -346 -215q-341 0 -341 462v996h237v-939q0 -157 44.5 -231.5t153.5 -74.5q92 0 156.5 86.5t64.5 207.5v951h238v-972q0 -270 189 -270q99 0 163.5 82t64.5 212v948h239v-1434z" />
    <glyph glyph-name="uni019D" unicode="&#x19d;" horiz-adv-x="1571" 
d="M1394 0h-261l-687 1054q-26 40 -43 83h-6q9 -42 9 -181v-901q0 -435 -374 -435q-75 0 -138 23v213q51 -28 114 -28q169 0 169 258v1348h276l662 -1030q41 -64 53 -88h4q-9 57 -9 193v925h231v-1434z" />
    <glyph glyph-name="uni019E" unicode="&#x19e;" horiz-adv-x="1204" 
d="M1063 -434h-234v1004q0 287 -205 287q-106 0 -173.5 -84.5t-67.5 -211.5v-561h-232v669q0 257 -20 355h235q17 -69 17 -169h2q110 193 335 193q166 0 254.5 -107.5t88.5 -311.5v-1063z" />
    <glyph glyph-name="uni019F" unicode="&#x19f;" 
d="M766 -24q-309 0 -495 200.5t-186 522.5q0 346 189.5 552.5t515.5 206.5q303 0 488 -201t185 -526q0 -349 -189.5 -552t-507.5 -203zM1207 812q-16 209 -128 323t-299 114q-181 0 -300 -119t-138 -318h865zM1208 617h-866q18 -199 134.5 -316t293.5 -117q190 0 306 113.5
t132 319.5z" />
    <glyph glyph-name="Ohorn" unicode="&#x1a0;" horiz-adv-x="1575" 
d="M1161 1356q48 -10 80 -10q204 0 204 131q0 67 -20 121h161q21 -54 21 -134q0 -110 -70 -178.5t-192 -68.5h-34q152 -192 152 -482q0 -351 -189.5 -555t-507.5 -204q-309 0 -495 201t-186 523q0 346 189.5 552t515.5 206q213 0 371 -102zM778 1249q-198 0 -321 -147.5
t-123 -386.5t120 -385t312 -146q208 0 327.5 139t119.5 389q0 257 -116 397t-319 140z" />
    <glyph glyph-name="ohorn" unicode="&#x1a1;" horiz-adv-x="1253" 
d="M1047 1276h160q21 -55 21 -134q0 -198 -223 -239q133 -139 133 -387q0 -245 -144.5 -392.5t-387.5 -147.5q-237 0 -379 143.5t-142 380.5q0 258 146 403t394 145q45 0 126 -14q57 -10 160 -10q66 0 110.5 38t44.5 92q0 68 -19 122zM616 863q-135 0 -214 -95t-79 -262
q0 -161 80 -253.5t214 -92.5q137 0 210.5 91t73.5 259q0 169 -73.5 261t-211.5 92z" />
    <glyph glyph-name="uni01A2" unicode="&#x1a2;" horiz-adv-x="2065" 
d="M1888 0h-238v1200q-112 -18 -236 -18q-52 0 -127 9v-1094q-260 -121 -503 -121q-318 0 -508.5 199.5t-190.5 523.5q0 332 200.5 545.5t522.5 213.5q120 0 325 -36q204 -37 320 -37q233 0 435 73v-1458zM1050 229v995q-170 25 -249 25q-206 0 -335.5 -148t-129.5 -388
q0 -241 126.5 -386.5t333.5 -145.5q135 0 254 48z" />
    <glyph glyph-name="uni01A3" unicode="&#x1a3;" horiz-adv-x="1675" 
d="M1524 0h-229v813q-80 -16 -153 -16q-71 0 -140 9v-748q-189 -82 -388 -82q-241 0 -385 142t-144 385q0 250 152.5 397.5t396.5 147.5q92 0 258 -33t258 -33q189 0 374 66v-1048zM776 185v660q-97 18 -151 18q-137 0 -221.5 -94.5t-84.5 -260.5q0 -163 84.5 -255.5
t228.5 -92.5q86 0 144 25z" />
    <glyph glyph-name="uni01A4" unicode="&#x1a4;" horiz-adv-x="1382" 
d="M598 520v-520h-238v1238h-26q-89 0 -137.5 -48.5t-48.5 -129.5q0 -60 20 -115h-214q-23 62 -23 134q0 153 113.5 254t301.5 101h410q266 0 412 -116t146 -326q0 -206 -142.5 -339t-383.5 -133h-190zM598 1238v-524h154q313 0 313 269q0 255 -294 255h-173z" />
    <glyph glyph-name="uni01A5" unicode="&#x1a5;" horiz-adv-x="1234" 
d="M387 134h-4v-605h-232v1643q0 166 94.5 266t243.5 100q89 0 148 -20v-192q-55 27 -108 27q-146 0 -146 -186v-312h4q114 193 343 193q196 0 307 -137t111 -370q0 -257 -124.5 -411t-340.5 -154q-194 0 -296 158zM381 551v-116q0 -114 71 -194.5t181 -80.5
q130 0 203.5 100.5t73.5 280.5q0 151 -69 236.5t-187 85.5q-121 0 -197 -88.5t-76 -223.5z" />
    <glyph glyph-name="uni01A6" unicode="&#x1a6;" horiz-adv-x="1235" 
d="M1192 -171h-277l-179 413q-81 200 -222 200h-100v-442h-237v1434h237v-172h225q224 0 350 -103.5t126 -280.5q0 -289 -321 -366v-4q100 -58 181 -215zM414 1068v-434h182q123 0 195.5 57t72.5 160q0 217 -251 217h-199z" />
    <glyph glyph-name="uni01A7" unicode="&#x1a7;" horiz-adv-x="1115" 
d="M1004 57q-30 -19 -79 -34t-104.5 -25.5t-108 -16t-89.5 -5.5q-106 0 -203 21.5t-171.5 69.5t-118 125.5t-43.5 188.5q0 82 30.5 144.5t82 114.5t120 94.5t144.5 81.5q71 33 124.5 60t91 56t57 65t19.5 84q0 49 -24.5 83t-63.5 55.5t-88 31t-100 9.5q-203 0 -332 -88v235
q105 51 331 51q98 0 193 -24t169 -73.5t119.5 -125.5t45.5 -179q0 -81 -26.5 -140.5t-73.5 -107t-110 -87t-136 -77.5q-69 -32 -128.5 -61t-103 -61t-68 -70.5t-24.5 -90.5q0 -91 69.5 -139.5t209.5 -48.5q45 0 99 9t107 26t101 42t82 55v-248z" />
    <glyph glyph-name="uni01A8" unicode="&#x1a8;" horiz-adv-x="883" 
d="M796 32q-123 -56 -291 -56q-85 0 -164 19t-139.5 58.5t-96.5 98.5t-36 140q0 62 20 107t57 79.5t90.5 62t118.5 53.5q49 17 88 32t66 33t41 41t14 58q0 26 -13 48t-36.5 37.5t-56.5 24t-74 8.5q-148 0 -261 -72v201q113 43 255 43q80 0 155 -20t133.5 -59t93.5 -97
t35 -133q0 -59 -16.5 -103t-49.5 -79t-82.5 -62.5t-114.5 -54.5q-49 -17 -91.5 -32t-74 -34t-50 -44t-18.5 -61q0 -121 200 -121q164 0 298 96v-212z" />
    <glyph glyph-name="uni01A9" unicode="&#x1a9;" horiz-adv-x="1106" 
d="M44 0zM1061 0h-1017v120l464 613l-429 568v133h920v-205h-581l368 -487l-404 -544h679v-198z" />
    <glyph glyph-name="uni01AA" unicode="&#x1aa;" horiz-adv-x="754" 
d="M776 -447q-68 -35 -177 -35q-293 0 -293 326v1149q-67 -30 -145 -30q-120 0 -202.5 80t-82.5 202q0 123 90 208.5t225 85.5q162 0 254 -102.5t92 -281.5v-1269q0 -182 137 -182q56 0 102 31v-182zM306 1177v13q0 166 -119 166q-44 0 -73.5 -30t-29.5 -73t32.5 -72.5
t83.5 -29.5q56 0 106 26z" />
    <glyph glyph-name="uni01AB" unicode="&#x1ab;" horiz-adv-x="741" 
d="M690 -52q0 -152 -87.5 -241.5t-231.5 -89.5q-71 0 -132 27v182q56 -32 121 -32q137 0 137 145v37q-284 0 -284 362v504h-171v182h171v236q108 32 231 70v-306h246v-182h-246v-505q0 -95 32 -136t109 -41q59 0 105 32v-244z" />
    <glyph glyph-name="uni01AC" unicode="&#x1ac;" horiz-adv-x="1178" 
d="M1143 1232h-412v-1232h-238v1232h-142q-83 0 -129.5 -45.5t-46.5 -123.5q0 -56 19 -107h-209q-22 58 -22 126q0 153 112.5 252.5t299.5 99.5h768v-202z" />
    <glyph glyph-name="uni01AD" unicode="&#x1ad;" horiz-adv-x="741" 
d="M691 6q-68 -29 -179 -29q-298 0 -298 321v544h-172v182h172v192q0 148 84 235.5t228 87.5q88 0 165 -31v-187q-57 33 -117 33q-129 0 -129 -184v-146h246v-182h-246v-504q0 -95 32 -136t109 -41q59 0 105 32v-187z" />
    <glyph glyph-name="uni01AE" unicode="&#x1ae;" horiz-adv-x="1132" 
d="M1097 1232h-412v-1177q0 -230 165 -230q69 0 120 23v-202q-66 -30 -155 -30q-368 0 -368 429v1187h-412v202h1062v-202z" />
    <glyph glyph-name="Uhorn" unicode="&#x1af;" horiz-adv-x="1519" 
d="M1280 598q0 -622 -574 -622q-547 0 -547 603v855h238v-851q0 -399 327 -399q318 0 318 385v865h216q60 0 100 35.5t40 84.5q0 74 -19 132h161q18 -56 18 -136q0 -218 -278 -250v-702z" />
    <glyph glyph-name="uhorn" unicode="&#x1b0;" horiz-adv-x="1278" 
d="M1044 0h-232v159h-4q-100 -181 -318 -181q-359 0 -359 435v611h232v-588q0 -276 214 -276q103 0 169 76t66 199v589h197q56 0 94 39t38 94q0 66 -20 119h157q18 -53 18 -128q0 -212 -252 -250v-898z" />
    <glyph glyph-name="uni01B1" unicode="&#x1b1;" horiz-adv-x="1555" 
d="M438 1235h-348v199h556v-199q-307 -235 -307 -584q0 -219 120.5 -344t313.5 -125q196 0 319 127t123 347q0 344 -307 579v199h555v-199h-343q348 -227 348 -612q0 -298 -185.5 -472.5t-504.5 -174.5q-312 0 -500 173t-188 476q0 385 348 610z" />
    <glyph glyph-name="uni01B2" unicode="&#x1b2;" horiz-adv-x="1523" 
d="M175 1434h238v-836q0 -414 319 -414q201 0 330 181t129 446q0 442 -254 442q-79 0 -149 -31v207q86 29 184 29q211 0 336.5 -172.5t125.5 -462.5q0 -354 -202 -600.5t-511 -246.5q-546 0 -546 598v860z" />
    <glyph glyph-name="uni01B3" unicode="&#x1b3;" horiz-adv-x="1212" 
d="M1204 1434l-471 -913v-521h-238v516l-294 599q-70 134 -162 134q-56 0 -102 -28v212q67 25 132 25q114 0 192.5 -52.5t147.5 -194.5l182 -391l32 -84h2q10 35 34 83l293 615h252z" />
    <glyph glyph-name="uni01B4" unicode="&#x1b4;" horiz-adv-x="1131" 
d="M1178 837q-51 25 -103 25q-97 0 -160 -161l-336 -864q-144 -316 -408 -316q-75 0 -122 17v194q60 -27 115 -27q124 0 186 143l70 158l-415 1018h258l244 -745q9 -27 19 -74h5q5 26 19 77l184 514q111 252 324 252q55 0 120 -21v-190z" />
    <glyph glyph-name="uni01B5" unicode="&#x1b5;" horiz-adv-x="1202" 
d="M1155 1330l-348 -501h238v-201h-380l-296 -427h776v-201h-1109v109l363 519h-204v201h350l280 403h-729v202h1059v-104z" />
    <glyph glyph-name="uni01B6" unicode="&#x1b6;" horiz-adv-x="951" 
d="M907 927l-240 -323h165v-165h-287l-191 -258h551v-181h-876l1 89l262 350h-143v165h266l179 238h-511v182h824v-97z" />
    <glyph glyph-name="uni01B7" unicode="&#x1b7;" horiz-adv-x="1304" 
d="M24 -369v243q233 -147 464 -147q214 0 347.5 108t133.5 281q0 183 -148.5 284.5t-410.5 101.5h-90v125l482 605h-755v202h1084v-123l-495 -620q265 -23 423.5 -176t158.5 -393q0 -263 -209 -433.5t-522 -170.5q-242 0 -463 113z" />
    <glyph glyph-name="uni01B8" unicode="&#x1b8;" horiz-adv-x="1304" 
d="M1279 -369q-221 -113 -482 -113q-313 0 -512.5 162.5t-199.5 425.5q0 238 162 400t420 185l-495 620v123h1084v-202h-751l480 -605v-125h-116q-247 0 -390.5 -103t-143.5 -283q0 -173 133 -281t346 -108q250 0 465 135v-231z" />
    <glyph glyph-name="uni01B9" unicode="&#x1b9;" horiz-adv-x="955" 
d="M983 -393q-164 -87 -379 -87q-256 0 -417.5 126t-161.5 333q0 178 121.5 305.5t324.5 156.5l-380 485v98h858v-182h-554l364 -476v-87h-102q-185 0 -290.5 -76.5t-105.5 -211.5q0 -126 100 -206t256 -80q204 0 366 106v-204z" />
    <glyph glyph-name="uni01BA" unicode="&#x1ba;" horiz-adv-x="871" 
d="M693 -219v-198q-137 -64 -323 -64q-179 0 -278.5 68.5t-99.5 189.5q0 209 325 317q148 46 205 92t57 122q0 74 -73 116.5t-205 42.5h-83v97l258 282h-457v178h756v-114l-282 -299q152 -17 236 -95.5t84 -203.5q0 -127 -86.5 -215t-290.5 -157q-136 -43 -177 -73t-41 -76
q0 -92 172 -92q167 0 303 82z" />
    <glyph glyph-name="uni01BB" unicode="&#x1bb;" horiz-adv-x="1137" 
d="M1002 547h-311l-318 -348h628v-199h-900v191l331 356h-221v190h392q86 98 119.5 162.5t33.5 134.5q0 110 -65 172t-182 62q-186 0 -360 -157v220q163 127 394 127q208 0 327 -106.5t119 -287.5q0 -153 -138 -327h151v-190z" />
    <glyph glyph-name="uni01BC" unicode="&#x1bc;" horiz-adv-x="1137" 
d="M164 35v218q150 -93 305 -93q138 0 221.5 75t83.5 197q0 123 -88 191.5t-251 68.5q-52 0 -131 -6q-99 -8 -106 -8l82 558h-158v198h824v-198h-459l-51 -360q61 5 103 5q226 0 349 -114.5t123 -315.5q0 -214 -141 -344.5t-387 -130.5q-203 0 -319 59z" />
    <glyph glyph-name="uni01BD" unicode="&#x1bd;" horiz-adv-x="837" 
d="M95 20v195q115 -67 239 -67q91 0 147.5 44.5t56.5 115.5q0 69 -61 111.5t-170 42.5q-23 0 -189 -12l53 393h-109v181h677v-181h-368l-29 -211q56 4 78 4q155 0 255 -82t100 -227q0 -155 -114 -253t-304 -98q-175 0 -262 44z" />
    <glyph glyph-name="uni01BE" unicode="&#x1be;" horiz-adv-x="849" 
d="M107 32v212q123 -96 278 -96q175 0 175 121q0 41 -25 75t-137 90q-145 70 -190.5 141.5t-45.5 172.5v94h-130v182h130v253l232 54v-307h246v-182h-246v-76q0 -58 25.5 -94.5t99.5 -74.5q149 -70 209 -143t60 -170q0 -135 -109.5 -221.5t-298.5 -86.5q-161 0 -273 56z" />
    <glyph glyph-name="uni01BF" unicode="&#x1bf;" horiz-adv-x="1166" 
d="M383 -49v-422h-232v1495h232v-129q165 153 352 153q157 0 261 -107.5t104 -267.5q0 -214 -190.5 -405.5t-526.5 -316.5zM383 702v-541q213 83 348 214t135 279q0 87 -52 144t-138 57q-135 0 -293 -153z" />
    <glyph glyph-name="uni01C0" unicode="&#x1c0;" horiz-adv-x="570" 
d="M383 -482h-194v2048h194v-2048z" />
    <glyph glyph-name="uni01C1" unicode="&#x1c1;" horiz-adv-x="938" 
d="M752 -482h-195v2048h195v-2048zM383 -482h-194v2048h194v-2048z" />
    <glyph glyph-name="uni01C2" unicode="&#x1c2;" horiz-adv-x="990" 
d="M934 284h-342v-766h-195v766h-342v181h342v275h-342v181h342v645h195v-645h342v-181h-342v-275h342v-181z" />
    <glyph glyph-name="uni01C3" unicode="&#x1c3;" horiz-adv-x="622" 
d="M167 0zM422 1434l-19 -1012h-190l-26 1012h235zM311 -20q-60 0 -102 38.5t-42 93.5q0 57 42 97t102 40q58 0 100.5 -40t42.5 -97q0 -55 -42.5 -93.5t-100.5 -38.5z" />
    <glyph glyph-name="uni01C4" unicode="&#x1c4;" horiz-adv-x="2592" 
d="M177 0zM177 0v1434h414q793 0 793 -699q0 -332 -220 -533.5t-590 -201.5h-397zM414 1232v-1031h190q251 0 390.5 138t139.5 390q0 503 -521 503h-199zM2545 1330l-786 -1129h776v-201h-1109v109l789 1123h-728v202h1058v-104zM2339 1890l-224 -327h-185l-224 327h155
l160 -210l161 210h157z" />
    <glyph glyph-name="uni01C5" unicode="&#x1c5;" horiz-adv-x="2397" 
d="M177 0zM177 0v1434h414q793 0 793 -699q0 -332 -220 -533.5t-590 -201.5h-397zM414 1232v-1031h190q251 0 390.5 138t139.5 390q0 503 -521 503h-199zM2353 927l-553 -746h551v-181h-876v87l565 756h-511v181h824v-97zM2275 1531l-224 -327h-185l-224 327h155l160 -210
l161 210h157z" />
    <glyph glyph-name="uni01C6" unicode="&#x1c6;" horiz-adv-x="2155" 
d="M85 0zM1082 0h-232v174h-4q-112 -198 -345 -198q-189 0 -302.5 137.5t-113.5 374.5q0 254 125.5 407t334.5 153q207 0 301 -166h4v634h232v-1516zM853 468v134q0 109 -71 185t-181 76q-130 0 -204.5 -97t-74.5 -269q0 -156 71.5 -246.5t192.5 -90.5q119 0 193 87.5
t74 220.5zM2111 927l-553 -746h551v-181h-876v87l565 756h-511v181h824v-97zM2034 1531l-224 -327h-185l-224 327h155l160 -210l161 210h157z" />
    <glyph glyph-name="uni01C7" unicode="&#x1c7;" horiz-adv-x="1753" 
d="M177 0zM971 0h-794v1434h238v-1233h556v-201zM1670 514q0 -255 -126 -396.5t-336 -141.5q-98 0 -161 23v224q57 -39 147 -39q238 0 238 368v882h238v-920z" />
    <glyph glyph-name="uni01C8" unicode="&#x1c8;" horiz-adv-x="1474" 
d="M177 0zM971 0h-794v1434h238v-1233h556v-201zM1362 43q0 -252 -106 -388.5t-303 -136.5q-73 0 -142 32v199q65 -45 123 -45q196 0 196 346v974h232v-981zM1248 1239q-57 0 -97.5 37t-40.5 94t40.5 95t97.5 38q58 0 99 -38t41 -95q0 -54 -41 -92.5t-99 -38.5z" />
    <glyph glyph-name="uni01C9" unicode="&#x1c9;" horiz-adv-x="1088" 
d="M151 0zM384 0h-233v1516h233v-1516zM935 43q0 -252 -106 -388.5t-303 -136.5q-73 0 -142 32v199q65 -45 123 -45q196 0 196 346v974h232v-981zM821 1239q-57 0 -97.5 37t-40.5 94t40.5 95t97.5 38q58 0 99 -38t41 -95q0 -54 -41 -92.5t-99 -38.5z" />
    <glyph glyph-name="uni01CA" unicode="&#x1ca;" horiz-adv-x="2317" 
d="M177 0zM1393 0h-260l-685 1054q-26 40 -43 83h-6q8 -46 8 -197v-940h-230v1434h277l662 -1029q42 -64 54 -88h4q-10 57 -10 193v924h229v-1434zM2153 514q0 -255 -126 -396.5t-336 -141.5q-98 0 -161 23v224q57 -39 147 -39q238 0 238 368v882h238v-920z" />
    <glyph glyph-name="uni01CB" unicode="&#x1cb;" horiz-adv-x="2066" 
d="M177 0zM1393 0h-260l-685 1054q-26 40 -43 83h-6q8 -46 8 -197v-940h-230v1434h277l662 -1029q42 -64 54 -88h4q-10 57 -10 193v924h229v-1434zM1914 43q0 -252 -106 -388.5t-303 -136.5q-73 0 -142 32v199q65 -45 123 -45q196 0 196 346v974h232v-981zM1800 1239
q-57 0 -97.5 37t-40.5 94t40.5 95t97.5 38q58 0 99 -38t41 -95q0 -54 -41 -92.5t-99 -38.5z" />
    <glyph glyph-name="uni01CC" unicode="&#x1cc;" horiz-adv-x="1737" 
d="M151 0zM1063 0h-232v577q0 287 -203 287q-106 0 -175 -79.5t-69 -200.5v-584h-233v1024h233v-170h4q115 194 332 194q167 0 255 -108.5t88 -313.5v-626zM1585 43q0 -252 -106 -388.5t-303 -136.5q-73 0 -142 32v199q65 -45 123 -45q196 0 196 346v974h232v-981z
M1471 1239q-57 0 -97.5 37t-40.5 94t40.5 95t97.5 38q58 0 99 -38t41 -95q0 -54 -41 -92.5t-99 -38.5z" />
    <glyph glyph-name="uni01CD" unicode="&#x1cd;" horiz-adv-x="1375" 
d="M17 0zM1355 0h-261l-129 365h-564l-124 -365h-260l537 1434h268zM902 559l-199 572q-9 28 -19 90h-4q-9 -57 -20 -90l-197 -572h439zM1001 1886l-224 -327h-185l-224 327h155l160 -210l161 210h157z" />
    <glyph glyph-name="uni01CE" unicode="&#x1ce;" horiz-adv-x="1069" 
d="M75 0zM937 0h-225v160h-4q-106 -184 -311 -184q-151 0 -236.5 82t-85.5 217q0 290 334 338l304 43q0 219 -208 219q-183 0 -330 -126v203q162 96 374 96q388 0 388 -382v-666zM713 503l-215 -30q-100 -13 -150.5 -48.5t-50.5 -124.5q0 -65 46.5 -106.5t124.5 -41.5
q106 0 175.5 74.5t69.5 187.5v89zM841 1527l-224 -327h-185l-224 327h155l160 -210l161 210h157z" />
    <glyph glyph-name="uni01CF" unicode="&#x1cf;" horiz-adv-x="592" 
d="M0 0zM546 1434v-192h-131v-1050h131v-192h-500v192h131v1050h-131v192h500zM615 1886l-224 -327h-185l-224 327h155l160 -210l161 210h157z" />
    <glyph glyph-name="uni01D0" unicode="&#x1d0;" horiz-adv-x="535" 
d="M0 0zM384 0h-233v1024h233v-1024zM585 1527l-224 -327h-185l-224 327h155l160 -210l161 210h157z" />
    <glyph glyph-name="uni01D1" unicode="&#x1d1;" 
d="M85 0zM768 -24q-310 0 -496.5 201t-186.5 523q0 346 190 552t516 206q302 0 486.5 -200t184.5 -523q0 -351 -189 -555t-505 -204zM779 1249q-197 0 -320.5 -147t-123.5 -387q0 -239 120 -385t314 -146q206 0 325 139t119 389q0 257 -115.5 397t-318.5 140zM1090 1886
l-224 -327h-185l-224 327h155l160 -210l161 210h157z" />
    <glyph glyph-name="uni01D2" unicode="&#x1d2;" horiz-adv-x="1223" 
d="M85 0zM605 -24q-237 0 -378.5 143.5t-141.5 380.5q0 258 147.5 403t397.5 145q240 0 374 -141t134 -391q0 -245 -144.5 -392.5t-388.5 -147.5zM616 863q-136 0 -215 -95t-79 -262q0 -161 80 -253.5t214 -92.5q137 0 210.5 91t73.5 259q0 169 -73.5 261t-210.5 92z
M928 1527l-224 -327h-185l-224 327h155l160 -210l161 210h157z" />
    <glyph glyph-name="uni01D3" unicode="&#x1d3;" horiz-adv-x="1440" 
d="M160 0zM1280 580q0 -604 -572 -604q-548 0 -548 581v877h238v-828q0 -422 328 -422q316 0 316 407v843h238v-854zM1052 1886l-224 -327h-185l-224 327h155l160 -210l161 210h157z" />
    <glyph glyph-name="uni01D4" unicode="&#x1d4;" horiz-adv-x="1195" 
d="M131 0zM1044 0h-232v162h-4q-101 -186 -314 -186q-363 0 -363 436v612h232v-588q0 -276 213 -276q103 0 169.5 76t66.5 199v589h232v-1024zM913 1527l-224 -327h-185l-224 327h155l160 -210l161 210h157z" />
    <glyph glyph-name="uni01D5" unicode="&#x1d5;" horiz-adv-x="1440" 
d="M160 0zM1280 580q0 -604 -572 -604q-548 0 -548 581v877h238v-828q0 -422 328 -422q316 0 316 407v843h238v-854zM986 1849h-543v137h543v-137zM907 1573q-43 0 -74 29t-31 74q0 44 32 73t75 29q46 0 78 -29.5t32 -72.5t-32 -73t-80 -30zM523 1573q-46 0 -80 29.5
t-34 73.5t31.5 73t77.5 29q45 0 77.5 -29.5t32.5 -72.5t-30.5 -73t-74.5 -30z" />
    <glyph glyph-name="uni01D6" unicode="&#x1d6;" horiz-adv-x="1195" 
d="M131 0zM1044 0h-232v162h-4q-101 -186 -314 -186q-363 0 -363 436v612h232v-588q0 -276 213 -276q103 0 169.5 76t66.5 199v589h232v-1024zM871 1494h-543v137h543v-137zM792 1218q-43 0 -74 29t-31 74q0 44 32 73t75 29q46 0 78 -29.5t32 -72.5t-32 -73t-80 -30z
M408 1218q-46 0 -80 29.5t-34 73.5t31.5 73t77.5 29q45 0 77.5 -29.5t32.5 -72.5t-30.5 -73t-74.5 -30z" />
    <glyph glyph-name="uni01D7" unicode="&#x1d7;" horiz-adv-x="1440" 
d="M160 0zM1280 580q0 -604 -572 -604q-548 0 -548 581v877h238v-828q0 -422 328 -422q316 0 316 407v843h238v-854zM1061 2145l-286 -326h-171l240 326h217zM908 1571q-44 0 -76 29t-32 74q0 44 30.5 73t76.5 29t78 -29.5t32 -72.5t-31 -73t-78 -30zM499 1571
q-45 0 -77.5 29.5t-32.5 73.5q0 43 31.5 72.5t77.5 29.5q45 0 77.5 -29.5t32.5 -72.5t-32 -73t-77 -30z" />
    <glyph glyph-name="uni01D8" unicode="&#x1d8;" horiz-adv-x="1195" 
d="M131 0zM1044 0h-232v162h-4q-101 -186 -314 -186q-363 0 -363 436v612h232v-588q0 -276 213 -276q103 0 169.5 76t66.5 199v589h232v-1024zM937 1783l-286 -326h-171l240 326h217zM784 1209q-44 0 -76 29t-32 74q0 44 30.5 73t76.5 29t78 -29.5t32 -72.5t-31 -73t-78 -30
zM375 1209q-45 0 -77.5 29.5t-32.5 73.5q0 43 31.5 72.5t77.5 29.5q45 0 77.5 -29.5t32.5 -72.5t-32 -73t-77 -30z" />
    <glyph glyph-name="uni01D9" unicode="&#x1d9;" horiz-adv-x="1440" 
d="M160 0zM1280 580q0 -604 -572 -604q-548 0 -548 581v877h238v-828q0 -422 328 -422q316 0 316 407v843h238v-854zM1037 2159l-224 -328h-185l-224 328h155l161 -211l160 211h157zM916 1571q-44 0 -76 29t-32 74q0 44 30.5 73t76.5 29t77.5 -29.5t31.5 -72.5t-31 -73
t-77 -30zM525 1571q-45 0 -77.5 29.5t-32.5 73.5q0 43 31.5 72.5t77.5 29.5q45 0 77.5 -29.5t32.5 -72.5t-32 -73t-77 -30z" />
    <glyph glyph-name="uni01DA" unicode="&#x1da;" horiz-adv-x="1195" 
d="M131 0zM1044 0h-232v162h-4q-101 -186 -314 -186q-363 0 -363 436v612h232v-588q0 -276 213 -276q103 0 169.5 76t66.5 199v589h232v-1024zM913 1797l-224 -328h-185l-224 328h155l161 -211l160 211h157zM792 1209q-44 0 -76 29t-32 74q0 44 30.5 73t76.5 29t77.5 -29.5
t31.5 -72.5t-31 -73t-77 -30zM401 1209q-45 0 -77.5 29.5t-32.5 73.5q0 43 31.5 72.5t77.5 29.5q45 0 77.5 -29.5t32.5 -72.5t-32 -73t-77 -30z" />
    <glyph glyph-name="uni01DB" unicode="&#x1db;" horiz-adv-x="1440" 
d="M160 0zM1280 580q0 -604 -572 -604q-548 0 -548 581v877h238v-828q0 -422 328 -422q316 0 316 407v843h238v-854zM830 1819h-172l-286 326h217zM934 1571q-45 0 -76.5 30t-31.5 73t32 72.5t77 29.5q46 0 77.5 -29.5t31.5 -72.5q0 -44 -32.5 -73.5t-77.5 -29.5zM525 1571
q-46 0 -77.5 30t-31.5 73t32 72.5t78 29.5q43 0 75 -29t32 -73q0 -45 -32 -74t-76 -29z" />
    <glyph glyph-name="uni01DC" unicode="&#x1dc;" horiz-adv-x="1195" 
d="M131 0zM1044 0h-232v162h-4q-101 -186 -314 -186q-363 0 -363 436v612h232v-588q0 -276 213 -276q103 0 169.5 76t66.5 199v589h232v-1024zM708 1457h-172l-286 326h217zM812 1209q-45 0 -76.5 30t-31.5 73t32 72.5t77 29.5q46 0 77.5 -29.5t31.5 -72.5
q0 -44 -32.5 -73.5t-77.5 -29.5zM403 1209q-46 0 -77.5 30t-31.5 73t32 72.5t78 29.5q43 0 75 -29t32 -73q0 -45 -32 -74t-76 -29z" />
    <glyph glyph-name="uni01DD" unicode="&#x1dd;" horiz-adv-x="1088" 
d="M70 575h698q-5 142 -85.5 219.5t-224.5 77.5q-168 0 -308 -99v187q136 88 360 88q230 0 361 -138t131 -389q0 -243 -140.5 -394t-348.5 -151q-213 0 -328 136t-115 374v89zM768 411h-474q2 -126 59.5 -195t161.5 -69q99 0 168 73t85 191z" />
    <glyph glyph-name="uni01DE" unicode="&#x1de;" horiz-adv-x="1375" 
d="M17 0zM1355 0h-261l-129 365h-564l-124 -365h-260l537 1434h268zM902 559l-199 572q-9 28 -19 90h-4q-9 -57 -20 -90l-197 -572h439zM952 1849h-543v137h543v-137zM873 1573q-43 0 -74 29t-31 74q0 44 32 73t75 29q46 0 78 -29.5t32 -72.5t-32 -73t-80 -30zM489 1573
q-46 0 -80 29.5t-34 73.5t31.5 73t77.5 29q45 0 77.5 -29.5t32.5 -72.5t-30.5 -73t-74.5 -30z" />
    <glyph glyph-name="uni01DF" unicode="&#x1df;" horiz-adv-x="1069" 
d="M75 0zM937 0h-225v160h-4q-106 -184 -311 -184q-151 0 -236.5 82t-85.5 217q0 290 334 338l304 43q0 219 -208 219q-183 0 -330 -126v203q162 96 374 96q388 0 388 -382v-666zM713 503l-215 -30q-100 -13 -150.5 -48.5t-50.5 -124.5q0 -65 46.5 -106.5t124.5 -41.5
q106 0 175.5 74.5t69.5 187.5v89zM792 1494h-543v137h543v-137zM713 1218q-43 0 -74 29t-31 74q0 44 32 73t75 29q46 0 78 -29.5t32 -72.5t-32 -73t-80 -30zM329 1218q-46 0 -80 29.5t-34 73.5t31.5 73t77.5 29q45 0 77.5 -29.5t32.5 -72.5t-30.5 -73t-74.5 -30z" />
    <glyph glyph-name="uni01E0" unicode="&#x1e0;" horiz-adv-x="1375" 
d="M17 0zM1355 0h-261l-129 365h-564l-124 -365h-260l537 1434h268zM902 559l-199 572q-9 28 -19 90h-4q-9 -57 -20 -90l-197 -572h439zM953 1846h-543v137h543v-137zM681 1573q-44 0 -76 29.5t-32 73.5q0 43 32 72t76 29q46 0 77.5 -29t31.5 -72t-31.5 -73t-77.5 -30z" />
    <glyph glyph-name="uni01E1" unicode="&#x1e1;" horiz-adv-x="1069" 
d="M75 0zM937 0h-225v160h-4q-106 -184 -311 -184q-151 0 -236.5 82t-85.5 217q0 290 334 338l304 43q0 219 -208 219q-183 0 -330 -126v203q162 96 374 96q388 0 388 -382v-666zM713 503l-215 -30q-100 -13 -150.5 -48.5t-50.5 -124.5q0 -65 46.5 -106.5t124.5 -41.5
q106 0 175.5 74.5t69.5 187.5v89zM777 1491h-543v137h543v-137zM505 1218q-44 0 -76 29.5t-32 73.5q0 43 32 72t76 29q46 0 77.5 -29t31.5 -72t-31.5 -73t-77.5 -30z" />
    <glyph glyph-name="uni01E2" unicode="&#x1e2;" horiz-adv-x="1831" 
d="M6 0zM1749 0h-804v365h-492l-172 -365h-275l710 1434h1000v-202h-534v-406h497v-201h-497v-424h567v-201zM945 559v673h-87l-317 -673h404zM1483 1575h-543v137h543v-137z" />
    <glyph glyph-name="uni01E3" unicode="&#x1e3;" horiz-adv-x="1700" 
d="M75 0zM1630 449h-699q3 -142 85 -219.5t225 -77.5q171 0 310 99v-186q-135 -89 -367 -89q-275 0 -390 206h-4q-140 -206 -372 -206q-160 0 -251.5 82.5t-91.5 220.5q0 306 379 331l259 16q0 250 -201 250q-178 0 -336 -115v196q152 91 357 91q240 0 311 -170h4
q114 170 349 170q206 0 319.5 -135.5t113.5 -376.5v-87zM1406 613q-2 127 -59 195.5t-160 68.5q-98 0 -168.5 -72t-86.5 -192h474zM713 412v55l-177 -11q-121 -7 -180.5 -43t-59.5 -119q0 -64 46.5 -103t125.5 -39q103 0 174 74t71 186zM1126 1214h-543v137h543v-137z" />
    <glyph glyph-name="uni01E4" unicode="&#x1e4;" horiz-adv-x="1428" 
d="M1437 322h-141v-225q-224 -121 -498 -121q-319 0 -516 197.5t-197 522.5q0 334 217.5 548t550.5 214q236 0 397 -70v-239q-173 104 -409 104q-222 0 -364 -151t-142 -392q0 -249 129.5 -391.5t351.5 -142.5q140 0 243 49v97h-301v162h301v127h-302v182h539v-309h141v-162
z" />
    <glyph glyph-name="uni01E5" unicode="&#x1e5;" horiz-adv-x="1234" 
d="M1233 -193h-192q-130 -288 -532 -288q-196 0 -342 66v207q180 -91 344 -91q199 0 284 106h-246v162h295q7 47 7 100v144h-4q-109 -186 -328 -186q-193 0 -313.5 133t-120.5 355q0 238 127.5 385.5t339.5 147.5q199 0 295 -156h4v132h232v-908q0 -78 -6 -147h156v-162z
M853 520v75q0 110 -72 189t-180 79q-130 0 -204.5 -91t-74.5 -249q0 -141 72.5 -225.5t188.5 -84.5q120 0 195 85.5t75 221.5z" />
    <glyph glyph-name="uni01E6" unicode="&#x1e6;" horiz-adv-x="1428" 
d="M85 0zM1296 98q-224 -122 -499 -122q-318 0 -515 198t-197 524q0 333 215.5 546.5t547.5 213.5q239 0 402 -70v-245q-165 110 -393 110q-229 0 -375.5 -151t-146.5 -391q0 -247 126 -388.5t342 -141.5q148 0 256 57v341h-302v200h539v-681zM1076 1886l-224 -327h-185
l-224 327h155l160 -210l161 210h157z" />
    <glyph glyph-name="uni01E7" unicode="&#x1e7;" horiz-adv-x="1234" 
d="M85 0zM1083 82q0 -564 -567 -564q-200 0 -349 67v212q168 -96 319 -96q365 0 365 359v112h-4q-115 -196 -346 -196q-187 0 -301.5 136.5t-114.5 366.5q0 261 123 415t338 154q203 0 301 -166h4v142h232v-942zM853 469v133q0 108 -71.5 184.5t-178.5 76.5
q-132 0 -206.5 -97.5t-74.5 -272.5q0 -151 71.5 -241.5t189.5 -90.5q120 0 195 86.5t75 221.5zM906 1527l-224 -327h-185l-224 327h155l160 -210l161 210h157z" />
    <glyph glyph-name="uni01E8" unicode="&#x1e8;" horiz-adv-x="1251" 
d="M177 0zM1262 0h-310l-499 656q-28 37 -34 50h-4v-706h-238v1434h238v-674h4q12 22 34 49l481 625h285l-563 -688zM957 1886l-224 -327h-185l-224 327h155l160 -210l161 210h157z" />
    <glyph glyph-name="uni01E9" unicode="&#x1e9;" horiz-adv-x="1075" 
d="M151 0zM1080 0h-294l-398 492h-4v-492h-233v1516h233v-961h4l376 469h279l-423 -494zM872 1886l-224 -327h-185l-224 327h155l160 -210l161 210h157z" />
    <glyph glyph-name="uni01EA" unicode="&#x1ea;" 
d="M85 0zM768 -24q-310 0 -496.5 201t-186.5 523q0 346 190 552t516 206q302 0 486.5 -200t184.5 -523q0 -351 -189 -555t-505 -204zM779 1249q-197 0 -320.5 -147t-123.5 -387q0 -239 120 -385t314 -146q206 0 325 139t119 389q0 257 -115.5 397t-318.5 140zM919 0
q-151 -137 -151 -216q0 -68 65 -68q36 0 68 13v-121q-38 -16 -105 -16q-78 0 -125.5 42t-47.5 116q0 122 161 250h135z" />
    <glyph glyph-name="uni01EB" unicode="&#x1eb;" horiz-adv-x="1223" 
d="M85 0zM605 -24q-237 0 -378.5 143.5t-141.5 380.5q0 258 147.5 403t397.5 145q240 0 374 -141t134 -391q0 -245 -144.5 -392.5t-388.5 -147.5zM616 863q-136 0 -215 -95t-79 -262q0 -161 80 -253.5t214 -92.5q137 0 210.5 91t73.5 259q0 169 -73.5 261t-210.5 92zM746 0
q-151 -137 -151 -216q0 -68 65 -68q36 0 68 13v-121q-38 -16 -105 -16q-78 0 -125.5 42t-47.5 116q0 122 161 250h135z" />
    <glyph glyph-name="uni01EC" unicode="&#x1ec;" 
d="M85 0zM768 -24q-310 0 -496.5 201t-186.5 523q0 346 190 552t516 206q302 0 486.5 -200t184.5 -523q0 -351 -189 -555t-505 -204zM779 1249q-197 0 -320.5 -147t-123.5 -387q0 -239 120 -385t314 -146q206 0 325 139t119 389q0 257 -115.5 397t-318.5 140zM919 0
q-151 -137 -151 -216q0 -68 65 -68q36 0 68 13v-121q-38 -16 -105 -16q-78 0 -125.5 42t-47.5 116q0 122 161 250h135zM1077 1567h-588v153h588v-153z" />
    <glyph glyph-name="uni01ED" unicode="&#x1ed;" horiz-adv-x="1223" 
d="M85 0zM605 -24q-237 0 -378.5 143.5t-141.5 380.5q0 258 147.5 403t397.5 145q240 0 374 -141t134 -391q0 -245 -144.5 -392.5t-388.5 -147.5zM616 863q-136 0 -215 -95t-79 -262q0 -161 80 -253.5t214 -92.5q137 0 210.5 91t73.5 259q0 169 -73.5 261t-210.5 92zM746 0
q-151 -137 -151 -216q0 -68 65 -68q36 0 68 13v-121q-38 -16 -105 -16q-78 0 -125.5 42t-47.5 116q0 122 161 250h135zM908 1204h-588v153h588v-153z" />
    <glyph glyph-name="uni01EE" unicode="&#x1ee;" horiz-adv-x="1304" 
d="M24 0zM24 -369v243q233 -147 464 -147q214 0 347.5 108t133.5 281q0 183 -148.5 284.5t-410.5 101.5h-90v125l482 605h-755v202h1084v-123l-495 -620q265 -23 423.5 -176t158.5 -393q0 -263 -209 -433.5t-522 -170.5q-242 0 -463 113zM875 1886l-224 -327h-185l-224 327
h155l160 -210l161 210h157z" />
    <glyph glyph-name="uni01EF" unicode="&#x1ef;" horiz-adv-x="955" 
d="M0 0zM-29 -393v212q167 -114 347 -114q164 0 269 81t105 210q0 133 -108 207.5t-309 74.5h-80v87l369 477h-560v182h858v-99l-379 -484q214 -26 329 -143t115 -297q0 -209 -171.5 -344.5t-432.5 -135.5q-191 0 -352 86zM726 1527l-224 -327h-185l-224 327h155l160 -210
l161 210h157z" />
    <glyph glyph-name="uni01F0" unicode="&#x1f0;" horiz-adv-x="535" 
d="M0 0zM383 31q0 -246 -106 -379t-303 -133q-73 0 -142 31v196q68 -42 129 -42q190 0 190 302v1018h232v-993zM584 1527l-224 -327h-185l-224 327h155l160 -210l161 210h157z" />
    <glyph glyph-name="uni01F1" unicode="&#x1f1;" horiz-adv-x="2589" 
d="M177 0zM177 0v1434h414q793 0 793 -699q0 -332 -220 -533.5t-590 -201.5h-397zM414 1232v-1031h190q251 0 390.5 138t139.5 390q0 503 -521 503h-199zM2542 1330l-786 -1129h776v-201h-1109v109l789 1123h-728v202h1058v-104z" />
    <glyph glyph-name="uni01F2" unicode="&#x1f2;" horiz-adv-x="2397" 
d="M177 0zM177 0v1434h414q793 0 793 -699q0 -332 -220 -533.5t-590 -201.5h-397zM414 1232v-1031h190q251 0 390.5 138t139.5 390q0 503 -521 503h-199zM2354 927l-553 -746h551v-181h-876v87l565 756h-511v181h824v-97z" />
    <glyph glyph-name="uni01F3" unicode="&#x1f3;" horiz-adv-x="2155" 
d="M85 0zM1082 0h-232v174h-4q-112 -198 -345 -198q-189 0 -302.5 137.5t-113.5 374.5q0 254 125.5 407t334.5 153q207 0 301 -166h4v634h232v-1516zM853 468v134q0 109 -71 185t-181 76q-130 0 -204.5 -97t-74.5 -269q0 -156 71.5 -246.5t192.5 -90.5q119 0 193 87.5
t74 220.5zM2112 927l-553 -746h551v-181h-876v87l565 756h-511v181h824v-97z" />
    <glyph glyph-name="uni01F4" unicode="&#x1f4;" horiz-adv-x="1428" 
d="M85 0zM1296 98q-224 -122 -499 -122q-318 0 -515 198t-197 524q0 333 215.5 546.5t547.5 213.5q239 0 402 -70v-245q-165 110 -393 110q-229 0 -375.5 -151t-146.5 -391q0 -247 126 -388.5t342 -141.5q148 0 256 57v341h-302v200h539v-681zM1148 1908l-286 -328h-172
l242 328h216z" />
    <glyph glyph-name="uni01F5" unicode="&#x1f5;" horiz-adv-x="1234" 
d="M85 0zM1083 82q0 -564 -567 -564q-200 0 -349 67v212q168 -96 319 -96q365 0 365 359v112h-4q-115 -196 -346 -196q-187 0 -301.5 136.5t-114.5 366.5q0 261 123 415t338 154q203 0 301 -166h4v142h232v-942zM853 469v133q0 108 -71.5 184.5t-178.5 76.5
q-132 0 -206.5 -97.5t-74.5 -272.5q0 -151 71.5 -241.5t189.5 -90.5q120 0 195 86.5t75 221.5zM938 1546l-286 -328h-172l242 328h216z" />
    <glyph glyph-name="uni01F6" unicode="&#x1f6;" horiz-adv-x="2122" 
d="M1994 458q0 -228 -127.5 -355t-352.5 -127q-223 0 -344 123t-121 349v174h-635v-622h-237v1434h237v-604h635v604h238v-976q0 -274 234 -274t234 271v569h239v-566z" />
    <glyph glyph-name="uni01F7" unicode="&#x1f7;" horiz-adv-x="1463" 
d="M441 -42v-429h-238v1905h238v-190q217 214 481 214q200 0 328 -137.5t128 -339.5q0 -314 -247.5 -582t-689.5 -441zM441 999v-804q309 129 498.5 332t189.5 433q0 123 -71 205t-189 82q-205 0 -428 -248z" />
    <glyph glyph-name="uni01F8" unicode="&#x1f8;" horiz-adv-x="1571" 
d="M177 0zM1393 0h-260l-685 1054q-26 40 -43 83h-6q8 -46 8 -197v-940h-230v1434h277l662 -1029q42 -64 54 -88h4q-10 57 -10 193v924h229v-1434zM928 1569h-173l-262 328h214z" />
    <glyph glyph-name="uni01F9" unicode="&#x1f9;" horiz-adv-x="1195" 
d="M151 0zM1063 0h-232v577q0 287 -203 287q-106 0 -175 -79.5t-69 -200.5v-584h-233v1024h233v-170h4q115 194 332 194q167 0 255 -108.5t88 -313.5v-626zM739 1204h-173l-262 328h214z" />
    <glyph glyph-name="Aringacute" unicode="&#x1fa;" horiz-adv-x="1375" 
d="M17 0zM1355 0h-261l-129 365h-564l-124 -365h-260l537 1434h268zM902 559l-199 572q-9 28 -19 90h-4q-9 -57 -20 -90l-197 -572h439zM679 1333q-94 0 -155.5 54t-61.5 142q0 98 63 156t161 58q96 0 157.5 -58.5t61.5 -149.5q0 -87 -65.5 -144.5t-160.5 -57.5zM679 1643
q-45 0 -74.5 -30t-29.5 -74q0 -104 104 -104q48 0 79.5 29.5t31.5 74.5t-31.5 74.5t-79.5 29.5zM974 2133l-286 -328h-172l242 328h216z" />
    <glyph glyph-name="aringacute" unicode="&#x1fb;" horiz-adv-x="1069" 
d="M75 0zM937 0h-225v160h-4q-106 -184 -311 -184q-151 0 -236.5 82t-85.5 217q0 290 334 338l304 43q0 219 -208 219q-183 0 -330 -126v203q162 96 374 96q388 0 388 -382v-666zM713 503l-215 -30q-100 -13 -150.5 -48.5t-50.5 -124.5q0 -65 46.5 -106.5t124.5 -41.5
q106 0 175.5 74.5t69.5 187.5v89zM541 1124q-94 0 -155.5 54t-61.5 142q0 98 63 156t161 58q96 0 157.5 -58.5t61.5 -149.5q0 -87 -65.5 -144.5t-160.5 -57.5zM541 1434q-45 0 -74.5 -30t-29.5 -74q0 -104 104 -104q48 0 79.5 29.5t31.5 74.5t-31.5 74.5t-79.5 29.5z
M848 1950l-286 -328h-172l242 328h216z" />
    <glyph glyph-name="AEacute" unicode="&#x1fc;" horiz-adv-x="1831" 
d="M6 0zM1749 0h-804v365h-492l-172 -365h-275l710 1434h1000v-202h-534v-406h497v-201h-497v-424h567v-201zM945 559v673h-87l-317 -673h404zM1435 1908l-286 -328h-172l242 328h216z" />
    <glyph glyph-name="aeacute" unicode="&#x1fd;" horiz-adv-x="1700" 
d="M75 0zM1630 449h-699q3 -142 85 -219.5t225 -77.5q171 0 310 99v-186q-135 -89 -367 -89q-275 0 -390 206h-4q-140 -206 -372 -206q-160 0 -251.5 82.5t-91.5 220.5q0 306 379 331l259 16q0 250 -201 250q-178 0 -336 -115v196q152 91 357 91q240 0 311 -170h4
q114 170 349 170q206 0 319.5 -135.5t113.5 -376.5v-87zM1406 613q-2 127 -59 195.5t-160 68.5q-98 0 -168.5 -72t-86.5 -192h474zM713 412v55l-177 -11q-121 -7 -180.5 -43t-59.5 -119q0 -64 46.5 -103t125.5 -39q103 0 174 74t71 186zM1159 1546l-286 -328h-172l242 328
h216z" />
    <glyph glyph-name="Oslashacute" unicode="&#x1fe;" 
d="M85 0zM335 121l-148 -177l-99 83l154 184q-157 193 -157 489q0 343 189.5 550.5t517.5 207.5q233 0 401 -125l132 157l99 -81l-137 -162q176 -194 176 -512q0 -351 -189 -555t-506 -204q-261 0 -433 145zM1057 1171q-111 90 -276 90q-204 0 -330.5 -151.5t-126.5 -394.5
q0 -192 75 -321zM1136 1069l-659 -780q114 -117 291 -117q212 0 334 142.5t122 397.5q0 222 -88 357zM1095 1908l-286 -328h-172l242 328h216z" />
    <glyph glyph-name="oslashacute" unicode="&#x1ff;" horiz-adv-x="1223" 
d="M44 0zM1188 1030l-155 -164q105 -137 105 -344q0 -252 -145.5 -399t-387.5 -147q-194 0 -322 95l-140 -151l-99 90l144 155q-103 137 -103 341q0 256 147 399.5t395 143.5q185 0 310 -91l151 163zM798 815q-67 59 -181 59q-141 0 -222.5 -97t-81.5 -268q0 -105 35 -178z
M877 701l-456 -488q76 -62 194 -62q145 0 221 94.5t76 266.5q0 110 -35 189zM920 1546l-286 -328h-172l242 328h216z" />
    <glyph glyph-name="uni0200" unicode="&#x200;" horiz-adv-x="1375" 
d="M17 0zM1355 0h-261l-129 365h-564l-124 -365h-260l537 1434h268zM902 559l-199 572q-9 28 -19 90h-4q-9 -57 -20 -90l-197 -572h439zM902 1554h-148l-243 318h183zM601 1554h-148l-248 318h185z" />
    <glyph glyph-name="uni0201" unicode="&#x201;" horiz-adv-x="1069" 
d="M64 0zM937 0h-225v160h-4q-106 -184 -311 -184q-151 0 -236.5 82t-85.5 217q0 290 334 338l304 43q0 219 -208 219q-183 0 -330 -126v203q162 96 374 96q388 0 388 -382v-666zM713 503l-215 -30q-100 -13 -150.5 -48.5t-50.5 -124.5q0 -65 46.5 -106.5t124.5 -41.5
q106 0 175.5 74.5t69.5 187.5v89zM761 1204h-148l-243 318h183zM460 1204h-148l-248 318h185z" />
    <glyph glyph-name="uni0202" unicode="&#x202;" horiz-adv-x="1375" 
d="M17 0zM1355 0h-261l-129 365h-564l-124 -365h-260l537 1434h268zM902 559l-199 572q-9 28 -19 90h-4q-9 -57 -20 -90l-197 -572h439zM986 1561h-139q-23 137 -167 137q-143 0 -166 -137h-139q11 120 95.5 194.5t211.5 74.5q126 0 209.5 -75t94.5 -194z" />
    <glyph glyph-name="uni0203" unicode="&#x203;" horiz-adv-x="1069" 
d="M75 0zM937 0h-225v160h-4q-106 -184 -311 -184q-151 0 -236.5 82t-85.5 217q0 290 334 338l304 43q0 219 -208 219q-183 0 -330 -126v203q162 96 374 96q388 0 388 -382v-666zM713 503l-215 -30q-100 -13 -150.5 -48.5t-50.5 -124.5q0 -65 46.5 -106.5t124.5 -41.5
q106 0 175.5 74.5t69.5 187.5v89zM844 1184h-139q-23 137 -167 137q-143 0 -166 -137h-139q11 120 95.5 194.5t211.5 74.5q126 0 209.5 -75t94.5 -194z" />
    <glyph glyph-name="uni0204" unicode="&#x204;" horiz-adv-x="1060" 
d="M119 0zM982 0h-805v1434h773v-202h-535v-406h493v-201h-493v-424h567v-201zM816 1554h-148l-243 318h183zM515 1554h-148l-248 318h185z" />
    <glyph glyph-name="uni0205" unicode="&#x205;" horiz-adv-x="1088" 
d="M85 0zM1018 449h-698q4 -142 87.5 -219t229.5 -77q164 0 301 98v-187q-140 -88 -370 -88q-226 0 -354.5 139.5t-128.5 392.5q0 239 141.5 389.5t351.5 150.5t325 -135t115 -375v-89zM794 613q-1 125 -59 194.5t-160 69.5q-100 0 -169.5 -73t-85.5 -191h474zM800 1204
h-148l-243 318h183zM499 1204h-148l-248 318h185z" />
    <glyph glyph-name="uni0206" unicode="&#x206;" horiz-adv-x="1060" 
d="M177 0zM982 0h-805v1434h773v-202h-535v-406h493v-201h-493v-424h567v-201zM870 1561h-139q-23 137 -167 137q-143 0 -166 -137h-139q11 120 95.5 194.5t211.5 74.5q126 0 209.5 -75t94.5 -194z" />
    <glyph glyph-name="uni0207" unicode="&#x207;" horiz-adv-x="1088" 
d="M85 0zM1018 449h-698q4 -142 87.5 -219t229.5 -77q164 0 301 98v-187q-140 -88 -370 -88q-226 0 -354.5 139.5t-128.5 392.5q0 239 141.5 389.5t351.5 150.5t325 -135t115 -375v-89zM794 613q-1 125 -59 194.5t-160 69.5q-100 0 -169.5 -73t-85.5 -191h474zM846 1184
h-139q-23 137 -167 137q-143 0 -166 -137h-139q11 120 95.5 194.5t211.5 74.5q126 0 209.5 -75t94.5 -194z" />
    <glyph glyph-name="uni0208" unicode="&#x208;" horiz-adv-x="592" 
d="M0 0zM546 1434v-192h-131v-1050h131v-192h-500v192h131v1050h-131v192h500zM541 1554h-148l-243 318h183zM240 1554h-148l-248 318h185z" />
    <glyph glyph-name="uni0209" unicode="&#x209;" horiz-adv-x="535" 
d="M0 0zM384 0h-233v1024h233v-1024zM506 1204h-148l-243 318h183zM205 1204h-148l-248 318h185z" />
    <glyph glyph-name="uni020A" unicode="&#x20a;" horiz-adv-x="592" 
d="M0 0zM546 1434v-192h-131v-1050h131v-192h-500v192h131v1050h-131v192h500zM608 1561h-139q-23 137 -167 137q-143 0 -166 -137h-139q11 120 95.5 194.5t211.5 74.5q126 0 209.5 -75t94.5 -194z" />
    <glyph glyph-name="uni020B" unicode="&#x20b;" horiz-adv-x="535" 
d="M0 0zM384 0h-233v1024h233v-1024zM578 1184h-139q-23 137 -167 137q-143 0 -166 -137h-139q11 120 95.5 194.5t211.5 74.5q126 0 209.5 -75t94.5 -194z" />
    <glyph glyph-name="uni020C" unicode="&#x20c;" 
d="M85 0zM768 -24q-310 0 -496.5 201t-186.5 523q0 346 190 552t516 206q302 0 486.5 -200t184.5 -523q0 -351 -189 -555t-505 -204zM779 1249q-197 0 -320.5 -147t-123.5 -387q0 -239 120 -385t314 -146q206 0 325 139t119 389q0 257 -115.5 397t-318.5 140zM1016 1554
h-148l-243 318h183zM715 1554h-148l-248 318h185z" />
    <glyph glyph-name="uni020D" unicode="&#x20d;" horiz-adv-x="1223" 
d="M85 0zM605 -24q-237 0 -378.5 143.5t-141.5 380.5q0 258 147.5 403t397.5 145q240 0 374 -141t134 -391q0 -245 -144.5 -392.5t-388.5 -147.5zM616 863q-136 0 -215 -95t-79 -262q0 -161 80 -253.5t214 -92.5q137 0 210.5 91t73.5 259q0 169 -73.5 261t-210.5 92z
M844 1204h-148l-243 318h183zM543 1204h-148l-248 318h185z" />
    <glyph glyph-name="uni020E" unicode="&#x20e;" 
d="M85 0zM768 -24q-310 0 -496.5 201t-186.5 523q0 346 190 552t516 206q302 0 486.5 -200t184.5 -523q0 -351 -189 -555t-505 -204zM779 1249q-197 0 -320.5 -147t-123.5 -387q0 -239 120 -385t314 -146q206 0 325 139t119 389q0 257 -115.5 397t-318.5 140zM1068 1561
h-139q-23 137 -167 137q-143 0 -166 -137h-139q11 120 95.5 194.5t211.5 74.5q126 0 209.5 -75t94.5 -194z" />
    <glyph glyph-name="uni020F" unicode="&#x20f;" horiz-adv-x="1223" 
d="M85 0zM605 -24q-237 0 -378.5 143.5t-141.5 380.5q0 258 147.5 403t397.5 145q240 0 374 -141t134 -391q0 -245 -144.5 -392.5t-388.5 -147.5zM616 863q-136 0 -215 -95t-79 -262q0 -161 80 -253.5t214 -92.5q137 0 210.5 91t73.5 259q0 169 -73.5 261t-210.5 92z
M917 1184h-139q-23 137 -167 137q-143 0 -166 -137h-139q11 120 95.5 194.5t211.5 74.5q126 0 209.5 -75t94.5 -194z" />
    <glyph glyph-name="uni0210" unicode="&#x210;" horiz-adv-x="1275" 
d="M139 0zM1285 0h-278l-229 384q-31 53 -60.5 90.5t-60 61.5t-66.5 35t-81 11h-96v-582h-237v1434h472q101 0 186 -24t148 -72.5t98.5 -121t35.5 -169.5q0 -76 -22.5 -139.5t-64 -113t-100 -84.5t-131.5 -54v-4q39 -22 68 -48.5t55 -54.5t51.5 -63.5t56.5 -82.5zM414 1241
v-466h198q55 0 101.5 17t80.5 49t53 78t19 103q0 103 -65 161t-187 58h-200zM836 1554h-148l-243 318h183zM535 1554h-148l-248 318h185z" />
    <glyph glyph-name="uni0211" unicode="&#x211;" horiz-adv-x="758" 
d="M0 0zM745 803q-42 33 -121 33q-103 0 -172 -93t-69 -253v-490h-232v1024h232v-211h4q34 108 104.5 168.5t157.5 60.5q63 0 96 -19v-220zM656 1204h-148l-243 318h183zM355 1204h-148l-248 318h185z" />
    <glyph glyph-name="uni0212" unicode="&#x212;" horiz-adv-x="1275" 
d="M177 0zM1285 0h-278l-229 384q-31 53 -60.5 90.5t-60 61.5t-66.5 35t-81 11h-96v-582h-237v1434h472q101 0 186 -24t148 -72.5t98.5 -121t35.5 -169.5q0 -76 -22.5 -139.5t-64 -113t-100 -84.5t-131.5 -54v-4q39 -22 68 -48.5t55 -54.5t51.5 -63.5t56.5 -82.5zM414 1241
v-466h198q55 0 101.5 17t80.5 49t53 78t19 103q0 103 -65 161t-187 58h-200zM919 1561h-139q-23 137 -167 137q-143 0 -166 -137h-139q11 120 95.5 194.5t211.5 74.5q126 0 209.5 -75t94.5 -194z" />
    <glyph glyph-name="uni0213" unicode="&#x213;" horiz-adv-x="758" 
d="M151 0zM745 803q-42 33 -121 33q-103 0 -172 -93t-69 -253v-490h-232v1024h232v-211h4q34 108 104.5 168.5t157.5 60.5q63 0 96 -19v-220zM762 1184h-139q-23 137 -167 137q-143 0 -166 -137h-139q11 120 95.5 194.5t211.5 74.5q126 0 209.5 -75t94.5 -194z" />
    <glyph glyph-name="uni0214" unicode="&#x214;" horiz-adv-x="1440" 
d="M160 0zM1280 580q0 -604 -572 -604q-548 0 -548 581v877h238v-828q0 -422 328 -422q316 0 316 407v843h238v-854zM963 1554h-148l-243 318h183zM662 1554h-148l-248 318h185z" />
    <glyph glyph-name="uni0215" unicode="&#x215;" horiz-adv-x="1195" 
d="M131 0zM1044 0h-232v162h-4q-101 -186 -314 -186q-363 0 -363 436v612h232v-588q0 -276 213 -276q103 0 169.5 76t66.5 199v589h232v-1024zM836 1204h-148l-243 318h183zM535 1204h-148l-248 318h185z" />
    <glyph glyph-name="uni0216" unicode="&#x216;" horiz-adv-x="1440" 
d="M160 0zM1280 580q0 -604 -572 -604q-548 0 -548 581v877h238v-828q0 -422 328 -422q316 0 316 407v843h238v-854zM1027 1561h-139q-23 137 -167 137q-143 0 -166 -137h-139q11 120 95.5 194.5t211.5 74.5q126 0 209.5 -75t94.5 -194z" />
    <glyph glyph-name="uni0217" unicode="&#x217;" horiz-adv-x="1195" 
d="M131 0zM1044 0h-232v162h-4q-101 -186 -314 -186q-363 0 -363 436v612h232v-588q0 -276 213 -276q103 0 169.5 76t66.5 199v589h232v-1024zM911 1184h-139q-23 137 -167 137q-143 0 -166 -137h-139q11 120 95.5 194.5t211.5 74.5q126 0 209.5 -75t94.5 -194z" />
    <glyph glyph-name="Scommaaccent" unicode="&#x218;" horiz-adv-x="1115" 
d="M110 0zM111 57v245q33 -30 78.5 -54t96.5 -40.5t102 -25.5t94 -9q150 0 223.5 50t73.5 145q0 51 -24.5 88.5t-68.5 68.5t-103.5 59.5t-127.5 59.5q-73 39 -136 79t-109.5 88.5t-73 109.5t-26.5 143q0 101 45.5 175.5t120 123t169.5 72t194 23.5q225 0 328 -51v-235
q-122 88 -314 88q-53 0 -105.5 -10t-94 -33t-67.5 -59t-26 -87q0 -48 20 -83t58.5 -64t94 -56.5t128.5 -59.5q75 -39 141.5 -82t117 -95t80 -115.5t29.5 -144.5q0 -109 -44 -184t-118.5 -122t-171.5 -68t-205 -21q-36 0 -88.5 5.5t-107.5 16t-104 25.5t-79 34zM675 -118
l-167 -302h-155l105 302h217z" />
    <glyph glyph-name="scommaaccent" unicode="&#x219;" horiz-adv-x="883" 
d="M87 0zM87 32v215q130 -99 287 -99q210 0 210 124q0 35 -18 59.5t-48.5 43.5t-72 34t-92.5 34q-63 25 -113.5 53t-84 63.5t-50.5 80.5t-17 105q0 74 35 130.5t94 95t134 58t155 19.5q142 0 254 -43v-203q-108 74 -248 74q-44 0 -79.5 -9t-60.5 -25t-39 -38.5t-14 -49.5
q0 -33 14 -56t41.5 -40.5t66 -32t88.5 -31.5q66 -27 118.5 -55t89.5 -63.5t57 -82t20 -110.5q0 -78 -36 -136t-96 -96t-138.5 -56.5t-165.5 -18.5q-168 0 -291 56zM560 -118l-167 -302h-155l105 302h217z" />
    <glyph glyph-name="uni021A" unicode="&#x21a;" horiz-adv-x="1130" 
d="M36 0zM1097 1232h-412v-1232h-238v1232h-411v202h1061v-202zM707 -118l-167 -302h-155l105 302h217z" />
    <glyph glyph-name="uni021B" unicode="&#x21b;" horiz-adv-x="740" 
d="M43 0zM691 11q-68 -34 -179 -34q-298 0 -298 286v579h-171v182h171v237l232 66v-303h245v-182h-245v-512q0 -91 33 -130t110 -39q59 0 102 34v-184zM591 -118l-167 -302h-155l105 302h217z" />
    <glyph glyph-name="uni021C" unicode="&#x21c;" horiz-adv-x="1097" 
d="M9 -463v214q88 -23 205 -23q241 0 403.5 120t162.5 302q0 142 -101.5 232t-264.5 90q-94 0 -215 -36v207l105 23q400 85 400 324q0 118 -89.5 188.5t-243.5 70.5q-177 0 -344 -92v222q164 79 366 79q262 0 409 -122.5t147 -324.5q0 -271 -280 -381v-9q167 -40 264 -162
t97 -294q0 -267 -231.5 -456t-579.5 -189q-119 0 -210 17z" />
    <glyph glyph-name="uni021D" unicode="&#x21d;" horiz-adv-x="939" 
d="M30 -464v189q78 -20 178 -20q196 0 322 87t126 225q0 109 -76 176t-206 67q-88 0 -182 -32v185l90 16q149 27 231.5 93t82.5 154t-69 138t-197 50q-153 0 -297 -80v198q140 66 324 66q217 0 343 -98.5t126 -255.5q0 -193 -224 -299v-7q132 -29 211.5 -125.5t79.5 -232.5
q0 -220 -189 -365t-489 -145q-114 0 -185 16z" />
    <glyph glyph-name="uni021E" unicode="&#x21e;" horiz-adv-x="1506" 
d="M177 0zM1329 0h-239v622h-675v-622h-238v1434h238v-603h675v603h239v-1434zM1069 1886l-224 -327h-185l-224 327h155l160 -210l161 210h157z" />
    <glyph glyph-name="uni021F" unicode="&#x21f;" horiz-adv-x="1192" 
d="M151 0zM1061 0h-232v560q0 304 -203 304q-102 0 -172 -88t-70 -225v-551h-233v1516h233v-662h4q116 194 332 194q341 0 341 -417v-631zM872 1886l-224 -327h-185l-224 327h155l160 -210l161 210h157z" />
    <glyph glyph-name="uni0220" unicode="&#x220;" horiz-adv-x="1547" 
d="M1372 -471h-239v1277q0 443 -324 443q-171 0 -282.5 -126.5t-111.5 -317.5v-805h-238v1434h238v-251h5q155 275 467 275q235 0 360 -154.5t125 -440.5v-1334z" />
    <glyph glyph-name="uni0221" unicode="&#x221;" horiz-adv-x="1345" 
d="M1062 -384q-21 -60 -24 -97h-200q13 123 84 243q-72 114 -72 285v112h-4q-109 -183 -336 -183q-193 0 -309 137.5t-116 374.5q0 254 127.5 407t340.5 153q202 0 293 -155h4v623h232v-1467q0 -56 12 -102q95 85 235 85q127 0 207.5 -65t80.5 -168q0 -106 -90 -176.5
t-232 -70.5q-135 0 -233 64zM853 478v118q0 112 -72 189.5t-182 77.5q-129 0 -203 -97.5t-74 -269.5q0 -156 71.5 -246t192.5 -90q119 0 193 90t74 228zM1165 -219q60 -55 140 -55q118 0 118 71q0 67 -101 67q-96 0 -157 -83z" />
    <glyph glyph-name="uni0222" unicode="&#x222;" horiz-adv-x="1311" 
d="M347 894q-209 106 -209 329q0 105 45 211h233q-42 -95 -42 -198q0 -109 76.5 -179.5t204.5 -70.5q130 0 208 70.5t78 179.5q0 100 -42 198h232q44 -109 44 -212q0 -206 -211 -328q133 -53 208 -161.5t75 -249.5q0 -226 -168 -366.5t-426 -140.5q-263 0 -424.5 133.5
t-161.5 359.5q0 294 280 425zM655 775q-145 0 -241.5 -80t-96.5 -216q0 -134 99 -214.5t239 -80.5q147 0 245 80.5t98 216.5q0 135 -101 214.5t-242 79.5z" />
    <glyph glyph-name="uni0223" unicode="&#x223;" horiz-adv-x="1221" 
d="M329 910q-92 47 -145.5 144t-53.5 218q0 119 34 244h220q-29 -107 -29 -224q0 -134 68.5 -216.5t187.5 -82.5t186 83t67 216q0 117 -28 224h221q33 -124 33 -242q0 -241 -200 -364q259 -128 259 -424q0 -224 -157 -367t-388 -143q-236 0 -384 139t-148 366q0 298 257 429
zM612 809q-130 0 -217 -88.5t-87 -235.5q0 -145 89 -235t213 -90q128 0 215 89.5t87 235.5q0 143 -88 233.5t-212 90.5z" />
    <glyph glyph-name="uni0224" unicode="&#x224;" horiz-adv-x="1202" 
d="M1169 -291h-221q48 83 48 155q0 136 -173 136h-786v110l788 1122h-728v202h1058v-103l-785 -1130h479q363 0 363 -299q0 -95 -43 -193z" />
    <glyph glyph-name="uni0225" unicode="&#x225;" horiz-adv-x="951" 
d="M948 -263h-200q40 76 40 143q0 120 -146 120h-613v87l565 755h-510v182h823v-96l-552 -746h319q313 0 313 -270q0 -85 -39 -175z" />
    <glyph glyph-name="uni0226" unicode="&#x226;" horiz-adv-x="1375" 
d="M17 0zM1355 0h-261l-129 365h-564l-124 -365h-260l537 1434h268zM902 559l-199 572q-9 28 -19 90h-4q-9 -57 -20 -90l-197 -572h439zM687 1570q-50 0 -86.5 33.5t-36.5 82.5q0 48 36 81t87 33t87 -32.5t36 -81.5q0 -48 -36 -82t-87 -34z" />
    <glyph glyph-name="uni0227" unicode="&#x227;" horiz-adv-x="1069" 
d="M75 0zM937 0h-225v160h-4q-106 -184 -311 -184q-151 0 -236.5 82t-85.5 217q0 290 334 338l304 43q0 219 -208 219q-183 0 -330 -126v203q162 96 374 96q388 0 388 -382v-666zM713 503l-215 -30q-100 -13 -150.5 -48.5t-50.5 -124.5q0 -65 46.5 -106.5t124.5 -41.5
q106 0 175.5 74.5t69.5 187.5v89zM537 1205q-50 0 -86.5 33.5t-36.5 82.5q0 48 36 81t87 33t87 -32.5t36 -81.5q0 -48 -36 -82t-87 -34z" />
    <glyph glyph-name="uni0228" unicode="&#x228;" horiz-adv-x="1060" 
d="M177 0zM982 0h-805v1434h773v-202h-535v-406h493v-201h-493v-424h567v-201zM811 -248q0 -194 -288 -194q-47 0 -81 3v111q44 -6 71 -6q133 0 133 82q0 74 -121 74q-10 0 -39 -4v182h136v-94q87 0 138 -40.5t51 -113.5z" />
    <glyph glyph-name="uni0229" unicode="&#x229;" horiz-adv-x="1088" 
d="M85 0zM1018 449h-698q4 -142 87.5 -219t229.5 -77q164 0 301 98v-187q-140 -88 -370 -88q-226 0 -354.5 139.5t-128.5 392.5q0 239 141.5 389.5t351.5 150.5t325 -135t115 -375v-89zM794 613q-1 125 -59 194.5t-160 69.5q-100 0 -169.5 -73t-85.5 -191h474zM790 -248
q0 -194 -288 -194q-47 0 -81 3v111q44 -6 71 -6q133 0 133 82q0 74 -121 74q-10 0 -39 -4v182h136v-94q87 0 138 -40.5t51 -113.5z" />
    <glyph glyph-name="uni022A" unicode="&#x22a;" 
d="M85 0zM768 -24q-310 0 -496.5 201t-186.5 523q0 346 190 552t516 206q302 0 486.5 -200t184.5 -523q0 -351 -189 -555t-505 -204zM779 1249q-197 0 -320.5 -147t-123.5 -387q0 -239 120 -385t314 -146q206 0 325 139t119 389q0 257 -115.5 397t-318.5 140zM1056 1836
h-543v137h543v-137zM977 1560q-43 0 -74 29t-31 74q0 44 32 73t75 29q46 0 78 -29.5t32 -72.5t-32 -73t-80 -30zM593 1560q-46 0 -80 29.5t-34 73.5t31.5 73t77.5 29q45 0 77.5 -29.5t32.5 -72.5t-30.5 -73t-74.5 -30z" />
    <glyph glyph-name="uni022B" unicode="&#x22b;" horiz-adv-x="1223" 
d="M85 0zM605 -24q-237 0 -378.5 143.5t-141.5 380.5q0 258 147.5 403t397.5 145q240 0 374 -141t134 -391q0 -245 -144.5 -392.5t-388.5 -147.5zM616 863q-136 0 -215 -95t-79 -262q0 -161 80 -253.5t214 -92.5q137 0 210.5 91t73.5 259q0 169 -73.5 261t-210.5 92z
M889 1494h-543v137h543v-137zM810 1218q-43 0 -74 29t-31 74q0 44 32 73t75 29q46 0 78 -29.5t32 -72.5t-32 -73t-80 -30zM426 1218q-46 0 -80 29.5t-34 73.5t31.5 73t77.5 29q45 0 77.5 -29.5t32.5 -72.5t-30.5 -73t-74.5 -30z" />
    <glyph glyph-name="uni022C" unicode="&#x22c;" 
d="M85 0zM768 -24q-310 0 -496.5 201t-186.5 523q0 346 190 552t516 206q302 0 486.5 -200t184.5 -523q0 -351 -189 -555t-505 -204zM779 1249q-197 0 -320.5 -147t-123.5 -387q0 -239 120 -385t314 -146q206 0 325 139t119 389q0 257 -115.5 397t-318.5 140zM1106 1843
q0 -116 -51.5 -189.5t-139.5 -73.5q-72 0 -165 48q-78 45 -121 45q-84 0 -84 -111h-115q0 119 51 190.5t143 71.5q68 0 157 -51q72 -44 125 -44q81 0 81 114h119zM1035 1934h-543v128h543v-128z" />
    <glyph glyph-name="uni022D" unicode="&#x22d;" horiz-adv-x="1223" 
d="M85 0zM605 -24q-237 0 -378.5 143.5t-141.5 380.5q0 258 147.5 403t397.5 145q240 0 374 -141t134 -391q0 -245 -144.5 -392.5t-388.5 -147.5zM616 863q-136 0 -215 -95t-79 -262q0 -161 80 -253.5t214 -92.5q137 0 210.5 91t73.5 259q0 169 -73.5 261t-210.5 92z
M956 1463q0 -116 -51.5 -189.5t-139.5 -73.5q-72 0 -165 48q-78 45 -121 45q-84 0 -84 -111h-115q0 119 51 190.5t143 71.5q68 0 157 -51q72 -44 125 -44q81 0 81 114h119zM885 1554h-543v128h543v-128z" />
    <glyph glyph-name="uni022E" unicode="&#x22e;" 
d="M85 0zM768 -24q-310 0 -496.5 201t-186.5 523q0 346 190 552t516 206q302 0 486.5 -200t184.5 -523q0 -351 -189 -555t-505 -204zM779 1249q-197 0 -320.5 -147t-123.5 -387q0 -239 120 -385t314 -146q206 0 325 139t119 389q0 257 -115.5 397t-318.5 140zM773 1570
q-50 0 -86.5 33.5t-36.5 82.5q0 48 36 81t87 33t87 -32.5t36 -81.5q0 -48 -36 -82t-87 -34z" />
    <glyph glyph-name="uni022F" unicode="&#x22f;" horiz-adv-x="1223" 
d="M85 0zM605 -24q-237 0 -378.5 143.5t-141.5 380.5q0 258 147.5 403t397.5 145q240 0 374 -141t134 -391q0 -245 -144.5 -392.5t-388.5 -147.5zM616 863q-136 0 -215 -95t-79 -262q0 -161 80 -253.5t214 -92.5q137 0 210.5 91t73.5 259q0 169 -73.5 261t-210.5 92z
M610 1205q-50 0 -86.5 33.5t-36.5 82.5q0 48 36 81t87 33t87 -32.5t36 -81.5q0 -48 -36 -82t-87 -34z" />
    <glyph glyph-name="uni0230" unicode="&#x230;" 
d="M85 0zM768 -24q-310 0 -496.5 201t-186.5 523q0 346 190 552t516 206q302 0 486.5 -200t184.5 -523q0 -351 -189 -555t-505 -204zM779 1249q-197 0 -320.5 -147t-123.5 -387q0 -239 120 -385t314 -146q206 0 325 139t119 389q0 257 -115.5 397t-318.5 140zM1080 1848
h-543v137h543v-137zM808 1575q-44 0 -76 29.5t-32 73.5q0 43 32 72t76 29q46 0 77.5 -29t31.5 -72t-31.5 -73t-77.5 -30z" />
    <glyph glyph-name="uni0231" unicode="&#x231;" horiz-adv-x="1223" 
d="M85 0zM605 -24q-237 0 -378.5 143.5t-141.5 380.5q0 258 147.5 403t397.5 145q240 0 374 -141t134 -391q0 -245 -144.5 -392.5t-388.5 -147.5zM616 863q-136 0 -215 -95t-79 -262q0 -161 80 -253.5t214 -92.5q137 0 210.5 91t73.5 259q0 169 -73.5 261t-210.5 92z
M886 1491h-543v137h543v-137zM614 1218q-44 0 -76 29.5t-32 73.5q0 43 32 72t76 29q46 0 77.5 -29t31.5 -72t-31.5 -73t-77.5 -30z" />
    <glyph glyph-name="uni0232" unicode="&#x232;" horiz-adv-x="1182" 
d="M10 0zM1176 1434l-470 -913v-521h-238v516l-458 918h271l282 -615q5 -11 30 -83h3q9 32 33 83l295 615h252zM863 1575h-543v137h543v-137z" />
    <glyph glyph-name="uni0233" unicode="&#x233;" horiz-adv-x="1041" 
d="M6 0zM1038 1024l-462 -1188q-144 -318 -404 -318q-73 0 -122 13v193q55 -18 100 -18q130 0 194 128l69 168l-407 1022h257l244 -744q4 -14 18 -74h5q5 23 18 72l256 746h234zM792 1214h-543v137h543v-137z" />
    <glyph glyph-name="uni0234" unicode="&#x234;" horiz-adv-x="645" 
d="M362 -384q-21 -61 -24 -98h-199q13 123 84 243q-72 114 -72 286v1469h233v-1466q0 -57 10 -104q94 89 231 89q133 0 213 -67t80 -170q0 -105 -91 -175.5t-232 -70.5q-133 0 -233 64zM466 -219q58 -56 136 -56q121 0 121 71q0 67 -99 67q-97 0 -158 -82z" />
    <glyph glyph-name="uni0235" unicode="&#x235;" horiz-adv-x="1325" 
d="M1042 -384q-20 -61 -23 -98h-200q13 123 85 243q-72 114 -72 286v530q0 287 -208 287q-104 0 -172 -79.5t-68 -200.5v-584h-233v1024h233v-166h4q115 190 332 190q167 0 255.5 -108.5t88.5 -313.5v-576q0 -57 10 -104q94 89 232 89q130 0 211.5 -66.5t81.5 -170.5
q0 -105 -91 -175.5t-231 -70.5q-134 0 -235 64zM1147 -219q57 -56 136 -56q120 0 120 71q0 67 -99 67q-97 0 -157 -82z" />
    <glyph glyph-name="uni0236" unicode="&#x236;" horiz-adv-x="740" 
d="M425 -384q-21 -61 -24 -98h-200q14 123 85 243q-72 114 -72 286v795h-172v182h172v237l232 70v-307h245v-182h-245v-792q0 -57 11 -104q93 89 231 89q129 0 211 -66.5t82 -170.5q0 -105 -90.5 -175.5t-232.5 -70.5q-133 0 -233 64zM529 -219q57 -56 135 -56q122 0 122 71
q0 67 -99 67q-98 0 -158 -82z" />
    <glyph glyph-name="uni0237" unicode="&#x237;" horiz-adv-x="535" 
d="M383 31q0 -246 -106 -379t-303 -133q-73 0 -142 31v196q68 -42 129 -42q190 0 190 302v1018h232v-993z" />
    <glyph glyph-name="uni0238" unicode="&#x238;" horiz-adv-x="1933" 
d="M1086 134h-4v-134h-230v159h-6q-109 -183 -336 -183q-193 0 -309 137.5t-116 374.5q0 254 130.5 407t348.5 153q194 0 282 -155h4v623h232v-661h4q118 193 345 193q195 0 305.5 -138t110.5 -369q0 -257 -124 -411t-339 -154q-197 0 -298 158zM853 470v126
q0 112 -72 189.5t-182 77.5q-129 0 -203 -97.5t-74 -269.5q0 -156 71.5 -246t192.5 -90q119 0 192 92q71 87 75 218zM1080 564v-134q0 -113 71 -191.5t181 -78.5q130 0 203.5 101t73.5 280q0 151 -69 236.5t-187 85.5q-123 0 -198 -90q-72 -84 -75 -209z" />
    <glyph glyph-name="uni0239" unicode="&#x239;" horiz-adv-x="1933" 
d="M1086 134h-4v-605h-232v630h-4q-109 -183 -336 -183q-193 0 -309 137.5t-116 374.5q0 254 127.5 407t340.5 153q201 0 293 -155h4v131h232v-169h4q118 193 345 193q195 0 305.5 -138t110.5 -369q0 -257 -124 -411t-339 -154q-197 0 -298 158zM853 470v126
q0 112 -72 189.5t-182 77.5q-129 0 -203 -97.5t-74 -269.5q0 -156 71.5 -246t192.5 -90q119 0 192 92q71 87 75 218zM1080 564v-134q0 -113 71 -191.5t181 -78.5q130 0 203.5 101t73.5 280q0 147 -69 234.5t-187 87.5q-123 0 -199 -90q-71 -84 -74 -209z" />
    <glyph glyph-name="uni023A" unicode="&#x23a;" horiz-adv-x="1375" 
d="M17 0zM1355 0h-261l-129 365h-564l-124 -365h-260l537 1434h268zM902 559l-199 572q-9 28 -19 90h-4q-9 -57 -20 -90l-197 -572h439zM1264 1584l-1078 -1734h-164l1078 1734h164z" />
    <glyph glyph-name="uni023B" unicode="&#x23b;" horiz-adv-x="1272" 
d="M22 0zM1177 60q-162 -84 -403 -84q-312 0 -500 197t-188 517q0 344 211.5 556t534.5 212q208 0 345 -59v-236q-145 86 -320 86q-233 0 -377.5 -149t-144.5 -398q0 -237 135 -377.5t355 -140.5q203 0 352 96v-220zM1264 1584l-1078 -1734h-164l1078 1734h164z" />
    <glyph glyph-name="uni023C" unicode="&#x23c;" horiz-adv-x="963" 
d="M12 0zM884 47q-123 -71 -291 -71q-228 0 -368 142.5t-140 369.5q0 253 150.5 406.5t402.5 153.5q140 0 247 -49v-216q-107 80 -228 80q-147 0 -241 -99.5t-94 -260.5q0 -159 88.5 -251t237.5 -92q125 0 236 89v-202zM1076 1233l-875 -1434h-189l873 1434h191z" />
    <glyph glyph-name="uni023D" unicode="&#x23d;" horiz-adv-x="1001" 
d="M24 0zM971 0h-794v1434h238v-1233h556v-201zM567 683h-543v137h543v-137z" />
    <glyph glyph-name="uni023E" unicode="&#x23e;" horiz-adv-x="1130" 
d="M11 0zM1097 1232h-412v-1232h-238v1232h-411v202h1061v-202zM1253 1584l-1078 -1734h-164l1078 1734h164z" />
    <glyph glyph-name="uni023F" unicode="&#x23f;" horiz-adv-x="883" 
d="M711 -329q-61 -37 -159 -37q-140 0 -210 164q-63 141 -214 214q-21 9 -41 20v212q135 -96 298 -96q200 0 200 121q0 34 -17 58t-46 42.5t-68 33t-84 30.5q-70 28 -122.5 56t-88 63.5t-53.5 80.5t-18 106q0 75 35 133t93.5 97t133.5 59t155 20q143 0 255 -43v-201
q-113 72 -261 72q-41 0 -74 -8.5t-56.5 -24t-36.5 -37.5t-13 -48q0 -33 12.5 -55t36.5 -39t58 -31t78 -30q72 -27 129 -55t97.5 -63.5t62 -82t21.5 -110.5q0 -81 -34.5 -140t-92 -98.5t-132.5 -58.5q-66 -16 -136 -19q33 -34 54 -86q42 -85 95 -85q72 0 143 40v-174z" />
    <glyph glyph-name="uni0240" unicode="&#x240;" horiz-adv-x="951" 
d="M904 -329q-58 -37 -150 -37q-150 0 -302.5 183t-330.5 183h-92v87l565 755h-510v182h823v-96l-572 -772q114 -39 224 -174q133 -153 202 -153q72 0 143 40v-198z" />
    <glyph glyph-name="uni0241" unicode="&#x241;" horiz-adv-x="1123" 
d="M648 0h-231v500q0 133 47.5 213t186.5 186q129 95 163 145t34 106q0 82 -90.5 137.5t-300.5 55.5q-231 0 -409 -80v208q172 67 409 67q318 0 471.5 -106t153.5 -268q0 -95 -54 -178.5t-230 -212.5q-84 -66 -117 -122t-33 -151v-500z" />
    <glyph glyph-name="uni0242" unicode="&#x242;" horiz-adv-x="756" 
d="M709 139h-711v149h197q0 69 8.5 120.5t30 97t59 89.5t94.5 98q47 44 76 80t45.5 66t22.5 54.5t6 45.5q0 91 -68.5 142t-190.5 51q-144 0 -281 -80v208q142 68 308 68q108 0 194.5 -28.5t147 -78.5t93 -118.5t32.5 -149.5q0 -47 -10.5 -91t-34.5 -88.5t-63 -91.5t-96 -99
q-36 -33 -62.5 -61.5t-44 -61.5t-26 -74t-8.5 -98h282v-149z" />
    <glyph glyph-name="uni0243" unicode="&#x243;" horiz-adv-x="1237" 
d="M177 342h-149v155h149v937h459q105 0 187.5 -23.5t140 -67t88 -104.5t30.5 -137q0 -59 -18.5 -111.5t-53 -96t-83 -75.5t-107.5 -50v-4q74 -9 134 -37.5t103 -73.5t66.5 -104.5t23.5 -130.5q0 -96 -36 -173t-101 -132t-155.5 -84.5t-199.5 -29.5h-478v342zM619 190
q132 0 205 61.5t73 170.5t-75.5 165.5t-221.5 56.5h-186v-147h221v-155h-221v-152h205zM573 835q121 0 190.5 58t69.5 164q0 186 -258 186h-161v-408h159z" />
    <glyph glyph-name="uni0244" unicode="&#x244;" horiz-adv-x="1440" 
d="M1280 598q0 -622 -570 -622q-550 0 -550 603v65h-130v176h130v614h238v-614h644v614h238v-614h130v-176h-130v-46zM725 184q317 0 317 386v74h-644v-61q0 -399 327 -399z" />
    <glyph glyph-name="uni0245" unicode="&#x245;" horiz-adv-x="1346" 
d="M18 0zM1325 0h-261l-363 1100q-16 47 -28 118h-5q-10 -62 -30 -117l-365 -1101h-255l518 1434h281z" />
    <glyph glyph-name="uni0246" unicode="&#x246;" horiz-adv-x="1060" 
d="M155 0zM982 0h-805v1434h773v-202h-535v-406h493v-201h-493v-424h567v-201zM957 1528l-688 -1672h-114l686 1672h116z" />
    <glyph glyph-name="uni0247" unicode="&#x247;" horiz-adv-x="1088" 
d="M85 0zM1018 449h-698q4 -142 87.5 -219t229.5 -77q164 0 301 98v-187q-140 -88 -370 -88q-226 0 -354.5 139.5t-128.5 392.5q0 239 141.5 389.5t351.5 150.5t325 -135t115 -375v-89zM794 613q-1 125 -59 194.5t-160 69.5q-100 0 -169.5 -73t-85.5 -191h474zM972 1342
l-688 -1672h-114l686 1672h116z" />
    <glyph glyph-name="uni0248" unicode="&#x248;" horiz-adv-x="812" 
d="M648 538q0 -133 -31.5 -237.5t-90.5 -176.5t-142.5 -110t-188.5 -38q-96 0 -170 30v227q67 -49 161 -49q68 0 111.5 33.5t68.5 85.5t34.5 116t9.5 124v99h-221v176h221v616h238v-616h134v-176h-134v-104z" />
    <glyph glyph-name="uni0249" unicode="&#x249;" horiz-adv-x="535" 
d="M383 43q0 -252 -106 -388.5t-303 -136.5q-73 0 -142 32v199q65 -45 123 -45q196 0 196 346v374h-123v145h123v455h232v-455h122v-145h-122v-381zM269 1239q-57 0 -97.5 37t-40.5 94t40.5 95t97.5 38q58 0 99 -38t41 -95q0 -54 -41 -92.5t-99 -38.5z" />
    <glyph glyph-name="uni024A" unicode="&#x24a;" horiz-adv-x="1534" 
d="M732 1248q-88 0 -161.5 -39t-126 -109.5t-81.5 -168.5t-29 -216t28 -216t79 -168t122.5 -108.5t158.5 -38.5q92 0 165.5 35.5t125 103.5t79 166t27.5 223v13q-1 125 -28 222.5t-77.5 164t-121.5 101.5t-160 35zM1357 19q0 -37 8 -75t27 -69.5t49.5 -51.5t76.5 -20
q59 0 117 33v-199q-68 -25 -143 -25q-88 0 -155.5 27.5t-113.5 80t-69.5 128.5t-23.5 173v192q-86 -118 -198 -177.5t-261 -59.5q-133 0 -241.5 53t-185 149t-118 229t-41.5 293q0 173 42 313t120.5 239t191 152.5t252.5 53.5q129 0 236 -53.5t201 -175.5v205h229v-1415z
" />
    <glyph glyph-name="uni024B" unicode="&#x24b;" horiz-adv-x="1234" 
d="M510 -24q-97 0 -176 35.5t-134 101.5t-85 161t-30 214q0 126 33.5 229t95 176.5t147.5 114t192 40.5q205 0 293 -155h4v131h232v-1005q0 -216 161 -216q58 0 116 33v-199q-68 -25 -143 -25q-89 0 -157.5 28t-115 80.5t-70 128.5t-23.5 172v138h-4q-110 -183 -336 -183z
M586 160q59 0 108 24t84.5 66.5t55 100.5t19.5 127v118q0 56 -19 104.5t-52.5 84.5t-80 57t-102.5 21q-64 0 -115.5 -25t-87.5 -72t-55 -115.5t-19 -154.5q0 -79 18 -141t52 -105.5t83 -66.5t111 -23z" />
    <glyph glyph-name="uni024C" unicode="&#x24c;" horiz-adv-x="1275" 
d="M1117 1048q0 -75 -22.5 -138t-64.5 -113t-101 -85.5t-132 -55.5v-4q34 -13 62.5 -34.5t54.5 -50t50.5 -64t49.5 -76.5l269 -427h-276q-59 97 -117 193.5t-116 193.5q-29 50 -56.5 86.5t-56 60.5t-60.5 36t-71 12h-116v-582h-237v592h-150v175h150v667h466q110 0 198 -24
t149.5 -72t94 -120.5t32.5 -169.5zM414 1241v-466h147q66 0 122.5 15t97 45.5t63.5 77t23 109.5q0 106 -65.5 162.5t-194.5 56.5h-193z" />
    <glyph glyph-name="uni024D" unicode="&#x24d;" horiz-adv-x="758" 
d="M608 333h-225v-333h-232v333h-123v155h123v536h232v-202h4q36 107 105.5 163.5t163.5 56.5q56 0 89 -14v-224q-48 32 -128 32q-54 0 -97.5 -24t-73.5 -69t-46.5 -109.5t-16.5 -145.5h225v-155z" />
    <glyph glyph-name="uni024E" unicode="&#x24e;" horiz-adv-x="1182" 
d="M1176 1434l-132 -255h108v-176h-197l-249 -482v-521h-238v516l-244 487h-195v176h108l-127 255h271l119 -255h401l123 255h252zM561 837q7 -16 35 -101h3q6 26 14.5 50.5t20.5 48.5l84 168h-237z" />
    <glyph glyph-name="uni024F" unicode="&#x24f;" horiz-adv-x="1041" 
d="M1038 1024l-124 -319h98v-146h-154l-266 -686q-137 -355 -398 -355q-45 0 -80 5t-64 14v195q57 -27 115 -27q124 0 179 133l69 164l-222 557h-162v146h103l-126 319h257l107 -319h323l111 319h234zM502 310q2 -6 5.5 -20t7.5 -29.5t7 -30.5t4 -24h5q3 20 9.5 45t16.5 57
l87 251h-227z" />
    <glyph glyph-name="uni0275" horiz-adv-x="1218" 
d="M603 -24q-236 0 -377 144.5t-141 382.5q0 257 145.5 401t392.5 144q240 0 375 -140t135 -388q0 -247 -144 -395.5t-386 -148.5zM892 600q-26 263 -279 263q-120 0 -195.5 -68.5t-90.5 -194.5h565zM893 435h-567q9 -129 85.5 -202t202.5 -73q262 0 279 275z" />
    <glyph glyph-name="uni0292" horiz-adv-x="955" 
d="M-29 -393v212q167 -114 347 -114q164 0 269 81t105 210q0 133 -108 207.5t-309 74.5h-80v87l369 477h-560v182h858v-99l-379 -484q214 -26 329 -143t115 -297q0 -209 -171.5 -344.5t-432.5 -135.5q-191 0 -352 86z" />
    <glyph glyph-name="uni02BE" horiz-adv-x="682" 
d="M242 1218v111q94 0 94 81q0 79 -94 79v112q86 0 142 -54.5t56 -136.5t-56 -137t-142 -55z" />
    <glyph glyph-name="circumflex" unicode="&#x2c6;" horiz-adv-x="771" 
d="M698 1204h-160l-161 211l-157 -211h-155l224 328h184z" />
    <glyph glyph-name="caron" horiz-adv-x="771" 
d="M704 1531l-224 -327h-185l-224 327h155l160 -210l161 210h157z" />
    <glyph glyph-name="uni02C9" horiz-adv-x="660" 
d="M600 1204h-543v137h543v-137z" />
    <glyph glyph-name="breve" horiz-adv-x="661" 
d="M634 1480q-11 -124 -97.5 -200t-209.5 -76q-130 0 -211.5 75.5t-87.5 200.5h136q12 -146 166 -146q65 0 111 39.5t56 106.5h137z" />
    <glyph glyph-name="dotaccent" horiz-adv-x="460" 
d="M230 1203q-50 0 -86.5 33.5t-36.5 82.5q0 48 36 81t87 33t87 -32.5t36 -81.5q0 -48 -36 -82t-87 -34z" />
    <glyph glyph-name="ring" unicode="&#x2da;" horiz-adv-x="565" 
d="M279 1180q-94 0 -155.5 54t-61.5 142q0 98 63 156t161 58q96 0 157.5 -58.5t61.5 -149.5q0 -87 -65.5 -144.5t-160.5 -57.5zM279 1490q-45 0 -74.5 -30t-29.5 -74q0 -104 104 -104q48 0 79.5 29.5t31.5 74.5t-31.5 74.5t-79.5 29.5z" />
    <glyph glyph-name="ogonek" horiz-adv-x="454" 
d="M374 0q-151 -137 -151 -216q0 -68 65 -68q36 0 68 13v-121q-38 -16 -105 -16q-78 0 -125.5 42t-47.5 116q0 122 161 250h135z" />
    <glyph glyph-name="tilde" unicode="&#x2dc;" horiz-adv-x="733" 
d="M711 1475q0 -116 -51.5 -189.5t-139.5 -73.5q-72 0 -165 48q-78 45 -121 45q-84 0 -84 -111h-115q0 119 51 190.5t143 71.5q68 0 157 -51q72 -44 125 -44q81 0 81 114h119z" />
    <glyph glyph-name="hungarumlaut" horiz-adv-x="740" 
d="M747 1522l-248 -318h-148l211 318h185zM441 1522l-243 -318h-148l208 318h183z" />
    <glyph glyph-name="hookabovecomb" horiz-adv-x="622" 
d="M160 1570q39 4 85 4q94 0 154.5 -41.5t60.5 -112.5q0 -61 -39.5 -103t-98.5 -49v-50h-122v119q115 0 115 72q0 58 -89 58q-20 0 -66 -9v112z" />
    <glyph glyph-name="uni030F" horiz-adv-x="0" 
d="M351 1204h-148l-243 318h183zM50 1204h-148l-248 318h185z" />
    <glyph glyph-name="dotbelowcomb" horiz-adv-x="682" 
d="M340 -348q-51 0 -87.5 34t-36.5 82t37.5 80.5t86.5 32.5q51 0 87 -32.5t36 -80.5t-36 -82t-87 -34z" />
    <glyph glyph-name="uni0338" horiz-adv-x="0" 
d="M402 1434l-688 -1672h-114l686 1672h116z" />
    <glyph glyph-name="Gamma" horiz-adv-x="1003" 
d="M971 1228h-556v-1228h-238v1434h794v-206z" />
    <glyph glyph-name="Lambda" horiz-adv-x="1347" 
d="M1325 0h-261l-363 1100q-16 47 -28 118h-5q-10 -62 -30 -117l-365 -1101h-255l518 1434h281z" />
    <glyph glyph-name="Pi" horiz-adv-x="1508" 
d="M1334 0h-239v1221h-680v-1221h-238v1434h1157v-1434z" />
    <glyph glyph-name="Sigma" horiz-adv-x="1106" 
d="M1061 0h-1017v120l464 613l-429 568v133h920v-205h-581l368 -487l-404 -544h679v-198z" />
    <glyph glyph-name="epsilon" horiz-adv-x="920" 
d="M852 21q-136 -46 -340 -46q-203 0 -320 81.5t-117 217.5q0 94 66.5 162.5t175.5 89.5v4q-82 18 -143 83t-61 148q0 136 111.5 212t297.5 76q151 0 285 -44v-195q-128 66 -270 66q-188 0 -188 -126q0 -65 70.5 -104.5t179.5 -39.5q73 0 118 4v-172q-73 4 -143 4
q-263 0 -263 -152q0 -65 62 -104t175 -39q164 0 304 70v-196z" />
    <glyph glyph-name="uni0400" unicode="&#x400;" horiz-adv-x="1060" 
d="M177 0zM982 0h-805v1434h773v-202h-535v-406h493v-201h-493v-424h567v-201zM728 1553h-173l-262 328h214z" />
    <glyph glyph-name="uni0401" unicode="&#x401;" horiz-adv-x="1060" 
d="M177 0zM982 0h-805v1434h773v-202h-535v-406h493v-201h-493v-424h567v-201zM788 1551q-50 0 -86.5 33t-36.5 84q0 49 35 82t85 33q53 0 89.5 -33.5t36.5 -81.5q0 -49 -35 -83t-88 -34zM372 1551q-52 0 -89 34.5t-37 82.5q0 49 35.5 82t86.5 33t88.5 -33.5t37.5 -81.5
q0 -49 -36 -83t-86 -34z" />
    <glyph glyph-name="uni0402" unicode="&#x402;" horiz-adv-x="1484" 
d="M813 9v191q64 -31 154 -31q82 0 131 61t49 165q0 123 -75 191.5t-209 68.5h-221v-655h-238v1231h-368v203h1060v-203h-454v-388h252q226 0 357 -117t131 -329q0 -196 -102.5 -304.5t-289.5 -108.5q-99 0 -177 25z" />
    <glyph glyph-name="uni0403" unicode="&#x403;" horiz-adv-x="1003" 
d="M177 0zM971 1228h-556v-1228h-238v1434h794v-206zM891 1894l-286 -328h-172l242 328h216z" />
    <glyph glyph-name="uni0404" unicode="&#x404;" horiz-adv-x="1270" 
d="M1171 55q-161 -79 -400 -79q-310 0 -498 197t-188 515q0 348 200 559t517 211q216 0 369 -57v-232q-160 86 -360 86q-195 0 -321 -118t-148 -325h597v-198h-597q15 -204 139.5 -320.5t320.5 -116.5q217 0 369 95v-217z" />
    <glyph glyph-name="uni0405" unicode="&#x405;" horiz-adv-x="1115" 
d="M110 0zM111 57v245q33 -30 78.5 -54t96.5 -40.5t102 -25.5t94 -9q150 0 223.5 50t73.5 145q0 51 -24.5 88.5t-68.5 68.5t-103.5 59.5t-127.5 59.5q-73 39 -136 79t-109.5 88.5t-73 109.5t-26.5 143q0 101 45.5 175.5t120 123t169.5 72t194 23.5q225 0 328 -51v-235
q-122 88 -314 88q-53 0 -105.5 -10t-94 -33t-67.5 -59t-26 -87q0 -48 20 -83t58.5 -64t94 -56.5t128.5 -59.5q75 -39 141.5 -82t117 -95t80 -115.5t29.5 -144.5q0 -109 -44 -184t-118.5 -122t-171.5 -68t-205 -21q-36 0 -88.5 5.5t-107.5 16t-104 25.5t-79 34z" />
    <glyph glyph-name="uni0406" unicode="&#x406;" horiz-adv-x="592" 
d="M46 0zM546 1434v-192h-131v-1050h131v-192h-500v192h131v1050h-131v192h500z" />
    <glyph glyph-name="uni0407" unicode="&#x407;" horiz-adv-x="592" 
d="M0 0zM546 1434v-192h-131v-1050h131v-192h-500v192h131v1050h-131v192h500zM511 1551q-50 0 -86.5 33t-36.5 84q0 49 35 82t85 33q53 0 89.5 -33.5t36.5 -81.5q0 -49 -35 -83t-88 -34zM95 1551q-52 0 -89 34.5t-37 82.5q0 49 35.5 82t86.5 33t88.5 -33.5t37.5 -81.5
q0 -49 -36 -83t-86 -34z" />
    <glyph glyph-name="uni0408" unicode="&#x408;" horiz-adv-x="812" 
d="M25 0zM648 514q0 -255 -126 -396.5t-336 -141.5q-98 0 -161 23v224q57 -39 147 -39q238 0 238 368v882h238v-920z" />
    <glyph glyph-name="uni0409" unicode="&#x409;" horiz-adv-x="2058" 
d="M1252 852h273q216 0 334.5 -105.5t118.5 -301.5q0 -204 -132.5 -324.5t-363.5 -120.5h-468v1229h-348q-72 -519 -114 -733.5t-85 -316t-116 -151t-176 -49.5q-90 0 -156 24v206q50 -29 110 -29t113 71t107.5 369.5t121.5 813.5h781v-582zM1252 659v-465h204
q131 0 201.5 62.5t70.5 172.5q0 230 -272 230h-204z" />
    <glyph glyph-name="uni040A" unicode="&#x40a;" horiz-adv-x="2072" 
d="M1029 0v642h-615v-642h-237v1434h237v-585h615v585h237v-578h246q227 0 353.5 -106t126.5 -303q0 -207 -134.5 -327t-368.5 -120h-460zM1266 659v-464h205q130 0 200.5 62.5t70.5 173.5q0 228 -271 228h-205z" />
    <glyph glyph-name="uni040B" unicode="&#x40b;" horiz-adv-x="1551" 
d="M1439 0h-237v376q0 265 -266 265h-251v-641h-238v1231h-411v203h1061v-203h-412v-386h278q476 0 476 -458v-387z" />
    <glyph glyph-name="uni040C" unicode="&#x40c;" horiz-adv-x="1251" 
d="M177 0zM1262 0h-310l-499 656q-28 37 -34 50h-4v-706h-238v1434h238v-674h4q12 22 34 49l481 625h285l-563 -688zM989 1908l-286 -328h-172l242 328h216z" />
    <glyph glyph-name="uni040D" unicode="&#x40d;" horiz-adv-x="1572" 
d="M177 0zM1393 0h-229v955q0 129 10 182h-6q-17 -45 -42 -83l-688 -1054h-261v1434h230v-912q0 -157 -8 -205h4q20 40 52 88l664 1029h274v-1434zM919 1553h-173l-262 328h214z" />
    <glyph glyph-name="uni040E" unicode="&#x40e;" horiz-adv-x="1206" 
d="M43 0zM1216 1434l-446 -993q-124 -271 -239.5 -368.5t-252.5 -97.5q-109 0 -182 31v227q87 -52 167 -52q71 0 130.5 54t128.5 190l-479 1009h271l296 -680q9 -21 35 -104h2q3 10 38 104l279 680h252zM1029 1888q-16 -150 -123.5 -236.5t-269.5 -86.5q-166 0 -270.5 86.5
t-114.5 236.5h193q14 -182 195 -182q80 0 132.5 48t64.5 134h193z" />
    <glyph glyph-name="uni040F" unicode="&#x40f;" horiz-adv-x="1503" 
d="M1329 0h-473v-387h-212v387h-467v1434h238v-1226h675v1226h239v-1434z" />
    <glyph glyph-name="uni0410" unicode="&#x410;" horiz-adv-x="1375" 
d="M17 0zM1355 0h-261l-129 365h-564l-124 -365h-260l537 1434h268zM902 559l-199 572q-9 28 -19 90h-4q-9 -57 -20 -90l-197 -572h439z" />
    <glyph glyph-name="uni0411" unicode="&#x411;" horiz-adv-x="1236" 
d="M177 0v1434h837v-203h-599v-392h274q220 0 342.5 -104t122.5 -295q0 -204 -130.5 -322t-355.5 -118h-491zM415 650v-460h215q131 0 202 62t71 173q0 225 -269 225h-219z" />
    <glyph glyph-name="uni0412" unicode="&#x412;" horiz-adv-x="1237" 
d="M177 0zM177 0v1434h455q208 0 329.5 -91t121.5 -237q0 -122 -69 -212t-191 -128v-4q148 -17 236.5 -109.5t88.5 -240.5q0 -184 -145 -298t-366 -114h-460zM414 1243v-408h154q124 0 194.5 58.5t70.5 165.5q0 184 -246 184h-173zM414 644v-454h203q133 0 205.5 61.5
t72.5 169.5q0 223 -309 223h-172z" />
    <glyph glyph-name="uni0413" unicode="&#x413;" horiz-adv-x="1003" 
d="M177 0zM971 1228h-556v-1228h-238v1434h794v-206z" />
    <glyph glyph-name="uni0414" unicode="&#x414;" horiz-adv-x="1495" 
d="M1424 -387h-213v387h-974v-387h-212v589h121q135 253 229 590.5t106 641.5h745v-1232h198v-589zM988 202v1027h-310q-14 -224 -97 -525t-185 -502h592z" />
    <glyph glyph-name="uni0415" unicode="&#x415;" horiz-adv-x="1060" 
d="M177 0zM982 0h-805v1434h773v-202h-535v-406h493v-201h-493v-424h567v-201z" />
    <glyph glyph-name="uni0416" unicode="&#x416;" horiz-adv-x="1891" 
d="M1906 0h-305l-504 649q-21 28 -33 50h-4v-699h-230v699h-4q-13 -25 -33 -50l-504 -649h-306l608 746l-565 688h287l475 -612q23 -29 38 -56h4v668h230v-668h4q13 25 38 56l475 612h286l-564 -688z" />
    <glyph glyph-name="uni0417" unicode="&#x417;" horiz-adv-x="1123" 
d="M85 56v228q169 -120 384 -120q141 0 224.5 65.5t83.5 175.5q0 240 -339 240h-165v186h155q144 0 223 60t79 169q0 94 -67 150.5t-184 56.5q-178 0 -347 -108v212q166 87 383 87q216 0 340 -98.5t124 -258.5q0 -277 -277 -350v-4q148 -17 235.5 -110t87.5 -230
q0 -197 -147 -314t-402 -117q-253 0 -391 80z" />
    <glyph glyph-name="uni0418" unicode="&#x418;" horiz-adv-x="1572" 
d="M1393 0h-229v955q0 129 10 182h-6q-17 -45 -42 -83l-688 -1054h-261v1434h230v-912q0 -157 -8 -205h4q20 40 52 88l664 1029h274v-1434z" />
    <glyph glyph-name="uni0419" unicode="&#x419;" horiz-adv-x="1572" 
d="M177 0zM1393 0h-229v955q0 129 10 182h-6q-17 -45 -42 -83l-688 -1054h-261v1434h230v-912q0 -157 -8 -205h4q20 40 52 88l664 1029h274v-1434zM1185 1888q-16 -150 -123.5 -236.5t-269.5 -86.5q-166 0 -270.5 86.5t-114.5 236.5h193q14 -182 195 -182q80 0 132.5 48
t64.5 134h193z" />
    <glyph glyph-name="uni041A" unicode="&#x41a;" horiz-adv-x="1251" 
d="M177 0zM1262 0h-310l-499 656q-28 37 -34 50h-4v-706h-238v1434h238v-674h4q12 22 34 49l481 625h285l-563 -688z" />
    <glyph glyph-name="uni041B" unicode="&#x41b;" horiz-adv-x="1431" 
d="M1252 0h-238v1229h-348q-73 -519 -115 -733.5t-85 -316t-117 -151t-177 -49.5q-88 0 -153 23v203q48 -25 107 -25q61 0 114 71t108.5 369.5t122.5 813.5h781v-1434z" />
    <glyph glyph-name="uni041C" unicode="&#x41c;" horiz-adv-x="1893" 
d="M177 0zM1717 0h-236v928q0 114 14 279h-4q-22 -94 -39 -135l-428 -1072h-164l-429 1064q-18 47 -38 143h-4q8 -86 8 -281v-926h-220v1434h335l377 -955q43 -110 56 -164h5q37 113 60 168l384 951h323v-1434z" />
    <glyph glyph-name="uni041D" unicode="&#x41d;" horiz-adv-x="1506" 
d="M177 0zM1329 0h-239v622h-675v-622h-238v1434h238v-603h675v603h239v-1434z" />
    <glyph glyph-name="uni041E" unicode="&#x41e;" 
d="M85 0zM768 -24q-310 0 -496.5 201t-186.5 523q0 346 190 552t516 206q302 0 486.5 -200t184.5 -523q0 -351 -189 -555t-505 -204zM779 1249q-197 0 -320.5 -147t-123.5 -387q0 -239 120 -385t314 -146q206 0 325 139t119 389q0 257 -115.5 397t-318.5 140z" />
    <glyph glyph-name="uni041F" unicode="&#x41f;" horiz-adv-x="1508" 
d="M177 0zM1334 0h-239v1221h-680v-1221h-238v1434h1157v-1434z" />
    <glyph glyph-name="uni0420" unicode="&#x420;" horiz-adv-x="1197" 
d="M177 0zM414 520v-520h-237v1434h435q247 0 383 -115t136 -324t-142 -342t-384 -133h-191zM414 1238v-524h154q153 0 233 71t80 200q0 253 -294 253h-173z" />
    <glyph glyph-name="uni0421" unicode="&#x421;" horiz-adv-x="1272" 
d="M86 0zM1177 60q-162 -84 -403 -84q-312 0 -500 197t-188 517q0 344 211.5 556t534.5 212q208 0 345 -59v-236q-145 86 -320 86q-233 0 -377.5 -149t-144.5 -398q0 -237 135 -377.5t355 -140.5q203 0 352 96v-220z" />
    <glyph glyph-name="uni0422" unicode="&#x422;" horiz-adv-x="1130" 
d="M36 0zM1097 1232h-412v-1232h-238v1232h-411v202h1061v-202z" />
    <glyph glyph-name="uni0423" unicode="&#x423;" horiz-adv-x="1206" 
d="M1216 1434l-446 -993q-124 -271 -239.5 -368.5t-252.5 -97.5q-109 0 -182 31v227q87 -52 167 -52q71 0 130.5 54t128.5 190l-479 1009h271l296 -680q9 -21 35 -104h2q3 10 38 104l279 680h252z" />
    <glyph glyph-name="uni0424" unicode="&#x424;" horiz-adv-x="1591" 
d="M914 174v-178h-227v178h-28q-250 0 -413 165.5t-163 407.5q0 232 159 390.5t407 158.5h38v173h227v-173h30q254 0 413.5 -156t159.5 -393q0 -239 -163 -406t-413 -167h-27zM914 1110v-745h23q152 0 243 103t91 275q0 165 -91 266t-245 101h-21zM687 365v745h-22
q-151 0 -243.5 -102.5t-92.5 -264.5q0 -173 91.5 -275.5t242.5 -102.5h24z" />
    <glyph glyph-name="uni0425" unicode="&#x425;" horiz-adv-x="1268" 
d="M17 0zM1249 0h-285l-294 526q-13 24 -29 68h-4q-9 -22 -30 -68l-303 -526h-287l470 721l-432 713h291l259 -484q25 -48 45 -96h3q29 63 50 100l269 480h268l-442 -711z" />
    <glyph glyph-name="uni0426" unicode="&#x426;" horiz-adv-x="1593" 
d="M1526 -388h-213v388h-1136v1434h238v-1226h675v1226h239v-1226h197v-596z" />
    <glyph glyph-name="uni0427" unicode="&#x427;" horiz-adv-x="1414" 
d="M1226 0h-238v611q-225 -116 -418 -116q-199 0 -307.5 100.5t-108.5 282.5v556h237v-513q0 -223 228 -223q162 0 369 104v632h238v-1434z" />
    <glyph glyph-name="uni0428" unicode="&#x428;" horiz-adv-x="2001" 
d="M1822 0h-1645v1434h238v-1226h466v1226h237v-1226h466v1226h238v-1434z" />
    <glyph glyph-name="uni0429" unicode="&#x429;" horiz-adv-x="2087" 
d="M2020 -388h-204v388h-1639v1434h238v-1226h466v1226h237v-1226h466v1226h238v-1226h198v-596z" />
    <glyph glyph-name="uni042A" unicode="&#x42a;" horiz-adv-x="1493" 
d="M446 0v1230h-410v204h649v-577h245q227 0 354 -105.5t127 -302.5q0 -208 -133.5 -328.5t-363.5 -120.5h-468zM685 664v-470h205q129 0 200 63.5t71 175.5q0 231 -271 231h-205z" />
    <glyph glyph-name="uni042B" unicode="&#x42b;" horiz-adv-x="1710" 
d="M1532 0h-237v1434h237v-1434zM177 0v1434h237v-577h245q228 0 355 -106t127 -302q0 -208 -133.5 -328.5t-363.5 -120.5h-467zM414 664v-470h206q130 0 200.5 63t70.5 176q0 231 -271 231h-206z" />
    <glyph glyph-name="uni042C" unicode="&#x42c;" horiz-adv-x="1223" 
d="M177 0v1434h237v-577h245q228 0 355 -106t127 -302q0 -208 -133.5 -328.5t-363.5 -120.5h-467zM414 664v-470h206q130 0 200.5 63t70.5 176q0 231 -278 231h-199z" />
    <glyph glyph-name="uni042D" unicode="&#x42d;" horiz-adv-x="1269" 
d="M96 55v217q152 -95 370 -95q196 0 320.5 115.5t139.5 321.5h-598v198h598q-24 210 -147 326.5t-320 116.5q-200 0 -363 -85v228q157 60 377 60q316 0 513 -205.5t197 -549.5q0 -322 -189.5 -524.5t-499.5 -202.5q-236 0 -398 79z" />
    <glyph glyph-name="uni042E" unicode="&#x42e;" horiz-adv-x="2128" 
d="M723 635h-309v-635h-237v1434h237v-594h315q30 291 206.5 454.5t459.5 163.5q294 0 470 -198.5t176 -528.5q0 -353 -180 -554t-490 -201q-289 0 -464.5 180.5t-183.5 478.5zM1390 1249q-197 0 -308.5 -141t-111.5 -388q0 -255 106 -395.5t298 -140.5q199 0 308 137.5
t109 388.5q0 261 -105 400t-296 139z" />
    <glyph glyph-name="uni042F" unicode="&#x42f;" horiz-adv-x="1255" 
d="M1077 0h-238v586h-154q-59 0 -103.5 -33t-95.5 -147l-170 -406h-278l211 456q25 53 76.5 111.5t119.5 83.5v4q-148 31 -230.5 130.5t-82.5 241.5q0 184 137 295.5t360 111.5h448v-1434zM839 778v461h-199q-122 0 -189 -59t-67 -167q0 -109 71.5 -172t192.5 -63h191z" />
    <glyph glyph-name="uni0430" unicode="&#x430;" horiz-adv-x="1069" 
d="M75 0zM937 0h-225v160h-4q-106 -184 -311 -184q-151 0 -236.5 82t-85.5 217q0 290 334 338l304 43q0 219 -208 219q-183 0 -330 -126v203q162 96 374 96q388 0 388 -382v-666zM713 503l-215 -30q-100 -13 -150.5 -48.5t-50.5 -124.5q0 -65 46.5 -106.5t124.5 -41.5
q106 0 175.5 74.5t69.5 187.5v89z" />
    <glyph glyph-name="uni0431" unicode="&#x431;" horiz-adv-x="1213" 
d="M994 1533v-197q-40 -27 -129 -40q-220 -31 -307.5 -59.5t-143.5 -121t-72 -270.5h4q114 154 326 154q205 0 330 -136.5t125 -360.5q0 -238 -138.5 -382t-373.5 -144q-248 0 -381.5 169t-133.5 483q0 242 49 410t136 253t193 117t364 75q102 22 152 50zM339 656v-128
q1 -71 21 -140.5t57 -122.5t88 -79t116 -26q120 0 194.5 91.5t74.5 234.5q0 153 -75.5 243.5t-204.5 90.5q-180 0 -271 -164z" />
    <glyph glyph-name="uni0432" unicode="&#x432;" horiz-adv-x="1131" 
d="M151 0v1024h489q165 0 261 -67t96 -183q0 -196 -201 -238q239 -30 239 -236q0 -127 -101 -213.5t-251 -86.5h-532zM383 860v-255h205q174 0 174 135q0 120 -152 120h-227zM383 444v-279h238q178 0 178 144q0 135 -193 135h-223z" />
    <glyph glyph-name="uni0433" unicode="&#x433;" horiz-adv-x="809" 
d="M765 839h-381v-839h-233v1024h614v-185z" />
    <glyph glyph-name="uni0434" unicode="&#x434;" horiz-adv-x="1187" 
d="M1131 -373h-193v373h-729v-373h-191v550h91q245 362 249 847h616v-847h157v-550zM742 177v671h-195q-24 -372 -204 -671h399z" />
    <glyph glyph-name="uni0435" unicode="&#x435;" horiz-adv-x="1088" 
d="M85 0zM1018 449h-698q4 -142 87.5 -219t229.5 -77q164 0 301 98v-187q-140 -88 -370 -88q-226 0 -354.5 139.5t-128.5 392.5q0 239 141.5 389.5t351.5 150.5t325 -135t115 -375v-89zM794 613q-1 125 -59 194.5t-160 69.5q-100 0 -169.5 -73t-85.5 -191h474z" />
    <glyph glyph-name="uni0436" unicode="&#x436;" horiz-adv-x="1622" 
d="M1618 0h-290l-400 509h-4v-509h-226v509h-3l-401 -509h-288l454 532l-433 492h282l385 -482h4v482h226v-482h4l385 482h282l-434 -492z" />
    <glyph glyph-name="uni0437" unicode="&#x437;" horiz-adv-x="945" 
d="M80 28v191q130 -72 304 -72q245 0 245 148t-289 148h-98v164h94q257 0 257 141q0 59 -54.5 94t-148.5 35q-143 0 -286 -68v182q173 58 318 58q407 0 407 -276q0 -89 -58.5 -153t-164.5 -85v-5q117 -9 188 -76t71 -170q0 -140 -122 -223t-336 -83t-327 50z" />
    <glyph glyph-name="uni0438" unicode="&#x438;" horiz-adv-x="1233" 
d="M1081 0h-210v751q-20 -40 -61 -111l-431 -640h-228v1024h213v-736q11 26 47 90l437 646h233v-1024z" />
    <glyph glyph-name="uni0439" unicode="&#x439;" horiz-adv-x="1233" 
d="M151 0zM1081 0h-210v751q-20 -40 -61 -111l-431 -640h-228v1024h213v-736q11 26 47 90l437 646h233v-1024zM1014 1517q-16 -150 -123.5 -236.5t-269.5 -86.5q-166 0 -270.5 86.5t-114.5 236.5h193q14 -182 195 -182q80 0 132.5 48t64.5 134h193z" />
    <glyph glyph-name="uni043A" unicode="&#x43a;" horiz-adv-x="1075" 
d="M151 0zM1081 0h-295l-398 499h-4v-499h-233v1024h233v-471h4l376 471h284l-426 -488z" />
    <glyph glyph-name="uni043B" unicode="&#x43b;" horiz-adv-x="1149" 
d="M998 0h-233v847h-209q-44 -475 -150.5 -667.5t-286.5 -192.5q-60 0 -103 17v173q35 -17 75 -17q215 0 276 864h631v-1024z" />
    <glyph glyph-name="uni043C" unicode="&#x43c;" horiz-adv-x="1507" 
d="M1356 0h-222v820q-20 -62 -61 -183l-231 -637h-206l-235 639q-19 52 -61 183v-822h-189v1024h302l235 -632q25 -69 64 -191l64 187l230 636h310v-1024z" />
    <glyph glyph-name="uni043D" unicode="&#x43d;" horiz-adv-x="1214" 
d="M1063 0h-233v448h-446v-448h-233v1024h233v-402h446v402h233v-1024z" />
    <glyph glyph-name="uni043E" unicode="&#x43e;" horiz-adv-x="1223" 
d="M85 0zM605 -24q-237 0 -378.5 143.5t-141.5 380.5q0 258 147.5 403t397.5 145q240 0 374 -141t134 -391q0 -245 -144.5 -392.5t-388.5 -147.5zM616 863q-136 0 -215 -95t-79 -262q0 -161 80 -253.5t214 -92.5q137 0 210.5 91t73.5 259q0 169 -73.5 261t-210.5 92z" />
    <glyph glyph-name="uni043F" unicode="&#x43f;" horiz-adv-x="1214" 
d="M1063 0h-233v847h-446v-847h-233v1024h912v-1024z" />
    <glyph glyph-name="uni0440" unicode="&#x440;" horiz-adv-x="1234" 
d="M151 0zM387 151h-4v-622h-232v1495h232v-180h4q119 204 348 204q195 0 304 -137t109 -368q0 -256 -123 -410t-336 -154q-196 0 -302 172zM381 555v-127q0 -112 71.5 -190t181.5 -78q129 0 202.5 100.5t73.5 280.5q0 151 -68.5 236.5t-185.5 85.5q-124 0 -199.5 -88
t-75.5 -220z" />
    <glyph glyph-name="uni0441" unicode="&#x441;" horiz-adv-x="963" 
d="M85 0zM884 47q-123 -71 -291 -71q-228 0 -368 142.5t-140 369.5q0 253 150.5 406.5t402.5 153.5q140 0 247 -49v-216q-107 80 -228 80q-147 0 -241 -99.5t-94 -260.5q0 -159 88.5 -251t237.5 -92q125 0 236 89v-202z" />
    <glyph glyph-name="uni0442" unicode="&#x442;" horiz-adv-x="881" 
d="M849 839h-292v-839h-233v839h-294v185h819v-185z" />
    <glyph glyph-name="uni0443" unicode="&#x443;" horiz-adv-x="1041" 
d="M6 0zM1038 1024l-462 -1188q-144 -318 -404 -318q-73 0 -122 13v193q55 -18 100 -18q130 0 194 128l69 168l-407 1022h257l244 -744q4 -14 18 -74h5q5 23 18 72l256 746h234z" />
    <glyph glyph-name="uni0444" unicode="&#x444;" horiz-adv-x="1495" 
d="M854 -18v-460h-214v460h-34q-234 0 -378.5 144t-144.5 377q0 245 146 392t386 147h25v419h214v-419h23q242 0 388 -146t146 -393q0 -233 -143.5 -377t-376.5 -144h-37zM854 866v-709h19q137 0 219 94t82 255q0 169 -80.5 264.5t-215.5 95.5h-24zM640 157v709h-21
q-135 0 -217 -96t-82 -264q0 -159 82 -254t220 -95h18z" />
    <glyph glyph-name="uni0445" unicode="&#x445;" horiz-adv-x="1026" 
d="M17 0zM1007 1024l-341 -518l337 -506h-269l-180 317q-17 29 -40 74h-4q-4 -9 -42 -74l-183 -317h-268l348 502l-330 522h270l177 -333q20 -37 39 -76h3l229 409h254z" />
    <glyph glyph-name="uni0446" unicode="&#x446;" horiz-adv-x="1276" 
d="M1220 -373h-194v373h-875v1024h233v-847h446v847h233v-847h157v-550z" />
    <glyph glyph-name="uni0447" unicode="&#x447;" horiz-adv-x="1190" 
d="M1038 0h-232v386q-175 -95 -322 -95q-346 0 -346 376v357h227v-325q0 -217 170 -217q126 0 271 75v467h232v-1024z" />
    <glyph glyph-name="uni0448" unicode="&#x448;" horiz-adv-x="1695" 
d="M1544 0h-1393v1024h233v-847h347v847h233v-847h347v847h233v-1024z" />
    <glyph glyph-name="uni0449" unicode="&#x449;" horiz-adv-x="1759" 
d="M1702 -373h-194v373h-1357v1024h233v-847h347v847h233v-847h348v847h233v-847h157v-550z" />
    <glyph glyph-name="uni044A" unicode="&#x44a;" horiz-adv-x="1263" 
d="M329 0v839h-301v185h535v-378h280q159 0 252.5 -83t93.5 -233q0 -153 -102.5 -241.5t-258.5 -88.5h-499zM563 479v-312h204q184 0 184 161q0 151 -183 151h-205z" />
    <glyph glyph-name="uni044B" unicode="&#x44b;" horiz-adv-x="1550" 
d="M1398 0h-232v1024h232v-1024zM151 0v1024h232v-378h280q159 0 253 -83.5t94 -232.5q0 -153 -97.5 -241.5t-245.5 -88.5h-516zM383 479v-312h212q176 0 176 161q0 151 -178 151h-210z" />
    <glyph glyph-name="uni044C" unicode="&#x44c;" horiz-adv-x="1083" 
d="M151 0v1024h232v-378h273q163 0 258.5 -83.5t95.5 -232.5q0 -153 -95.5 -241.5t-241.5 -88.5h-522zM383 479v-312h212q176 0 176 161q0 151 -178 151h-210z" />
    <glyph glyph-name="uni044D" unicode="&#x44d;" horiz-adv-x="962" 
d="M83 44v186q112 -80 257 -80q133 0 215 76t89 205h-411v161h412q-11 131 -93 205.5t-218 74.5q-139 0 -241 -74v195q112 55 263 55q253 0 388.5 -142.5t135.5 -401.5q0 -241 -139 -384.5t-374 -143.5q-164 0 -284 68z" />
    <glyph glyph-name="uni044E" unicode="&#x44e;" horiz-adv-x="1730" 
d="M638 444h-254v-444h-233v1024h233v-402h259q27 201 161.5 313.5t344.5 112.5q235 0 364.5 -137t129.5 -391q0 -251 -136.5 -397.5t-376.5 -146.5q-227 0 -354 123t-138 345zM1138 864q-266 0 -266 -351q0 -353 270 -353q264 0 264 354q0 350 -268 350z" />
    <glyph glyph-name="uni044F" unicode="&#x44f;" horiz-adv-x="1090" 
d="M940 0h-231v405h-119q-86 0 -156 -154l-122 -251h-263l162 304q69 118 166 156q-122 16 -186.5 87.5t-64.5 179.5q0 137 109.5 217t294.5 80h410v-1024zM709 565v291h-160q-188 0 -188 -143q0 -148 185 -148h163z" />
    <glyph glyph-name="uni0450" unicode="&#x450;" horiz-adv-x="1088" 
d="M85 0zM1018 449h-698q4 -142 87.5 -219t229.5 -77q164 0 301 98v-187q-140 -88 -370 -88q-226 0 -354.5 139.5t-128.5 392.5q0 239 141.5 389.5t351.5 150.5t325 -135t115 -375v-89zM794 613q-1 125 -59 194.5t-160 69.5q-100 0 -169.5 -73t-85.5 -191h474zM725 1204
h-173l-262 328h214z" />
    <glyph glyph-name="uni0451" unicode="&#x451;" horiz-adv-x="1088" 
d="M85 0zM1018 449h-698q4 -142 87.5 -219t229.5 -77q164 0 301 98v-187q-140 -88 -370 -88q-226 0 -354.5 139.5t-128.5 392.5q0 239 141.5 389.5t351.5 150.5t325 -135t115 -375v-89zM794 613q-1 125 -59 194.5t-160 69.5q-100 0 -169.5 -73t-85.5 -191h474zM776 1203
q-50 0 -86.5 33t-36.5 84q0 49 35 82t85 33q53 0 89.5 -33.5t36.5 -81.5q0 -49 -35 -83t-88 -34zM360 1203q-52 0 -89 34.5t-37 82.5q0 49 35.5 82t86.5 33t88.5 -33.5t37.5 -81.5q0 -49 -36 -83t-86 -34z" />
    <glyph glyph-name="uni0452" unicode="&#x452;" horiz-adv-x="1220" 
d="M499 -403v196q63 -36 118 -36q129 0 189.5 140.5t60.5 474.5q0 463 -225 463q-101 0 -170 -79.5t-69 -197.5v-558h-232v1192h-137v145l138 -1v180h231v-179h332v-145h-332v-354h4q104 186 312 186q382 0 382 -647q0 -424 -115.5 -615.5t-360.5 -191.5q-59 0 -126 27z" />
    <glyph glyph-name="uni0453" unicode="&#x453;" horiz-adv-x="809" 
d="M151 0zM765 839h-381v-839h-233v1024h614v-185zM736 1546l-286 -328h-172l242 328h216z" />
    <glyph glyph-name="uni0454" unicode="&#x454;" horiz-adv-x="963" 
d="M881 44q-121 -68 -289 -68q-235 0 -371 141t-136 379q0 259 143.5 405.5t394.5 146.5q143 0 250 -50v-198q-97 72 -239 72q-135 0 -218.5 -76t-95.5 -204h412v-161h-412q7 -128 88 -204.5t216 -76.5q141 0 257 84v-190z" />
    <glyph glyph-name="uni0455" unicode="&#x455;" horiz-adv-x="883" 
d="M87 0zM87 32v215q130 -99 287 -99q210 0 210 124q0 35 -18 59.5t-48.5 43.5t-72 34t-92.5 34q-63 25 -113.5 53t-84 63.5t-50.5 80.5t-17 105q0 74 35 130.5t94 95t134 58t155 19.5q142 0 254 -43v-203q-108 74 -248 74q-44 0 -79.5 -9t-60.5 -25t-39 -38.5t-14 -49.5
q0 -33 14 -56t41.5 -40.5t66 -32t88.5 -31.5q66 -27 118.5 -55t89.5 -63.5t57 -82t20 -110.5q0 -78 -36 -136t-96 -96t-138.5 -56.5t-165.5 -18.5q-168 0 -291 56z" />
    <glyph glyph-name="uni0456" unicode="&#x456;" horiz-adv-x="535" 
d="M130 0zM268 1239q-57 0 -97.5 37t-40.5 94t40.5 95t97.5 38q59 0 100 -38t41 -95q0 -54 -41 -92.5t-100 -38.5zM383 0h-232v1024h232v-1024z" />
    <glyph glyph-name="uni0457" unicode="&#x457;" horiz-adv-x="535" 
d="M0 0zM384 0h-233v1024h233v-1024zM480 1203q-50 0 -86.5 33t-36.5 84q0 49 35 82t85 33q53 0 89.5 -33.5t36.5 -81.5q0 -49 -35 -83t-88 -34zM64 1203q-52 0 -89 34.5t-37 82.5q0 49 35.5 82t86.5 33t88.5 -33.5t37.5 -81.5q0 -49 -36 -83t-86 -34z" />
    <glyph glyph-name="uni0458" unicode="&#x458;" horiz-adv-x="535" 
d="M0 0zM383 43q0 -252 -106 -388.5t-303 -136.5q-73 0 -142 32v199q65 -45 123 -45q196 0 196 346v974h232v-981zM269 1239q-57 0 -97.5 37t-40.5 94t40.5 95t97.5 38q58 0 99 -38t41 -95q0 -54 -41 -92.5t-99 -38.5z" />
    <glyph glyph-name="uni0459" unicode="&#x459;" horiz-adv-x="1699" 
d="M765 0v847h-209q-44 -475 -150.5 -667.5t-286.5 -192.5q-60 0 -103 16v174q35 -17 75 -17q215 0 276 864h631v-384h272q163 0 259 -82.5t96 -230.5q0 -150 -98 -238.5t-246 -88.5h-516zM998 471v-303h203q185 0 185 156q0 147 -186 147h-202z" />
    <glyph glyph-name="uni045A" unicode="&#x45a;" horiz-adv-x="1703" 
d="M764 0v459h-380v-459h-233v1024h233v-388h380v388h233v-388h272q167 0 260.5 -80.5t93.5 -228.5q0 -153 -96.5 -240t-246.5 -87h-516zM997 468v-300h205q183 0 183 156q0 144 -183 144h-205z" />
    <glyph glyph-name="uni045B" unicode="&#x45b;" horiz-adv-x="1207" 
d="M1079 0h-230v558q0 278 -204 278q-104 0 -173 -78.5t-69 -204.5v-553h-232v1192h-137v145h137v179h232v-179h332v-145h-332v-353h4q116 186 327 186q345 0 345 -418v-607z" />
    <glyph glyph-name="uni045C" unicode="&#x45c;" horiz-adv-x="1075" 
d="M151 0zM151 0zM1081 0h-295l-398 499h-4v-499h-233v1024h233v-471h4l376 471h284l-426 -488zM822 1546l-286 -328h-172l242 328h216z" />
    <glyph glyph-name="uni045D" unicode="&#x45d;" horiz-adv-x="1233" 
d="M151 0zM1081 0h-210v751q-20 -40 -61 -111l-431 -640h-228v1024h213v-736q11 26 47 90l437 646h233v-1024zM768 1204h-173l-262 328h214z" />
    <glyph glyph-name="uni045E" unicode="&#x45e;" horiz-adv-x="1041" 
d="M6 0zM1038 1024l-462 -1188q-144 -318 -404 -318q-73 0 -122 13v193q55 -18 100 -18q130 0 194 128l69 168l-407 1022h257l244 -744q4 -14 18 -74h5q5 23 18 72l256 746h234zM925 1517q-16 -150 -123.5 -236.5t-269.5 -86.5q-166 0 -270.5 86.5t-114.5 236.5h193
q14 -182 195 -182q80 0 132.5 48t64.5 134h193z" />
    <glyph glyph-name="uni045F" unicode="&#x45f;" horiz-adv-x="1214" 
d="M1063 0h-358v-373h-194v373h-360v1024h233v-847h446v847h233v-1024z" />
    <glyph glyph-name="uni0460" unicode="&#x460;" horiz-adv-x="2334" 
d="M1167 49q-177 -73 -380 -73q-317 0 -509.5 200t-192.5 534q0 330 183 539t495 209q161 0 273 -46v-230q-108 71 -275 71q-195 0 -310.5 -147t-115.5 -391q0 -254 124 -394t345 -140q140 0 243 51v347h-301v200h841v-200h-302v-347q102 -51 244 -51q221 0 345.5 139.5
t124.5 394.5q0 243 -115 390.5t-312 147.5q-167 0 -275 -71v230q112 46 273 46q312 0 495.5 -208t183.5 -539q0 -333 -192.5 -534t-509.5 -201q-202 0 -380 73z" />
    <glyph glyph-name="uni0461" unicode="&#x461;" horiz-adv-x="1450" 
d="M1438 1024l-340 -1024h-226l-167 400l-168 -400h-202q-177 411 -233 598t-82 426h225q23 -194 62 -338t148 -431l154 358q-60 195 -83 411h232q27 -212 77 -371.5t149 -397.5l233 769h221z" />
    <glyph glyph-name="uni0462" unicode="&#x462;" horiz-adv-x="1342" 
d="M296 0v1117h-252v191h252v126h239v-126h310v-191h-310v-260h273q213 0 332.5 -105t119.5 -303q0 -208 -134.5 -328.5t-368.5 -120.5h-461zM535 664v-470h204q131 0 201 63.5t70 175.5q0 231 -271 231h-204z" />
    <glyph glyph-name="uni0463" unicode="&#x463;" horiz-adv-x="1219" 
d="M285 0v1167h-251v166h251v183h232v-183h280v-166h-280v-521h272q162 0 259 -83t97 -233q0 -152 -98 -241t-246 -89h-516zM517 479v-312h212q177 0 177 161q0 151 -179 151h-210z" />
    <glyph glyph-name="uni0464" unicode="&#x464;" horiz-adv-x="1905" 
d="M1807 55q-162 -79 -401 -79q-296 0 -481.5 173.5t-200.5 464.5h-310v-614h-237v1434h237v-622h313q30 298 225 472t485 174q217 0 370 -57v-232q-160 86 -360 86q-195 0 -321 -118t-148 -325h597v-198h-598q15 -204 139.5 -321t320.5 -117q218 0 370 94v-215z" />
    <glyph glyph-name="uni0465" unicode="&#x465;" horiz-adv-x="1507" 
d="M1425 44q-119 -68 -286 -68q-221 0 -356.5 120.5t-150.5 331.5h-249v-428h-232v1024h232v-428h251q25 214 165 333t368 119q143 0 250 -50v-198q-98 72 -240 72q-135 0 -218 -76t-95 -204h412v-161h-412q7 -128 88 -204.5t216 -76.5q141 0 257 84v-190z" />
    <glyph glyph-name="uni0466" unicode="&#x466;" horiz-adv-x="1408" 
d="M1389 0h-251l-209 568l-131 -156v-412h-207v410l-116 155l-210 -565h-247l551 1434h282zM854 776l-116 336q-19 52 -31 141h-4q-10 -76 -34 -140l-117 -334l148 -196z" />
    <glyph glyph-name="uni0467" unicode="&#x467;" horiz-adv-x="1083" 
d="M1074 0h-227l-134 360l-87 -97v-263h-179v263l-84 99l-136 -362h-219l418 1022h245zM648 532l-79 220q-19 65 -25 125h-7q-8 -74 -24 -121l-82 -219l111 -128z" />
    <glyph glyph-name="uni0468" unicode="&#x468;" horiz-adv-x="1894" 
d="M1875 0h-251l-209 568l-132 -156v-412h-206v410l-117 155l-210 -565h-246l244 632h-333v-632h-238v1434h238v-601h409l231 601h282zM1341 776l-121 342q-15 44 -27 135h-6q-9 -75 -31 -138l-118 -336l145 -192z" />
    <glyph glyph-name="uni0469" unicode="&#x469;" horiz-adv-x="1533" 
d="M1524 0h-226l-135 360l-87 -97v-263h-178v263l-84 99l-136 -362h-219l181 445h-256v-445h-233v1024h233v-413h323l169 413h246zM1099 532l-73 205q-25 72 -32 140h-6q-10 -84 -31 -137l-77 -203l113 -128z" />
    <glyph glyph-name="uni046A" unicode="&#x46a;" horiz-adv-x="1559" 
d="M1529 0h-245q-45 476 -384 569v-569h-239v568q-181 -52 -272 -188.5t-114 -379.5h-246q50 326 175 500t355 241l-409 693h1274l-424 -693q233 -70 355.5 -244t173.5 -497zM1058 1243h-528l229 -401q11 -32 30 -82h3q14 49 33 82z" />
    <glyph glyph-name="uni046B" unicode="&#x46b;" horiz-adv-x="1231" 
d="M1211 0h-215q-31 326 -276 397v-397h-209v396q-245 -68 -278 -396h-214q41 240 134.5 365t269.5 176l-319 483h1032l-328 -484q175 -53 269 -178t134 -362zM799 862h-347l158 -276q3 -5 12 -28q3 9 14 28z" />
    <glyph glyph-name="uni046C" unicode="&#x46c;" horiz-adv-x="2034" 
d="M2004 0h-244q-43 480 -385 575v-575h-238v574q-181 -52 -272 -190t-115 -384h-246q80 497 374 635h-464v-635h-237v1434h237v-601h574l-363 601h1274l-424 -689q232 -70 355 -244t174 -501zM1533 1243h-528l230 -398l31 -81h2q14 49 33 81z" />
    <glyph glyph-name="uni046D" unicode="&#x46d;" horiz-adv-x="1669" 
d="M1648 0h-214q-33 329 -277 399v-399h-209v399q-246 -70 -277 -399h-214q60 350 281 448h-355v-448h-232v1024h232v-410h436l-276 410h1031l-328 -481q175 -53 268 -178t134 -365zM1237 862h-347l159 -273q6 -10 12 -28l14 28z" />
    <glyph glyph-name="uni046E" unicode="&#x46e;" horiz-adv-x="1123" 
d="M1003 -410h-216q0 64 -71 64q-44 0 -156 -35q-113 -34 -182 -34q-340 0 -340 307q0 138 83.5 216.5t244.5 78.5q22 0 96 -6q73 -7 96 -7q103 0 161 62.5t58 168.5q0 240 -360 240h-144v186h133q154 0 239 60t85 169q0 94 -67 150.5t-184 56.5q-178 0 -347 -108v212
q166 87 383 87q216 0 340 -98.5t124 -258.5q0 -277 -277 -350v-4q148 -17 235.5 -110t87.5 -230q0 -184 -118 -299.5t-321 -115.5q-22 0 -103 6q-81 7 -103 7q-122 0 -122 -114q0 -53 39 -86.5t107 -33.5q43 0 165 33q122 34 195 34q239 0 239 -248z" />
    <glyph glyph-name="uni046F" unicode="&#x46f;" horiz-adv-x="949" 
d="M854 -410h-193q0 67 -60 67q-47 0 -133 -36q-86 -35 -143 -35q-137 0 -218 79t-81 213q0 123 78.5 207t210.5 84q17 0 70 -6q52 -7 69 -7q175 0 175 141q0 145 -268 145h-119v164h118q232 0 232 142q0 59 -54 94.5t-148 35.5q-143 0 -286 -69v182q173 57 318 57
q407 0 407 -275q0 -91 -59.5 -154.5t-162.5 -84.5v-4q115 -9 187 -75.5t72 -170.5q0 -141 -92 -219t-264 -78q-19 0 -83 6q-65 6 -82 6q-121 0 -121 -113q0 -55 33.5 -89t91.5 -34q46 0 135 33q89 34 160 34q210 0 210 -240z" />
    <glyph glyph-name="uni0470" unicode="&#x470;" horiz-adv-x="1644" 
d="M1511 899q0 -228 -146 -377t-392 -149h-42v-373h-211v373h-58q-336 0 -432 394l-154 667h218l151 -645q27 -116 77 -164.5t153 -48.5h45v858h211v-858h42q317 0 317 333v525h221v-535z" />
    <glyph glyph-name="uni0471" unicode="&#x471;" horiz-adv-x="1585" 
d="M1446 557q0 -269 -143 -424.5t-376 -155.5h-25v-458h-209v458h-21q-175 0 -282 101t-168 347l-150 599h226l149 -599q35 -144 88 -201.5t144 -57.5h14v1026h209v-1026h21q128 0 213.5 107.5t85.5 282.5v468h224v-467z" />
    <glyph glyph-name="uni0472" unicode="&#x472;" 
d="M766 -24q-309 0 -495 200.5t-186 522.5q0 346 189.5 552.5t515.5 206.5q303 0 488 -201t185 -526q0 -349 -189.5 -552t-507.5 -203zM1205 826q-23 204 -134 313.5t-291 109.5q-186 0 -307 -124t-133 -328q210 67 268 67t189 -56q130 -56 165 -56q48 0 243 74zM1208 630
q-192 -70 -258 -70q-56 0 -185 56q-128 55 -173 55q-34 0 -250 -70q23 -192 138.5 -304.5t289.5 -112.5q197 0 313 118t125 328z" />
    <glyph glyph-name="uni0473" unicode="&#x473;" horiz-adv-x="1223" 
d="M606 -24q-237 0 -379 144.5t-142 382.5q0 257 146 401t394 144q242 0 377.5 -140t135.5 -388q0 -247 -144.5 -395.5t-387.5 -148.5zM903 599q-30 272 -287 272q-123 0 -203 -75t-96 -210q130 46 178 46q42 0 136 -41q93 -42 119 -42q30 0 153 50zM903 430
q-118 -46 -165 -46q-42 0 -132 42q-91 41 -124 41q-26 0 -161 -50q16 -126 94.5 -196t201.5 -70q258 0 286 279z" />
    <glyph glyph-name="uni0474" unicode="&#x474;" horiz-adv-x="1574" 
d="M1562 1157h-209q-12 104 -80 104q-63 0 -104 -118l-380 -1143h-269l-506 1434h260l357 -1088q17 -52 26 -121h4q6 45 28 115l268 863q80 255 317 255q261 0 288 -301z" />
    <glyph glyph-name="uni0475" unicode="&#x475;" horiz-adv-x="1299" 
d="M1293 769h-208q-8 91 -77 91q-59 0 -103 -124l-264 -736h-255l-377 1024h252l227 -716q25 -79 32 -138h3q6 60 26 122l154 491q80 265 308 265q254 0 282 -279z" />
    <glyph glyph-name="uni0476" unicode="&#x476;" horiz-adv-x="1574" 
d="M14 0zM1562 1157h-209q-12 104 -80 104q-63 0 -104 -118l-380 -1143h-269l-506 1434h260l357 -1088q17 -52 26 -121h4q6 45 28 115l268 863q80 255 317 255q261 0 288 -301zM951 1566h-148l-243 318h183zM650 1566h-148l-248 318h185z" />
    <glyph glyph-name="uni0477" unicode="&#x477;" horiz-adv-x="1299" 
d="M9 0zM1293 769h-208q-8 91 -77 91q-59 0 -103 -124l-264 -736h-255l-377 1024h252l227 -716q25 -79 32 -138h3q6 60 26 122l154 491q80 265 308 265q254 0 282 -279zM821 1204h-148l-243 318h183zM520 1204h-148l-248 318h185z" />
    <glyph glyph-name="uni0478" unicode="&#x478;" horiz-adv-x="2821" 
d="M769 -70v86q-309 0 -496.5 201t-187.5 524q0 338 194.5 548t505.5 210v-82q317 0 497.5 -198t180.5 -529q0 -350 -187.5 -555t-506.5 -205zM785 1209v82q-202 0 -326 -150.5t-124 -384.5q0 -239 120 -385t314 -146v-82q206 0 325 141t119 386q0 256 -112.5 397.5
t-315.5 141.5zM2811 769h-207q-10 91 -77 91q-59 0 -104 -124l-393 -1146h-244l143 380l-391 1054h252l223 -680q28 -91 35 -161h5q6 61 34 156l134 445q81 264 306 264q257 0 284 -279z" />
    <glyph glyph-name="uni0479" unicode="&#x479;" horiz-adv-x="2461" 
d="M605 -55v61q-242 0 -383.5 145t-141.5 383q0 248 146.5 396.5t389.5 148.5v-61q247 0 382 -140t135 -388q0 -247 -144.5 -396t-383.5 -149zM616 832v62q-139 0 -219 -92.5t-80 -262.5q0 -164 77 -256t211 -92v-62q139 0 215 93t76 261q0 349 -280 349zM2450 768h-208
q-8 92 -69 92q-68 0 -133 -190l-372 -1080h-244l144 381l-390 1053h251l229 -705q24 -77 30 -136h4q5 42 24 107l125 432q95 326 325 326q256 0 284 -280z" />
    <glyph glyph-name="uni047A" unicode="&#x47a;" horiz-adv-x="1694" 
d="M983 -18q-51 -72 -139 -72q-87 0 -139 71q-294 27 -457 217.5t-163 500.5q0 326 162.5 523.5t463.5 228.5q49 79 145 79q95 0 143 -78q288 -27 448.5 -218.5t160.5 -502.5q0 -330 -162 -525.5t-463 -223.5zM984 1240q-49 -58 -128 -58q-80 0 -129 59
q-185 -22 -289 -161.5t-104 -364.5q0 -223 99.5 -360t277.5 -162q49 64 133 64q85 0 134 -65q183 24 282 157.5t99 360.5q0 481 -375 530z" />
    <glyph glyph-name="uni047B" unicode="&#x47b;" horiz-adv-x="1364" 
d="M817 -16q-46 -74 -134 -74q-85 0 -133 72q-228 25 -346.5 161.5t-118.5 359.5q0 485 469 539q49 77 138 77q88 0 136 -77q451 -50 451 -522q0 -224 -121.5 -364.5t-340.5 -171.5zM814 854q-44 -58 -122 -58q-81 0 -125 60q-245 -41 -245 -348q0 -295 234 -338
q46 61 127 61t127 -62q232 42 232 345q0 292 -228 340z" />
    </font>
</defs>
</svg>
